<?xml version="1.0" encoding="UTF-8" standalone="no"?><!DOCTYPE svg PUBLIC "-//W3C//DTD SVG 1.1//EN" "http://www.w3.org/Graphics/SVG/1.1/DTD/svg11.dtd"><svg width="100%" height="100%" viewBox="0 0 1273 722" version="1.1" xmlns="http://www.w3.org/2000/svg" xmlns:xlink="http://www.w3.org/1999/xlink" xml:space="preserve" xmlns:serif="http://www.serif.com/" style="fill-rule:evenodd;clip-rule:evenodd;stroke-linejoin:round;stroke-miterlimit:2;"><g><path d="M1272.9,466.458c0,-33.411 -5.651,-67.89 -16.784,-102.278c-59.375,-183.36 -245.443,-364.18 -619.662,-364.18c-375.989,0 -562.435,182.63 -620.547,366.927c-10.546,33.477 -15.911,67.018 -15.911,99.531c0,190.717 284.948,254.584 636.458,254.584c351.498,0 636.446,-63.867 636.446,-254.584Z" style="fill:#e16f0f;fill-rule:nonzero;"/><path d="M1002.07,76.888c-93.841,-47.318 -214.349,-76.888 -365.612,-76.888c-117.135,0 -215.872,17.734 -298.073,47.721c-86.432,38.23 -160.989,87.201 -218.307,141.211c-50.664,54.61 -84.674,116.185 -104.167,177.995c-10.247,32.526 -15.494,65.078 -15.794,96.706c0.508,2.318 0.873,4.661 1.472,6.966c42.942,167.279 304.322,201.823 597.851,143.633c411.159,-81.511 592.839,-429.427 402.63,-537.344Z" style="fill:#ef881f;fill-rule:nonzero;"/><path d="M841.003,149.01c30.898,120.287 -111.524,269.102 -318.099,332.357c-206.55,63.242 -399.024,16.992 -429.909,-103.307c-30.886,-120.287 111.536,-269.089 318.099,-332.344c206.562,-63.242 399.036,-17.005 429.909,103.294Z" style="fill:#faa143;fill-rule:nonzero;"/><path d="M622.266,154.818c16.432,63.997 -59.349,143.19 -169.271,176.848c-109.909,33.646 -212.331,9.037 -228.75,-54.973c-16.446,-63.998 59.336,-143.177 169.258,-176.836c109.908,-33.659 212.33,-9.063 228.763,54.961Z" style="fill:#ffc466;fill-rule:nonzero;"/><path d="M636.458,721.042c-351.51,0 -636.458,-63.867 -636.458,-254.584c0,-7.539 0.352,-15.13 0.937,-22.773c0,0.013 0.014,0.026 0.014,0.039c-0.495,6.667 -0.769,13.307 -0.834,19.909c0.508,2.318 0.873,4.661 1.472,6.966c30.273,117.93 169.14,169.883 351.263,169.896c76.224,0 159.987,-9.089 246.588,-26.263c8.359,-1.654 16.628,-3.425 24.805,-5.3c4.049,0.013 8.125,0.026 12.213,0.026c312.123,0 572.683,-42.917 635.495,-165.221c0.573,7.617 0.951,15.208 0.951,22.721c0,190.717 -284.948,254.584 -636.446,254.584Z" style="fill:#f0a748;fill-rule:nonzero;"/><path d="M352.852,640.495c-182.123,-0.013 -320.99,-51.966 -351.263,-169.896c-0.599,-2.305 -0.964,-4.648 -1.472,-6.966c0.065,-6.602 0.339,-13.242 0.834,-19.909c61.992,120.716 316.601,164.102 623.294,165.208c-8.177,1.875 -16.446,3.646 -24.805,5.3c-86.601,17.174 -170.364,26.263 -246.588,26.263Z" style="fill:#f7b450;fill-rule:nonzero;"/><path d="M636.458,671.823c-294.778,0 -543.58,-36.563 -623.255,-139.102c59.818,139.545 316.12,188.321 623.255,188.321c307.123,0 563.438,-48.776 623.242,-188.321c-79.674,102.539 -328.489,139.102 -623.242,139.102Z" style="fill:#ffdf80;fill-rule:nonzero;"/><path d="M440.039,246.901c-4.479,-7.435 -9.492,-7.5 -13.984,-4.779c-4.479,2.696 -6.745,7.175 -2.266,14.584c4.479,7.422 14.036,14.987 18.516,12.291c4.492,-2.721 2.213,-14.687 -2.266,-22.096Z" style="fill:#ffe5b2;fill-rule:nonzero;"/><path d="M105.326,366.484c-4.792,7.227 -2.709,11.771 1.653,14.688c4.362,2.891 9.388,3.034 14.167,-4.193c4.791,-7.226 7.552,-19.102 3.19,-21.992c-4.362,-2.904 -14.219,4.258 -19.01,11.497Z" style="fill:#ffe5b2;fill-rule:nonzero;"/><path d="M738.685,43.138c-2.057,8.411 1.432,12.005 6.51,13.268c5.105,1.224 9.857,-0.312 11.94,-8.75c2.058,-8.411 0.651,-20.508 -4.44,-21.77c-5.078,-1.237 -11.927,8.827 -14.01,17.252Z" style="fill:#ffe5b2;fill-rule:nonzero;"/><path d="M1113.14,308.242c-1.25,8.581 2.565,11.823 7.747,12.578c5.196,0.742 9.792,-1.25 11.042,-9.83c1.25,-8.581 -1.315,-20.495 -6.51,-21.251c-5.183,-0.768 -11.029,9.935 -12.279,18.503Z" style="fill:#ffe5b2;fill-rule:nonzero;"/><path d="M707.279,46.406c8.672,0.417 11.523,-3.671 11.784,-8.906c0.273,-5.234 -2.175,-9.636 -10.834,-10.065c-8.646,-0.43 -20.273,3.255 -20.534,8.49c-0.26,5.234 10.938,10.052 19.584,10.481Z" style="fill:#ffe5b2;fill-rule:nonzero;"/><path d="M384.023,425.378c-8.398,2.161 -9.895,6.94 -8.593,12.005c1.302,5.078 4.948,8.542 13.346,6.367c8.372,-2.161 18.372,-9.141 17.057,-14.219c-1.302,-5.065 -13.424,-6.328 -21.81,-4.153Z" style="fill:#ffe5b2;fill-rule:nonzero;"/><path d="M777.513,127.682c-8.594,1.133 -10.664,5.677 -9.987,10.886c0.677,5.182 3.867,9.062 12.461,7.929c8.594,-1.132 19.362,-6.835 18.672,-12.018c-0.677,-5.208 -12.552,-7.93 -21.146,-6.797Z" style="fill:#ffe5b2;fill-rule:nonzero;"/><path d="M978.086,230.039c2.865,-8.177 -0.273,-12.083 -5.221,-13.802c-4.948,-1.732 -9.831,-0.625 -12.696,7.552c-2.851,8.19 -2.591,20.377 2.357,22.096c4.935,1.732 12.708,-7.669 15.56,-15.846Z" style="fill:#ffe5b2;fill-rule:nonzero;"/><path d="M965.286,104.284c7.995,3.359 12.071,0.469 14.102,-4.362c2.031,-4.831 1.237,-9.779 -6.758,-13.125c-7.982,-3.36 -20.169,-3.867 -22.2,0.976c-2.019,4.818 6.862,13.164 14.856,16.511Z" style="fill:#ffe5b2;fill-rule:nonzero;"/><path d="M866.419,50.052c-7.135,-4.948 -11.731,-2.969 -14.726,1.328c-2.995,4.31 -3.243,9.31 3.88,14.271c7.109,4.948 18.919,7.969 21.901,3.659c2.995,-4.297 -3.945,-14.297 -11.055,-19.258Z" style="fill:#ffe5b2;fill-rule:nonzero;"/><path d="M349.323,342.669c5.521,-6.692 3.932,-11.432 -0.117,-14.766c-4.037,-3.346 -9.011,-4.01 -14.532,2.683c-5.507,6.68 -9.505,18.203 -5.455,21.536c4.036,3.334 14.583,-2.773 20.104,-9.453Z" style="fill:#ffe5b2;fill-rule:nonzero;"/><path d="M477.435,365.026c-8.229,-2.721 -12.083,0.469 -13.724,5.456c-1.654,4.974 -0.469,9.843 7.773,12.578c8.23,2.708 20.404,2.24 22.045,-2.735c1.64,-4.96 -7.865,-12.577 -16.094,-15.299Z" style="fill:#ffe5b2;fill-rule:nonzero;"/><path d="M266.068,364.427c-8.021,-3.294 -12.084,-0.365 -14.076,4.492c-1.992,4.844 -1.159,9.779 6.875,13.073c8.008,3.294 20.195,3.698 22.175,-1.146c1.992,-4.856 -6.953,-13.125 -14.974,-16.419Z" style="fill:#ffe5b2;fill-rule:nonzero;"/><path d="M316.901,275.925c8.503,1.679 11.927,-1.98 12.93,-7.123c1.015,-5.13 -0.755,-9.831 -9.271,-11.497c-8.516,-1.68 -20.534,0.299 -21.55,5.442c-1.002,5.131 9.375,11.524 17.891,13.178Z" style="fill:#ffe5b2;fill-rule:nonzero;"/><path d="M583.047,216.771c1.12,-8.594 -2.735,-11.784 -7.93,-12.461c-5.182,-0.703 -9.765,1.367 -10.898,9.974c-1.133,8.581 1.601,20.455 6.784,21.146c5.208,0.69 10.911,-10.066 12.044,-18.659Z" style="fill:#ffe5b2;fill-rule:nonzero;"/><path d="M234.896,168.398c-7.93,3.516 -8.633,8.464 -6.511,13.255c2.123,4.792 6.263,7.618 14.18,4.102c7.93,-3.502 16.654,-12.018 14.531,-16.823c-2.122,-4.778 -14.27,-4.036 -22.2,-0.534Z" style="fill:#ffe5b2;fill-rule:nonzero;"/><path d="M861.263,410.065c-7.396,-4.505 -11.862,-2.266 -14.596,2.214c-2.722,4.466 -2.683,9.479 4.713,13.997c7.409,4.518 19.375,6.823 22.11,2.357c2.721,-4.479 -4.818,-14.05 -12.227,-18.568Z" style="fill:#ffe5b2;fill-rule:nonzero;"/><path d="M557.174,315.326c5.066,7.018 10.079,6.679 14.323,3.619c4.232,-3.086 6.133,-7.721 1.055,-14.752c-5.065,-7.005 -15.208,-13.777 -19.466,-10.703c-4.232,3.059 -0.99,14.804 4.088,21.836Z" style="fill:#ffe5b2;fill-rule:nonzero;"/><path d="M381.185,242.188c4.857,-7.175 2.812,-11.745 -1.524,-14.688c-4.335,-2.943 -9.335,-3.125 -14.192,4.049c-4.87,7.175 -7.761,19.011 -3.425,21.94c4.349,2.956 14.271,-4.127 19.141,-11.301Z" style="fill:#ffe5b2;fill-rule:nonzero;"/><path d="M551.914,495.938c6.497,5.755 11.302,4.348 14.779,0.429c3.463,-3.932 4.323,-8.867 -2.162,-14.622c-6.471,-5.769 -17.851,-10.169 -21.328,-6.237c-3.476,3.906 2.24,14.674 8.711,20.43Z" style="fill:#ffe5b2;fill-rule:nonzero;"/><path d="M318.828,89.388c1.055,8.607 5.586,10.729 10.781,10.091c5.209,-0.625 9.115,-3.763 8.073,-12.383c-1.041,-8.594 -6.64,-19.427 -11.836,-18.802c-5.208,0.651 -8.06,12.487 -7.018,21.094Z" style="fill:#ffe5b2;fill-rule:nonzero;"/><path d="M816.263,323.412c1.732,-8.503 -1.901,-11.941 -7.031,-12.982c-5.143,-1.055 -9.831,0.69 -11.576,9.192c-1.718,8.49 0.169,20.534 5.3,21.576c5.13,1.055 11.575,-9.284 13.307,-17.786Z" style="fill:#ffe5b2;fill-rule:nonzero;"/><path d="M693.62,146.953c6.406,5.846 11.224,4.492 14.752,0.625c3.529,-3.867 4.454,-8.802 -1.953,-14.635c-6.419,-5.86 -17.721,-10.404 -21.237,-6.524c-3.541,3.868 2.032,14.688 8.438,20.534Z" style="fill:#ffe5b2;fill-rule:nonzero;"/><path d="M523.984,125.547c-5.013,-7.07 -10.013,-6.758 -14.283,-3.737c-4.271,3.047 -6.211,7.656 -1.198,14.726c5.026,7.071 15.104,13.907 19.375,10.886c4.283,-3.047 1.132,-14.805 -3.894,-21.875Z" style="fill:#ffe5b2;fill-rule:nonzero;"/><path d="M687.148,280.234c8.164,2.904 12.084,-0.208 13.855,-5.143c1.744,-4.948 0.677,-9.83 -7.5,-12.734c-8.151,-2.917 -20.339,-2.735 -22.084,2.2c-1.771,4.935 7.565,12.774 15.729,15.677Z" style="fill:#ffe5b2;fill-rule:nonzero;"/><path d="M805.417,259.948c7.174,4.87 11.744,2.839 14.687,-1.511c2.93,-4.336 3.125,-9.348 -4.062,-14.205c-7.175,-4.857 -19.011,-7.722 -21.953,-3.386c-2.943,4.336 4.14,14.258 11.328,19.102Z" style="fill:#ffe5b2;fill-rule:nonzero;"/><path d="M1025.16,181.237c7.266,-4.74 7.162,-9.74 4.31,-14.128c-2.877,-4.401 -7.409,-6.523 -14.674,-1.784c-7.266,4.74 -14.506,14.532 -11.641,18.92c2.852,4.388 14.727,1.719 22.005,-3.008Z" style="fill:#ffe5b2;fill-rule:nonzero;"/><path d="M829.635,205.586c6.224,-6.016 5.183,-10.912 1.537,-14.687c-3.646,-3.763 -8.503,-4.975 -14.74,1.054c-6.224,6.029 -11.471,17.019 -7.825,20.794c3.646,3.776 14.804,-1.12 21.028,-7.161Z" style="fill:#ffe5b2;fill-rule:nonzero;"/><path d="M742.982,289.375c-8.659,0.56 -11.029,4.974 -10.69,10.195c0.351,5.235 3.268,9.31 11.914,8.737c8.646,-0.559 19.765,-5.534 19.427,-10.768c-0.339,-5.234 -12.005,-8.737 -20.651,-8.164Z" style="fill:#ffe5b2;fill-rule:nonzero;"/><path d="M1039.31,376.81c5.26,6.888 10.234,6.419 14.414,3.242c4.167,-3.177 5.937,-7.865 0.69,-14.753c-5.26,-6.901 -15.573,-13.398 -19.727,-10.221c-4.166,3.177 -0.624,14.844 4.623,21.732Z" style="fill:#ffe5b2;fill-rule:nonzero;"/><path d="M435.117,181.068c-8.476,1.849 -10.156,6.562 -9.023,11.68c1.12,5.129 4.622,8.723 13.099,6.861c8.45,-1.861 18.698,-8.476 17.578,-13.593c-1.133,-5.117 -13.19,-6.81 -21.654,-4.948Z" style="fill:#ffe5b2;fill-rule:nonzero;"/><path d="M887.305,138.594c-6.172,-6.107 -11.029,-4.948 -14.714,-1.211c-3.698,3.711 -4.805,8.607 1.367,14.7c6.146,6.107 17.253,11.094 20.951,7.37c3.685,-3.711 -1.445,-14.779 -7.604,-20.859Z" style="fill:#ffe5b2;fill-rule:nonzero;"/><path d="M498.19,60.325c0.391,-8.645 -3.737,-11.484 -8.971,-11.718c-5.235,-0.248 -9.597,2.213 -9.987,10.885c-0.391,8.659 3.359,20.261 8.58,20.495c5.248,0.221 10.001,-10.989 10.378,-19.662Z" style="fill:#ffe5b2;fill-rule:nonzero;"/><path d="M562.383,24.518c-8.425,2.097 -9.961,6.862 -8.698,11.953c1.263,5.091 4.87,8.568 13.281,6.472c8.412,-2.097 18.464,-8.985 17.188,-14.076c-1.263,-5.091 -13.373,-6.432 -21.771,-4.349Z" style="fill:#ffe5b2;fill-rule:nonzero;"/><path d="M785.846,64.492c8.633,-0.807 10.873,-5.273 10.391,-10.508c-0.495,-5.208 -3.529,-9.205 -12.162,-8.398c-8.619,0.82 -19.596,6.107 -19.114,11.328c0.495,5.221 12.252,8.385 20.885,7.578Z" style="fill:#ffe5b2;fill-rule:nonzero;"/><path d="M157.513,218.438c3.893,7.76 8.867,8.216 13.555,5.872c4.674,-2.357 7.291,-6.628 3.411,-14.388c-3.893,-7.747 -12.825,-16.042 -17.5,-13.685c-4.687,2.357 -3.359,14.453 0.534,22.201Z" style="fill:#ffe5b2;fill-rule:nonzero;"/><path d="M504.466,241.601c7.149,4.922 11.745,2.917 14.714,-1.393c2.968,-4.323 3.19,-9.323 -3.959,-14.244c-7.122,-4.909 -18.958,-7.878 -21.927,-3.542c-2.968,4.31 4.037,14.271 11.172,19.179Z" style="fill:#ffe5b2;fill-rule:nonzero;"/><path d="M1045.26,126.263c7.188,-4.87 6.98,-9.857 4.05,-14.193c-2.956,-4.336 -7.539,-6.38 -14.714,-1.51c-7.174,4.87 -14.218,14.804 -11.289,19.141c2.956,4.336 14.792,1.432 21.953,-3.438Z" style="fill:#ffe5b2;fill-rule:nonzero;"/><path d="M948.424,417.721c-8.32,2.487 -9.635,7.318 -8.138,12.331c1.511,5.026 5.248,8.347 13.568,5.873c8.307,-2.501 18.034,-9.831 16.524,-14.857c-1.498,-5.026 -13.646,-5.834 -21.954,-3.347Z" style="fill:#ffe5b2;fill-rule:nonzero;"/><path d="M492.786,280.534c-1.757,-8.49 -6.458,-10.221 -11.588,-9.154c-5.143,1.081 -8.763,4.531 -6.992,13.021c1.771,8.489 8.255,18.789 13.398,17.721c5.13,-1.067 6.953,-13.112 5.182,-21.588Z" style="fill:#ffe5b2;fill-rule:nonzero;"/><path d="M1049.57,256.276c-1.953,-8.451 -6.692,-10.078 -11.797,-8.893c-5.117,1.172 -8.658,4.713 -6.705,13.164c1.953,8.45 8.672,18.62 13.776,17.435c5.117,-1.185 6.679,-13.256 4.726,-21.706Z" style="fill:#ffe5b2;fill-rule:nonzero;"/><path d="M413.216,298.789c4.167,-7.604 1.719,-11.953 -2.864,-14.479c-4.61,-2.513 -9.61,-2.253 -13.776,5.351c-4.18,7.592 -5.938,19.649 -1.342,22.175c4.597,2.526 13.802,-5.443 17.982,-13.047Z" style="fill:#ffe5b2;fill-rule:nonzero;"/><path d="M343.555,164.857c-0.417,8.672 3.698,11.523 8.919,11.784c5.234,0.247 9.622,-2.188 10.039,-10.847c0.43,-8.659 -3.268,-20.273 -8.503,-20.534c-5.234,-0.247 -10.026,10.951 -10.455,19.597Z" style="fill:#ffe5b2;fill-rule:nonzero;"/><path d="M883.112,120.182c5.651,6.576 10.586,5.834 14.583,2.409c3.972,-3.412 5.469,-8.19 -0.182,-14.765c-5.638,-6.589 -16.289,-12.488 -20.273,-9.063c-3.972,3.411 0.221,14.844 5.872,21.419Z" style="fill:#ffe5b2;fill-rule:nonzero;"/><path d="M827.331,85.521c7.565,-4.245 7.786,-9.232 5.221,-13.802c-2.565,-4.57 -6.966,-6.992 -14.518,-2.735c-7.565,4.245 -15.43,13.555 -12.852,18.112c2.552,4.571 14.597,2.683 22.149,-1.575Z" style="fill:#ffe5b2;fill-rule:nonzero;"/><path d="M369.284,124.127c7.604,4.18 11.979,1.745 14.492,-2.851c2.539,-4.583 2.266,-9.583 -5.325,-13.776c-7.592,-4.193 -19.649,-5.963 -22.175,-1.38c-2.526,4.596 5.417,13.828 13.008,18.007Z" style="fill:#ffe5b2;fill-rule:nonzero;"/><path d="M689.128,330.156c1.211,-8.594 -2.618,-11.81 -7.8,-12.526c-5.195,-0.742 -9.779,1.276 -10.989,9.857c-1.224,8.607 1.393,20.495 6.575,21.237c5.195,0.716 11.003,-9.987 12.214,-18.568Z" style="fill:#ffe5b2;fill-rule:nonzero;"/><path d="M614.505,156.81c8.451,-1.992 10.039,-6.745 8.854,-11.823c-1.198,-5.117 -4.752,-8.646 -13.19,-6.654c-8.437,1.98 -18.58,8.75 -17.383,13.854c1.211,5.092 13.295,6.602 21.719,4.623Z" style="fill:#ffe5b2;fill-rule:nonzero;"/><path d="M565.221,122.122c5.938,6.328 10.847,5.352 14.675,1.758c3.815,-3.58 5.104,-8.424 -0.834,-14.752c-5.937,-6.302 -16.848,-11.719 -20.677,-8.138c-3.815,3.58 0.899,14.817 6.836,21.132Z" style="fill:#ffe5b2;fill-rule:nonzero;"/><path d="M876.211,276.341c-6.693,-5.534 -11.432,-3.945 -14.779,0.091c-3.333,4.037 -4.01,8.998 2.67,14.532c6.679,5.52 18.177,9.531 21.523,5.494c3.346,-4.049 -2.747,-14.583 -9.414,-20.117Z" style="fill:#ffe5b2;fill-rule:nonzero;"/><path d="M899.779,194.57c-5.3,6.849 -3.568,11.537 0.586,14.74c4.14,3.229 9.127,3.724 14.427,-3.125c5.312,-6.862 8.932,-18.49 4.791,-21.706c-4.153,-3.203 -14.505,3.229 -19.804,10.091Z" style="fill:#ffe5b2;fill-rule:nonzero;"/><path d="M668.307,417.526c-5.794,-6.458 -10.716,-5.599 -14.609,-2.096c-3.919,3.502 -5.3,8.32 0.482,14.778c5.794,6.446 16.575,12.097 20.481,8.594c3.907,-3.503 -0.559,-14.831 -6.354,-21.276Z" style="fill:#ffe5b2;fill-rule:nonzero;"/><path d="M629.583,92.773c7.774,3.829 12.032,1.185 14.349,-3.502c2.318,-4.701 1.823,-9.701 -5.95,-13.529c-7.774,-3.828 -19.909,-5.078 -22.214,-0.377c-2.33,4.713 6.042,13.567 13.815,17.408Z" style="fill:#ffe5b2;fill-rule:nonzero;"/><path d="M929.818,319.961c-8.646,-0.651 -11.602,3.385 -12.005,8.607c-0.391,5.221 1.927,9.661 10.572,10.325c8.646,0.651 20.352,-2.721 20.743,-7.943c0.39,-5.234 -10.677,-10.338 -19.31,-10.989Z" style="fill:#ffe5b2;fill-rule:nonzero;"/><path d="M564.857,395.859c4.57,7.383 9.57,7.396 14.036,4.649c4.453,-2.761 6.667,-7.253 2.11,-14.635c-4.545,-7.357 -14.167,-14.844 -18.633,-12.084c-4.466,2.761 -2.071,14.701 2.487,22.07Z" style="fill:#ffe5b2;fill-rule:nonzero;"/><path d="M653.568,162.487c1.341,-8.594 -2.448,-11.862 -7.631,-12.656c-5.182,-0.821 -9.778,1.146 -11.132,9.726c-1.315,8.555 1.119,20.495 6.289,21.302c5.182,0.808 11.146,-9.83 12.474,-18.372Z" style="fill:#ffe5b2;fill-rule:nonzero;"/><path d="M632.109,258.346c-6.263,-6.015 -11.106,-4.765 -14.739,-0.989c-3.633,3.789 -4.662,8.685 1.601,14.687c6.263,6.016 17.435,10.834 21.055,7.058c3.633,-3.777 -1.654,-14.753 -7.917,-20.756Z" style="fill:#ffe5b2;fill-rule:nonzero;"/><path d="M742.344,218.294c7.122,4.948 11.718,2.956 14.7,-1.341c2.982,-4.31 3.242,-9.31 -3.893,-14.245c-7.109,-4.948 -18.932,-7.942 -21.914,-3.646c-2.995,4.31 3.971,14.297 11.107,19.232Z" style="fill:#ffe5b2;fill-rule:nonzero;"/><path d="M805.781,453.503c-4.635,-7.331 -9.635,-7.305 -14.062,-4.506c-4.427,2.8 -6.615,7.318 -1.979,14.649c4.622,7.33 14.323,14.7 18.763,11.901c4.427,-2.8 1.914,-14.727 -2.722,-22.044Z" style="fill:#ffe5b2;fill-rule:nonzero;"/><path d="M314.779,185.339c-3.972,-7.709 -8.959,-8.113 -13.62,-5.704c-4.662,2.409 -7.24,6.706 -3.255,14.414c3.971,7.696 12.994,15.899 17.643,13.503c4.661,-2.422 3.203,-14.505 -0.768,-22.213Z" style="fill:#ffe5b2;fill-rule:nonzero;"/><path d="M442.891,121.601c5.859,-6.393 4.531,-11.21 0.664,-14.752c-3.854,-3.555 -8.789,-4.466 -14.649,1.927c-5.859,6.38 -10.442,17.669 -6.575,21.211c3.854,3.542 14.7,-1.992 20.56,-8.386Z" style="fill:#ffe5b2;fill-rule:nonzero;"/><path d="M651.393,60.885c6.797,5.404 11.511,3.724 14.766,-0.377c3.268,-4.102 3.841,-9.089 -2.943,-14.479c-6.797,-5.391 -18.385,-9.167 -21.64,-5.066c-3.269,4.102 3.033,14.545 9.817,19.922Z" style="fill:#ffe5b2;fill-rule:nonzero;"/><path d="M474.909,173.086c3.607,7.89 8.568,8.529 13.333,6.341c4.766,-2.187 7.526,-6.367 3.919,-14.245c-3.606,-7.877 -12.239,-16.484 -17.005,-14.31c-4.765,2.188 -3.867,14.349 -0.247,22.214Z" style="fill:#ffe5b2;fill-rule:nonzero;"/><path d="M195.495,266.914c-8.594,-1.159 -11.771,2.708 -12.474,7.904c-0.69,5.182 1.367,9.765 9.961,10.898c8.594,1.159 20.469,-1.562 21.159,-6.745c0.703,-5.208 -10.065,-10.911 -18.646,-12.057Z" style="fill:#ffe5b2;fill-rule:nonzero;"/></g></svg>