<?xml version="1.0" encoding="UTF-8" standalone="no"?><!DOCTYPE svg PUBLIC "-//W3C//DTD SVG 1.1//EN" "http://www.w3.org/Graphics/SVG/1.1/DTD/svg11.dtd"><svg width="100%" height="100%" viewBox="0 0 1232 644" version="1.1" xmlns="http://www.w3.org/2000/svg" xmlns:xlink="http://www.w3.org/1999/xlink" xml:space="preserve" xmlns:serif="http://www.serif.com/" style="fill-rule:evenodd;clip-rule:evenodd;stroke-linejoin:round;stroke-miterlimit:2;"><g><path d="M1231.58,302.982c0,-37.461 -19.766,-121.393 -55.027,-153.425l-1121.52,0c-35.247,32.032 -55.026,115.964 -55.026,153.425c0,278.958 372.669,340.078 615.794,340.078c243.151,0 615.782,-61.12 615.782,-340.078Z" style="fill:#e16f0f;fill-rule:nonzero;"/><path d="M189.909,565.846c9.336,4.115 18.893,8.242 28.633,12.474c1.979,0.808 4.023,1.511 6.041,2.331c73.92,21.862 151.628,26.849 217.409,26.849c193.789,0 490.82,21.445 490.82,-370.885c0,-20.638 -4.166,-54.401 -11.979,-87.058l-865.807,0c-35.247,32.032 -55.026,115.964 -55.026,153.425c0,129.166 79.961,211.549 189.909,262.864Z" style="fill:#ef881f;fill-rule:nonzero;"/><path d="M0,302.982c0,136.901 52.682,163.672 131.224,224.036c55.039,29.44 116.979,46.081 182.539,46.081c228.021,0 412.878,-136.198 412.878,-383.359c0,-13.529 -0.651,-26.914 -1.758,-40.183l-669.857,0c-35.247,32.032 -55.026,115.964 -55.026,153.425Z" style="fill:#faa143;fill-rule:nonzero;"/><path d="M1177.72,150.651c0,-0.013 -0.013,-0.013 -0.013,-0.026c0,0.013 0.013,0.013 0.013,0.026Zm-0.247,-0.247c-0.013,-0.013 -0.039,-0.026 -0.052,-0.039c0.013,0.013 0.039,0.026 0.052,0.039Zm-0.156,-0.144c-0.026,-0.026 -0.052,-0.052 -0.078,-0.078c0.026,0.026 0.052,0.052 0.078,0.078Zm-0.17,-0.156c-0.052,-0.052 -0.104,-0.104 -0.156,-0.143c0.052,0.039 0.104,0.091 0.156,0.143Zm-0.234,-0.221c-0.039,-0.026 -0.078,-0.065 -0.117,-0.104c0.039,0.039 0.078,0.078 0.117,0.104Zm-0.182,-0.157c-0.052,-0.064 -0.117,-0.117 -0.183,-0.169c0.066,0.052 0.131,0.105 0.183,0.169Z" style="fill:#ffefbf;fill-rule:nonzero;"/><path d="M853.763,501.458c48.242,-55.052 79.049,-138.476 79.049,-264.843c0,-20.638 -4.166,-54.401 -11.979,-87.058l255.716,0c0.066,0.052 0.131,0.105 0.183,0.169c0.026,0.014 0.039,0.04 0.065,0.053c0.039,0.039 0.078,0.078 0.117,0.104c0.026,0.026 0.052,0.052 0.078,0.078c0.052,0.039 0.104,0.091 0.156,0.143c0.026,0.026 0.052,0.052 0.092,0.078l0.182,0.183c0.013,0.013 0.039,0.026 0.052,0.039c0.078,0.078 0.156,0.156 0.234,0.221c0,0.013 0.013,0.013 0.013,0.026c0.052,0.039 0.092,0.078 0.144,0.13c24.31,23.229 41.015,71.042 48.776,110.196c-30.209,155.286 -197.539,216.953 -372.878,240.481Z" style="fill:#f0a748;fill-rule:nonzero;"/><path d="M615.794,515.13c-21.289,0 -43.554,-0.234 -66.484,-0.846c107.174,-62.135 177.331,-172.279 177.331,-324.544c0,-13.529 -0.651,-26.914 -1.758,-40.183l195.95,0c7.813,32.657 11.979,66.42 11.979,87.058c0,126.367 -30.807,209.791 -79.049,264.843c-81.966,11.003 -165.69,13.672 -237.969,13.672Z" style="fill:#f7b450;fill-rule:nonzero;"/><path d="M54.284,150.247c0.013,-0.013 0.026,-0.026 0.039,-0.039c-0.013,0.013 -0.026,0.026 -0.039,0.039Zm0.273,-0.26c0.013,-0.013 0.026,-0.013 0.039,-0.026c-0.013,0.013 -0.026,0.013 -0.039,0.026Zm0.117,-0.104c0.04,-0.039 0.066,-0.065 0.105,-0.091c-0.039,0.026 -0.065,0.052 -0.105,0.091Zm0.183,-0.169c0.052,-0.052 0.117,-0.105 0.169,-0.157c-0.052,0.052 -0.117,0.105 -0.169,0.157Z" style="fill:#ffefbf;fill-rule:nonzero;"/><path d="M549.31,514.284c-221.524,-5.86 -504.193,-46.81 -544.362,-253.307c7.812,-39.467 24.726,-87.709 49.336,-110.73c0.013,-0.013 0.026,-0.026 0.039,-0.039c0.078,-0.078 0.156,-0.143 0.234,-0.221c0.013,-0.013 0.026,-0.013 0.039,-0.026c0.026,-0.026 0.052,-0.052 0.078,-0.078c0.04,-0.039 0.066,-0.065 0.105,-0.091c0.026,-0.026 0.052,-0.052 0.078,-0.078c0.052,-0.052 0.117,-0.105 0.169,-0.157l669.857,0c1.107,13.269 1.758,26.654 1.758,40.183c0,152.265 -70.157,262.409 -177.331,324.544Z" style="fill:#fdc062;fill-rule:nonzero;"/><path d="M8.958,243.333c47.865,180.039 382.591,218.49 606.836,218.49c224.271,0 558.972,-38.451 606.823,-218.49c-6.263,-24.843 -15.742,-51.041 -28.164,-71.263c-6.12,-8.737 -12.943,-16.458 -20.586,-22.057l-1116.15,0c-7.643,5.599 -14.466,13.32 -20.586,22.057c-12.421,20.222 -21.901,46.42 -28.177,71.263Z" style="fill:#ffdf80;fill-rule:nonzero;"/><path d="M1204.05,211.862c0,116.992 -263.372,211.836 -588.255,211.836c-324.896,0 -588.255,-94.844 -588.255,-211.836c0,-117.005 263.359,-211.862 588.255,-211.862c324.883,0 588.255,94.857 588.255,211.862Z" style="fill:#ffecb3;fill-rule:nonzero;"/><path d="M272.461,268.099c0,-2.318 -3.333,-4.167 -7.448,-4.167c-4.102,0 -7.435,1.849 -7.435,4.167c0,2.318 3.333,4.167 7.435,4.167c4.115,0 7.448,-1.849 7.448,-4.167Z" style="fill:#ffd580;fill-rule:nonzero;"/><path d="M272.461,268.099c0,-2.318 -3.333,-4.167 -7.448,-4.167c-4.102,0 -7.435,1.849 -7.435,4.167c0,2.318 3.333,4.167 7.435,4.167c4.115,0 7.448,-1.849 7.448,-4.167Z" style="fill:#ffd580;fill-rule:nonzero;"/><path d="M1167.47,241.471c0,-2.031 -2.943,-3.658 -6.589,-3.658c-3.632,0 -6.575,1.627 -6.575,3.658c0,2.045 2.943,3.672 6.575,3.672c3.646,0 6.589,-1.627 6.589,-3.672Z" style="fill:#ffd580;fill-rule:nonzero;"/><path d="M1167.47,241.471c0,-2.031 -2.943,-3.658 -6.589,-3.658c-3.632,0 -6.575,1.627 -6.575,3.658c0,2.045 2.943,3.672 6.575,3.672c3.646,0 6.589,-1.627 6.589,-3.672Z" style="fill:#ffd580;fill-rule:nonzero;"/><path d="M698.008,388.359c0,-1.588 -2.292,-2.864 -5.117,-2.864c-2.813,0 -5.092,1.276 -5.092,2.864c0,1.576 2.279,2.865 5.092,2.865c2.825,0 5.117,-1.289 5.117,-2.865Z" style="fill:#ffd580;fill-rule:nonzero;"/><path d="M698.008,388.359c0,-1.588 -2.292,-2.864 -5.117,-2.864c-2.813,0 -5.092,1.276 -5.092,2.864c0,1.576 2.279,2.865 5.092,2.865c2.825,0 5.117,-1.289 5.117,-2.865Z" style="fill:#ffd580;fill-rule:nonzero;"/><path d="M764.336,334.323c0,-2.734 -3.945,-4.935 -8.828,-4.935c-4.883,0 -8.828,2.201 -8.828,4.935c0,2.708 3.945,4.922 8.828,4.922c4.883,0 8.828,-2.214 8.828,-4.922Z" style="fill:#ffd580;fill-rule:nonzero;"/><path d="M764.336,334.323c0,-2.734 -3.945,-4.935 -8.828,-4.935c-4.883,0 -8.828,2.201 -8.828,4.935c0,2.708 3.945,4.922 8.828,4.922c4.883,0 8.828,-2.214 8.828,-4.922Z" style="fill:#ffd580;fill-rule:nonzero;"/><path d="M328.906,246.432c0,-2.903 -4.205,-5.26 -9.414,-5.26c-5.208,0 -9.414,2.357 -9.414,5.26c0,2.917 4.206,5.274 9.414,5.274c5.209,0 9.414,-2.357 9.414,-5.274Z" style="fill:#ffd580;fill-rule:nonzero;"/><path d="M328.906,246.432c0,-2.903 -4.205,-5.26 -9.414,-5.26c-5.208,0 -9.414,2.357 -9.414,5.26c0,2.917 4.206,5.274 9.414,5.274c5.209,0 9.414,-2.357 9.414,-5.274Z" style="fill:#ffd580;fill-rule:nonzero;"/><path d="M401.536,147.083c0,-2.812 -4.062,-5.091 -9.114,-5.091c-5.039,0 -9.102,2.279 -9.102,5.091c0,2.813 4.063,5.091 9.102,5.091c5.052,0 9.114,-2.278 9.114,-5.091Z" style="fill:#ffd580;fill-rule:nonzero;"/><path d="M401.536,147.083c0,-2.812 -4.062,-5.091 -9.114,-5.091c-5.039,0 -9.102,2.279 -9.102,5.091c0,2.813 4.063,5.091 9.102,5.091c5.052,0 9.114,-2.278 9.114,-5.091Z" style="fill:#ffd580;fill-rule:nonzero;"/><path d="M1093.66,307.591c0,-1.575 -2.253,-2.838 -5.052,-2.838c-2.813,0 -5.078,1.263 -5.078,2.838c0,1.537 2.265,2.826 5.078,2.826c2.799,0 5.052,-1.289 5.052,-2.826Z" style="fill:#ffd580;fill-rule:nonzero;"/><path d="M1093.66,307.591c0,-1.575 -2.253,-2.838 -5.052,-2.838c-2.813,0 -5.078,1.263 -5.078,2.838c0,1.537 2.265,2.826 5.078,2.826c2.799,0 5.052,-1.289 5.052,-2.826Z" style="fill:#ffd580;fill-rule:nonzero;"/><path d="M495.117,145.221c0,-1.601 -2.291,-2.877 -5.13,-2.877c-2.826,0 -5.117,1.276 -5.117,2.877c0,1.576 2.291,2.852 5.117,2.852c2.839,0 5.13,-1.276 5.13,-2.852Z" style="fill:#ffd580;fill-rule:nonzero;"/><path d="M495.117,145.221c0,-1.601 -2.291,-2.877 -5.13,-2.877c-2.826,0 -5.117,1.276 -5.117,2.877c0,1.576 2.291,2.852 5.117,2.852c2.839,0 5.13,-1.276 5.13,-2.852Z" style="fill:#ffd580;fill-rule:nonzero;"/><path d="M161.003,272.826c0,-1.576 -2.318,-2.865 -5.157,-2.865c-2.864,0 -5.182,1.289 -5.182,2.865c0,1.601 2.318,2.877 5.182,2.877c2.839,0 5.157,-1.276 5.157,-2.877Z" style="fill:#ffd580;fill-rule:nonzero;"/><path d="M161.003,272.826c0,-1.576 -2.318,-2.865 -5.157,-2.865c-2.864,0 -5.182,1.289 -5.182,2.865c0,1.601 2.318,2.877 5.182,2.877c2.839,0 5.157,-1.276 5.157,-2.877Z" style="fill:#ffd580;fill-rule:nonzero;"/><path d="M403.411,373.151c0,-1.589 -2.33,-2.917 -5.195,-2.917c-2.864,0 -5.182,1.328 -5.182,2.917c0,1.589 2.318,2.904 5.182,2.904c2.865,0 5.195,-1.315 5.195,-2.904Z" style="fill:#ffd580;fill-rule:nonzero;"/><path d="M403.411,373.151c0,-1.589 -2.33,-2.917 -5.195,-2.917c-2.864,0 -5.182,1.328 -5.182,2.917c0,1.589 2.318,2.904 5.182,2.904c2.865,0 5.195,-1.315 5.195,-2.904Z" style="fill:#ffd580;fill-rule:nonzero;"/><path d="M970.208,73.659c0,-1.771 -2.565,-3.203 -5.716,-3.203c-3.138,0 -5.703,1.432 -5.703,3.203c0,1.771 2.565,3.19 5.703,3.19c3.151,0 5.716,-1.419 5.716,-3.19Z" style="fill:#ffd580;fill-rule:nonzero;"/><path d="M970.208,73.659c0,-1.771 -2.565,-3.203 -5.716,-3.203c-3.138,0 -5.703,1.432 -5.703,3.203c0,1.771 2.565,3.19 5.703,3.19c3.151,0 5.716,-1.419 5.716,-3.19Z" style="fill:#ffd580;fill-rule:nonzero;"/><path d="M978.307,281.042c0,-1.901 -2.747,-3.438 -6.146,-3.438c-3.411,0 -6.158,1.537 -6.158,3.438c0,1.901 2.747,3.437 6.158,3.437c3.399,0 6.146,-1.536 6.146,-3.437Z" style="fill:#ffd580;fill-rule:nonzero;"/><path d="M978.307,281.042c0,-1.901 -2.747,-3.438 -6.146,-3.438c-3.411,0 -6.158,1.537 -6.158,3.438c0,1.901 2.747,3.437 6.158,3.437c3.399,0 6.146,-1.536 6.146,-3.437Z" style="fill:#ffd580;fill-rule:nonzero;"/><path d="M656.628,320.833c0,-2.435 -3.542,-4.427 -7.956,-4.427c-4.388,0 -7.93,1.992 -7.93,4.427c0,2.461 3.542,4.44 7.93,4.44c4.414,0 7.956,-1.979 7.956,-4.44Z" style="fill:#ffd580;fill-rule:nonzero;"/><path d="M656.628,320.833c0,-2.435 -3.542,-4.427 -7.956,-4.427c-4.388,0 -7.93,1.992 -7.93,4.427c0,2.461 3.542,4.44 7.93,4.44c4.414,0 7.956,-1.979 7.956,-4.44Z" style="fill:#ffd580;fill-rule:nonzero;"/><path d="M189.492,301.419c0,-3.099 -4.479,-5.56 -9.974,-5.56c-5.521,0 -9.974,2.461 -9.974,5.56c0,3.06 4.453,5.573 9.974,5.573c5.495,0 9.974,-2.513 9.974,-5.573Z" style="fill:#ffd580;fill-rule:nonzero;"/><path d="M189.492,301.419c0,-3.099 -4.479,-5.56 -9.974,-5.56c-5.521,0 -9.974,2.461 -9.974,5.56c0,3.06 4.453,5.573 9.974,5.573c5.495,0 9.974,-2.513 9.974,-5.573Z" style="fill:#ffd580;fill-rule:nonzero;"/><path d="M715.911,42.174c0,-1.51 -2.174,-2.708 -4.869,-2.708c-2.696,0 -4.883,1.198 -4.883,2.708c0,1.524 2.187,2.735 4.883,2.735c2.695,0 4.869,-1.211 4.869,-2.735Z" style="fill:#ffd580;fill-rule:nonzero;"/><path d="M715.911,42.174c0,-1.51 -2.174,-2.708 -4.869,-2.708c-2.696,0 -4.883,1.198 -4.883,2.708c0,1.524 2.187,2.735 4.883,2.735c2.695,0 4.869,-1.211 4.869,-2.735Z" style="fill:#ffd580;fill-rule:nonzero;"/><path d="M193.216,200.651c0,-1.471 -2.161,-2.695 -4.831,-2.695c-2.669,0 -4.817,1.224 -4.817,2.695c0,1.51 2.148,2.721 4.817,2.721c2.67,0 4.831,-1.211 4.831,-2.721Z" style="fill:#ffd580;fill-rule:nonzero;"/><path d="M193.216,200.651c0,-1.471 -2.161,-2.695 -4.831,-2.695c-2.669,0 -4.817,1.224 -4.817,2.695c0,1.51 2.148,2.721 4.817,2.721c2.67,0 4.831,-1.211 4.831,-2.721Z" style="fill:#ffd580;fill-rule:nonzero;"/><path d="M345.846,86.784c0,-1.524 -2.187,-2.748 -4.895,-2.748c-2.696,0 -4.883,1.224 -4.883,2.748c0,1.497 2.187,2.721 4.883,2.721c2.708,0 4.895,-1.224 4.895,-2.721Z" style="fill:#ffd580;fill-rule:nonzero;"/><path d="M345.846,86.784c0,-1.524 -2.187,-2.748 -4.895,-2.748c-2.696,0 -4.883,1.224 -4.883,2.748c0,1.497 2.187,2.721 4.883,2.721c2.708,0 4.895,-1.224 4.895,-2.721Z" style="fill:#ffd580;fill-rule:nonzero;"/><path d="M916.836,234.479c0,-2.057 -2.982,-3.737 -6.667,-3.737c-3.698,0 -6.679,1.68 -6.679,3.737c0,2.057 2.981,3.711 6.679,3.711c3.685,0 6.667,-1.654 6.667,-3.711Z" style="fill:#ffd580;fill-rule:nonzero;"/><path d="M916.836,234.479c0,-2.057 -2.982,-3.737 -6.667,-3.737c-3.698,0 -6.679,1.68 -6.679,3.737c0,2.057 2.981,3.711 6.679,3.711c3.685,0 6.667,-1.654 6.667,-3.711Z" style="fill:#ffd580;fill-rule:nonzero;"/><path d="M665.651,39.518c0,-2.239 -3.229,-4.036 -7.227,-4.036c-3.984,0 -7.226,1.797 -7.226,4.036c0,2.227 3.242,4.037 7.226,4.037c3.998,0 7.227,-1.81 7.227,-4.037Z" style="fill:#ffd580;fill-rule:nonzero;"/><path d="M665.651,39.518c0,-2.239 -3.229,-4.036 -7.227,-4.036c-3.984,0 -7.226,1.797 -7.226,4.036c0,2.227 3.242,4.037 7.226,4.037c3.998,0 7.227,-1.81 7.227,-4.037Z" style="fill:#ffd580;fill-rule:nonzero;"/><path d="M418.099,322.2c0,-2.76 -3.997,-4.973 -8.919,-4.973c-4.935,0 -8.907,2.213 -8.907,4.973c0,2.761 3.972,4.974 8.907,4.974c4.922,0 8.919,-2.213 8.919,-4.974Z" style="fill:#ffd580;fill-rule:nonzero;"/><path d="M418.099,322.2c0,-2.76 -3.997,-4.973 -8.919,-4.973c-4.935,0 -8.907,2.213 -8.907,4.973c0,2.761 3.972,4.974 8.907,4.974c4.922,0 8.919,-2.213 8.919,-4.974Z" style="fill:#ffd580;fill-rule:nonzero;"/><path d="M721.107,144.661c0,-3.007 -4.336,-5.429 -9.714,-5.429c-5.364,0 -9.7,2.422 -9.7,5.429c0,2.995 4.336,5.43 9.7,5.43c5.378,0 9.714,-2.435 9.714,-5.43Z" style="fill:#ffd580;fill-rule:nonzero;"/><path d="M721.107,144.661c0,-3.007 -4.336,-5.429 -9.714,-5.429c-5.364,0 -9.7,2.422 -9.7,5.429c0,2.995 4.336,5.43 9.7,5.43c5.378,0 9.714,-2.435 9.714,-5.43Z" style="fill:#ffd580;fill-rule:nonzero;"/><path d="M471.471,380.885c0,-1.445 -2.122,-2.643 -4.687,-2.643c-2.617,0 -4.701,1.198 -4.701,2.643c0,1.459 2.084,2.631 4.701,2.631c2.565,0 4.687,-1.172 4.687,-2.631Z" style="fill:#ffd580;fill-rule:nonzero;"/><path d="M471.471,380.885c0,-1.445 -2.122,-2.643 -4.687,-2.643c-2.617,0 -4.701,1.198 -4.701,2.643c0,1.459 2.084,2.631 4.701,2.631c2.565,0 4.687,-1.172 4.687,-2.631Z" style="fill:#ffd580;fill-rule:nonzero;"/><path d="M850.677,207.865c0,-1.94 -2.878,-3.568 -6.393,-3.568c-3.555,0 -6.406,1.628 -6.406,3.568c0,1.966 2.851,3.58 6.406,3.58c3.515,0 6.393,-1.614 6.393,-3.58Z" style="fill:#ffd580;fill-rule:nonzero;"/><path d="M850.677,207.865c0,-1.94 -2.878,-3.568 -6.393,-3.568c-3.555,0 -6.406,1.628 -6.406,3.568c0,1.966 2.851,3.58 6.406,3.58c3.515,0 6.393,-1.614 6.393,-3.58Z" style="fill:#ffd580;fill-rule:nonzero;"/><path d="M753.672,180.625c0,-2.5 -3.633,-4.544 -8.138,-4.544c-4.492,0 -8.138,2.044 -8.138,4.544c0,2.513 3.646,4.57 8.138,4.57c4.505,0 8.138,-2.057 8.138,-4.57Z" style="fill:#ffd580;fill-rule:nonzero;"/><path d="M753.672,180.625c0,-2.5 -3.633,-4.544 -8.138,-4.544c-4.492,0 -8.138,2.044 -8.138,4.544c0,2.513 3.646,4.57 8.138,4.57c4.505,0 8.138,-2.057 8.138,-4.57Z" style="fill:#ffd580;fill-rule:nonzero;"/><path d="M844.31,59.753c0,-2.644 -3.841,-4.818 -8.568,-4.818c-4.739,0 -8.594,2.174 -8.594,4.818c0,2.643 3.855,4.791 8.594,4.791c4.727,0 8.568,-2.148 8.568,-4.791Z" style="fill:#ffd580;fill-rule:nonzero;"/><path d="M844.31,59.753c0,-2.644 -3.841,-4.818 -8.568,-4.818c-4.739,0 -8.594,2.174 -8.594,4.818c0,2.643 3.855,4.791 8.594,4.791c4.727,0 8.568,-2.148 8.568,-4.791Z" style="fill:#ffd580;fill-rule:nonzero;"/><path d="M802.24,84.141c0,-2.995 -4.362,-5.456 -9.74,-5.456c-5.404,0 -9.779,2.461 -9.779,5.456c0,3.007 4.375,5.455 9.779,5.455c5.378,0 9.74,-2.448 9.74,-5.455Z" style="fill:#ffd580;fill-rule:nonzero;"/><path d="M802.24,84.141c0,-2.995 -4.362,-5.456 -9.74,-5.456c-5.404,0 -9.779,2.461 -9.779,5.456c0,3.007 4.375,5.455 9.779,5.455c5.378,0 9.74,-2.448 9.74,-5.455Z" style="fill:#ffd580;fill-rule:nonzero;"/><path d="M457.669,105.755c0,-1.771 -2.591,-3.216 -5.755,-3.216c-3.19,0 -5.781,1.445 -5.781,3.216c0,1.784 2.591,3.229 5.781,3.229c3.164,0 5.755,-1.445 5.755,-3.229Z" style="fill:#ffd580;fill-rule:nonzero;"/><path d="M457.669,105.755c0,-1.771 -2.591,-3.216 -5.755,-3.216c-3.19,0 -5.781,1.445 -5.781,3.216c0,1.784 2.591,3.229 5.781,3.229c3.164,0 5.755,-1.445 5.755,-3.229Z" style="fill:#ffd580;fill-rule:nonzero;"/><path d="M468.229,284.922c0,-2.63 -3.776,-4.74 -8.463,-4.74c-4.688,0 -8.49,2.11 -8.49,4.74c0,2.604 3.802,4.752 8.49,4.752c4.687,0 8.463,-2.148 8.463,-4.752Z" style="fill:#ffd580;fill-rule:nonzero;"/><path d="M468.229,284.922c0,-2.63 -3.776,-4.74 -8.463,-4.74c-4.688,0 -8.49,2.11 -8.49,4.74c0,2.604 3.802,4.752 8.49,4.752c4.687,0 8.463,-2.148 8.463,-4.752Z" style="fill:#ffd580;fill-rule:nonzero;"/><path d="M433.932,159.57c0,-1.836 -2.643,-3.281 -5.898,-3.281c-3.268,0 -5.912,1.445 -5.912,3.281c0,1.836 2.644,3.308 5.912,3.308c3.255,0 5.898,-1.472 5.898,-3.308Z" style="fill:#ffd580;fill-rule:nonzero;"/><path d="M433.932,159.57c0,-1.836 -2.643,-3.281 -5.898,-3.281c-3.268,0 -5.912,1.445 -5.912,3.281c0,1.836 2.644,3.308 5.912,3.308c3.255,0 5.898,-1.472 5.898,-3.308Z" style="fill:#ffd580;fill-rule:nonzero;"/><path d="M525.182,195.091c0,-1.51 -2.2,-2.747 -4.909,-2.747c-2.721,0 -4.934,1.237 -4.934,2.747c0,1.511 2.213,2.748 4.934,2.748c2.709,0 4.909,-1.237 4.909,-2.748Z" style="fill:#ffd580;fill-rule:nonzero;"/><path d="M525.182,195.091c0,-1.51 -2.2,-2.747 -4.909,-2.747c-2.721,0 -4.934,1.237 -4.934,2.747c0,1.511 2.213,2.748 4.934,2.748c2.709,0 4.909,-1.237 4.909,-2.748Z" style="fill:#ffd580;fill-rule:nonzero;"/><path d="M291.784,211.341c0,-3.086 -4.492,-5.599 -10.026,-5.599c-5.534,0 -10.013,2.513 -10.013,5.599c0,3.099 4.479,5.612 10.013,5.612c5.534,0 10.026,-2.513 10.026,-5.612Z" style="fill:#ffd580;fill-rule:nonzero;"/><path d="M291.784,211.341c0,-3.086 -4.492,-5.599 -10.026,-5.599c-5.534,0 -10.013,2.513 -10.013,5.599c0,3.099 4.479,5.612 10.013,5.612c5.534,0 10.026,-2.513 10.026,-5.612Z" style="fill:#ffd580;fill-rule:nonzero;"/><path d="M337.721,187.734c0,-2.669 -3.906,-4.843 -8.698,-4.843c-4.817,0 -8.684,2.174 -8.684,4.843c0,2.683 3.867,4.87 8.684,4.87c4.792,0 8.698,-2.187 8.698,-4.87Z" style="fill:#ffd580;fill-rule:nonzero;"/><path d="M337.721,187.734c0,-2.669 -3.906,-4.843 -8.698,-4.843c-4.817,0 -8.684,2.174 -8.684,4.843c0,2.683 3.867,4.87 8.684,4.87c4.792,0 8.698,-2.187 8.698,-4.87Z" style="fill:#ffd580;fill-rule:nonzero;"/><path d="M567.109,139.206c0,-1.55 -2.265,-2.813 -5.065,-2.813c-2.799,0 -5.065,1.263 -5.065,2.813c0,1.588 2.266,2.851 5.065,2.851c2.8,0 5.065,-1.263 5.065,-2.851Z" style="fill:#ffd580;fill-rule:nonzero;"/><path d="M567.109,139.206c0,-1.55 -2.265,-2.813 -5.065,-2.813c-2.799,0 -5.065,1.263 -5.065,2.813c0,1.588 2.266,2.851 5.065,2.851c2.8,0 5.065,-1.263 5.065,-2.851Z" style="fill:#ffd580;fill-rule:nonzero;"/><path d="M228.75,126.536c0,-2.057 -2.982,-3.723 -6.693,-3.723c-3.685,0 -6.679,1.666 -6.679,3.723c0,2.071 2.994,3.75 6.679,3.75c3.711,0 6.693,-1.679 6.693,-3.75Z" style="fill:#ffd580;fill-rule:nonzero;"/><path d="M228.75,126.536c0,-2.057 -2.982,-3.723 -6.693,-3.723c-3.685,0 -6.679,1.666 -6.679,3.723c0,2.071 2.994,3.75 6.679,3.75c3.711,0 6.693,-1.679 6.693,-3.75Z" style="fill:#ffd580;fill-rule:nonzero;"/><path d="M807.891,305.117c0,-1.653 -2.409,-3.021 -5.378,-3.021c-2.943,0 -5.378,1.368 -5.378,3.021c0,1.641 2.435,2.995 5.378,2.995c2.969,0 5.378,-1.354 5.378,-2.995Z" style="fill:#ffd580;fill-rule:nonzero;"/><path d="M807.891,305.117c0,-1.653 -2.409,-3.021 -5.378,-3.021c-2.943,0 -5.378,1.368 -5.378,3.021c0,1.641 2.435,2.995 5.378,2.995c2.969,0 5.378,-1.354 5.378,-2.995Z" style="fill:#ffd580;fill-rule:nonzero;"/><path d="M214.31,293.151c0,-1.823 -2.643,-3.281 -5.899,-3.281c-3.229,0 -5.872,1.458 -5.872,3.281c0,1.81 2.643,3.294 5.872,3.294c3.256,0 5.899,-1.484 5.899,-3.294Z" style="fill:#ffd580;fill-rule:nonzero;"/><path d="M214.31,293.151c0,-1.823 -2.643,-3.281 -5.899,-3.281c-3.229,0 -5.872,1.458 -5.872,3.281c0,1.81 2.643,3.294 5.872,3.294c3.256,0 5.899,-1.484 5.899,-3.294Z" style="fill:#ffd580;fill-rule:nonzero;"/><path d="M1174.23,173.789c0,-2.682 -3.88,-4.857 -8.672,-4.857c-4.818,0 -8.685,2.175 -8.685,4.857c0,2.669 3.867,4.857 8.685,4.857c4.792,0 8.672,-2.188 8.672,-4.857Z" style="fill:#ffd580;fill-rule:nonzero;"/><path d="M1174.23,173.789c0,-2.682 -3.88,-4.857 -8.672,-4.857c-4.818,0 -8.685,2.175 -8.685,4.857c0,2.669 3.867,4.857 8.685,4.857c4.792,0 8.672,-2.188 8.672,-4.857Z" style="fill:#ffd580;fill-rule:nonzero;"/><path d="M781.484,381.263c0,-2.917 -4.205,-5.273 -9.401,-5.273c-5.195,0 -9.401,2.356 -9.401,5.273c0,2.904 4.206,5.234 9.401,5.234c5.196,0 9.401,-2.33 9.401,-5.234Z" style="fill:#ffd580;fill-rule:nonzero;"/><path d="M781.484,381.263c0,-2.917 -4.205,-5.273 -9.401,-5.273c-5.195,0 -9.401,2.356 -9.401,5.273c0,2.904 4.206,5.234 9.401,5.234c5.196,0 9.401,-2.33 9.401,-5.234Z" style="fill:#ffd580;fill-rule:nonzero;"/><path d="M1054.9,269.245c0,-1.979 -2.891,-3.581 -6.419,-3.581c-3.555,0 -6.433,1.602 -6.433,3.581c0,1.979 2.878,3.581 6.433,3.581c3.528,0 6.419,-1.602 6.419,-3.581Z" style="fill:#ffd580;fill-rule:nonzero;"/><path d="M1054.9,269.245c0,-1.979 -2.891,-3.581 -6.419,-3.581c-3.555,0 -6.433,1.602 -6.433,3.581c0,1.979 2.878,3.581 6.433,3.581c3.528,0 6.419,-1.602 6.419,-3.581Z" style="fill:#ffd580;fill-rule:nonzero;"/><path d="M566.719,252.357c0,-1.719 -2.487,-3.125 -5.599,-3.125c-3.099,0 -5.599,1.406 -5.599,3.125c0,1.732 2.5,3.125 5.599,3.125c3.112,0 5.599,-1.393 5.599,-3.125Z" style="fill:#ffd580;fill-rule:nonzero;"/><path d="M566.719,252.357c0,-1.719 -2.487,-3.125 -5.599,-3.125c-3.099,0 -5.599,1.406 -5.599,3.125c0,1.732 2.5,3.125 5.599,3.125c3.112,0 5.599,-1.393 5.599,-3.125Z" style="fill:#ffd580;fill-rule:nonzero;"/><path d="M110.625,160.911c0,-2.63 -3.789,-4.752 -8.464,-4.752c-4.687,0 -8.476,2.122 -8.476,4.752c0,2.618 3.789,4.714 8.476,4.714c4.675,0 8.464,-2.096 8.464,-4.714Z" style="fill:#ffd580;fill-rule:nonzero;"/><path d="M110.625,160.911c0,-2.63 -3.789,-4.752 -8.464,-4.752c-4.687,0 -8.476,2.122 -8.476,4.752c0,2.618 3.789,4.714 8.476,4.714c4.675,0 8.464,-2.096 8.464,-4.714Z" style="fill:#ffd580;fill-rule:nonzero;"/><path d="M390.156,198.177c0,-1.432 -2.109,-2.63 -4.726,-2.63c-2.591,0 -4.701,1.198 -4.701,2.63c0,1.458 2.11,2.656 4.701,2.656c2.617,0 4.726,-1.198 4.726,-2.656Z" style="fill:#ffd580;fill-rule:nonzero;"/><path d="M390.156,198.177c0,-1.432 -2.109,-2.63 -4.726,-2.63c-2.591,0 -4.701,1.198 -4.701,2.63c0,1.458 2.11,2.656 4.701,2.656c2.617,0 4.726,-1.198 4.726,-2.656Z" style="fill:#ffd580;fill-rule:nonzero;"/><path d="M839.05,158.932c0,-2.435 -3.555,-4.427 -7.904,-4.427c-4.362,0 -7.904,1.992 -7.904,4.427c0,2.435 3.542,4.427 7.904,4.427c4.349,0 7.904,-1.992 7.904,-4.427Z" style="fill:#ffd580;fill-rule:nonzero;"/><path d="M839.05,158.932c0,-2.435 -3.555,-4.427 -7.904,-4.427c-4.362,0 -7.904,1.992 -7.904,4.427c0,2.435 3.542,4.427 7.904,4.427c4.349,0 7.904,-1.992 7.904,-4.427Z" style="fill:#ffd580;fill-rule:nonzero;"/><path d="M519.18,366.784c0,-2.135 -3.073,-3.841 -6.888,-3.841c-3.815,0 -6.901,1.706 -6.901,3.841c0,2.122 3.086,3.828 6.901,3.828c3.815,0 6.888,-1.706 6.888,-3.828Z" style="fill:#ffd580;fill-rule:nonzero;"/><path d="M519.18,366.784c0,-2.135 -3.073,-3.841 -6.888,-3.841c-3.815,0 -6.901,1.706 -6.901,3.841c0,2.122 3.086,3.828 6.901,3.828c3.815,0 6.888,-1.706 6.888,-3.828Z" style="fill:#ffd580;fill-rule:nonzero;"/><path d="M316.029,303.19c0,-2.838 -4.128,-5.156 -9.232,-5.156c-5.104,0 -9.206,2.318 -9.206,5.156c0,2.852 4.102,5.169 9.206,5.169c5.104,0 9.232,-2.317 9.232,-5.169Z" style="fill:#ffd580;fill-rule:nonzero;"/><path d="M316.029,303.19c0,-2.838 -4.128,-5.156 -9.232,-5.156c-5.104,0 -9.206,2.318 -9.206,5.156c0,2.852 4.102,5.169 9.206,5.169c5.104,0 9.232,-2.317 9.232,-5.169Z" style="fill:#ffd580;fill-rule:nonzero;"/><path d="M736.823,375.339c0,-1.693 -2.487,-3.112 -5.547,-3.112c-3.073,0 -5.573,1.419 -5.573,3.112c0,1.718 2.5,3.098 5.573,3.098c3.06,0 5.547,-1.38 5.547,-3.098Z" style="fill:#ffd580;fill-rule:nonzero;"/><path d="M736.823,375.339c0,-1.693 -2.487,-3.112 -5.547,-3.112c-3.073,0 -5.573,1.419 -5.573,3.112c0,1.718 2.5,3.098 5.573,3.098c3.06,0 5.547,-1.38 5.547,-3.098Z" style="fill:#ffd580;fill-rule:nonzero;"/><path d="M624.714,216.042c0,-2.266 -3.295,-4.115 -7.383,-4.115c-4.076,0 -7.37,1.849 -7.37,4.115c0,2.265 3.294,4.114 7.37,4.114c4.088,0 7.383,-1.849 7.383,-4.114Z" style="fill:#ffd580;fill-rule:nonzero;"/><path d="M624.714,216.042c0,-2.266 -3.295,-4.115 -7.383,-4.115c-4.076,0 -7.37,1.849 -7.37,4.115c0,2.265 3.294,4.114 7.37,4.114c4.088,0 7.383,-1.849 7.383,-4.114Z" style="fill:#ffd580;fill-rule:nonzero;"/><path d="M1060.52,92.969c0,-2.266 -3.281,-4.115 -7.331,-4.115c-4.075,0 -7.37,1.849 -7.37,4.115c0,2.304 3.295,4.127 7.37,4.127c4.05,0 7.331,-1.823 7.331,-4.127Z" style="fill:#ffd580;fill-rule:nonzero;"/><path d="M1060.52,92.969c0,-2.266 -3.281,-4.115 -7.331,-4.115c-4.075,0 -7.37,1.849 -7.37,4.115c0,2.304 3.295,4.127 7.37,4.127c4.05,0 7.331,-1.823 7.331,-4.127Z" style="fill:#ffd580;fill-rule:nonzero;"/><path d="M862.826,364.479c0,-1.888 -2.748,-3.463 -6.146,-3.463c-3.412,0 -6.172,1.575 -6.172,3.463c0,1.888 2.76,3.425 6.172,3.425c3.398,0 6.146,-1.537 6.146,-3.425Z" style="fill:#ffd580;fill-rule:nonzero;"/><path d="M862.826,364.479c0,-1.888 -2.748,-3.463 -6.146,-3.463c-3.412,0 -6.172,1.575 -6.172,3.463c0,1.888 2.76,3.425 6.172,3.425c3.398,0 6.146,-1.537 6.146,-3.425Z" style="fill:#ffd580;fill-rule:nonzero;"/><path d="M379.219,69.636c0,-1.511 -2.188,-2.709 -4.857,-2.709c-2.682,0 -4.87,1.198 -4.87,2.709c0,1.51 2.188,2.708 4.87,2.708c2.669,0 4.857,-1.198 4.857,-2.708Z" style="fill:#ffd580;fill-rule:nonzero;"/><path d="M379.219,69.636c0,-1.511 -2.188,-2.709 -4.857,-2.709c-2.682,0 -4.87,1.198 -4.87,2.709c0,1.51 2.188,2.708 4.87,2.708c2.669,0 4.857,-1.198 4.857,-2.708Z" style="fill:#ffd580;fill-rule:nonzero;"/><path d="M688.945,252.63c0,-3.086 -4.453,-5.586 -9.961,-5.586c-5.507,0 -9.961,2.5 -9.961,5.586c0,3.086 4.454,5.56 9.961,5.56c5.508,0 9.961,-2.474 9.961,-5.56Z" style="fill:#ffd580;fill-rule:nonzero;"/><path d="M688.945,252.63c0,-3.086 -4.453,-5.586 -9.961,-5.586c-5.507,0 -9.961,2.5 -9.961,5.586c0,3.086 4.454,5.56 9.961,5.56c5.508,0 9.961,-2.474 9.961,-5.56Z" style="fill:#ffd580;fill-rule:nonzero;"/><path d="M260.169,327.838c0,-1.835 -2.669,-3.307 -5.963,-3.307c-3.282,0 -5.951,1.472 -5.951,3.307c0,1.863 2.669,3.36 5.951,3.36c3.294,0 5.963,-1.497 5.963,-3.36Z" style="fill:#ffd580;fill-rule:nonzero;"/><path d="M260.169,327.838c0,-1.835 -2.669,-3.307 -5.963,-3.307c-3.282,0 -5.951,1.472 -5.951,3.307c0,1.863 2.669,3.36 5.951,3.36c3.294,0 5.963,-1.497 5.963,-3.36Z" style="fill:#ffd580;fill-rule:nonzero;"/><path d="M605.937,167.5c0,-1.784 -2.565,-3.229 -5.755,-3.229c-3.177,0 -5.755,1.445 -5.755,3.229c0,1.771 2.578,3.229 5.755,3.229c3.19,0 5.755,-1.458 5.755,-3.229Z" style="fill:#ffd580;fill-rule:nonzero;"/><path d="M605.937,167.5c0,-1.784 -2.565,-3.229 -5.755,-3.229c-3.177,0 -5.755,1.445 -5.755,3.229c0,1.771 2.578,3.229 5.755,3.229c3.19,0 5.755,-1.458 5.755,-3.229Z" style="fill:#ffd580;fill-rule:nonzero;"/><path d="M934.766,96.068c0,-2.696 -3.854,-4.857 -8.659,-4.857c-4.805,0 -8.672,2.161 -8.672,4.857c0,2.695 3.867,4.857 8.672,4.857c4.805,0 8.659,-2.162 8.659,-4.857Z" style="fill:#ffd580;fill-rule:nonzero;"/><path d="M934.766,96.068c0,-2.696 -3.854,-4.857 -8.659,-4.857c-4.805,0 -8.672,2.161 -8.672,4.857c0,2.695 3.867,4.857 8.672,4.857c4.805,0 8.659,-2.162 8.659,-4.857Z" style="fill:#ffd580;fill-rule:nonzero;"/><path d="M545.885,102.578c0,-1.575 -2.252,-2.838 -5.039,-2.838c-2.812,0 -5.065,1.263 -5.065,2.838c0,1.576 2.253,2.826 5.065,2.826c2.787,0 5.039,-1.25 5.039,-2.826Z" style="fill:#ffd580;fill-rule:nonzero;"/><path d="M545.885,102.578c0,-1.575 -2.252,-2.838 -5.039,-2.838c-2.812,0 -5.065,1.263 -5.065,2.838c0,1.576 2.253,2.826 5.065,2.826c2.787,0 5.039,-1.25 5.039,-2.826Z" style="fill:#ffd580;fill-rule:nonzero;"/><path d="M659.609,216.888c0,-2.656 -3.841,-4.818 -8.606,-4.818c-4.766,0 -8.607,2.162 -8.607,4.818c0,2.669 3.841,4.805 8.607,4.805c4.765,0 8.606,-2.136 8.606,-4.805Z" style="fill:#ffd580;fill-rule:nonzero;"/><path d="M659.609,216.888c0,-2.656 -3.841,-4.818 -8.606,-4.818c-4.766,0 -8.607,2.162 -8.607,4.818c0,2.669 3.841,4.805 8.607,4.805c4.765,0 8.606,-2.136 8.606,-4.805Z" style="fill:#ffd580;fill-rule:nonzero;"/><path d="M1093.62,255.898c0,-2.5 -3.581,-4.505 -8.034,-4.505c-4.427,0 -8.021,2.005 -8.021,4.505c0,2.461 3.594,4.48 8.021,4.48c4.453,0 8.034,-2.019 8.034,-4.48Z" style="fill:#ffd580;fill-rule:nonzero;"/><path d="M1093.62,255.898c0,-2.5 -3.581,-4.505 -8.034,-4.505c-4.427,0 -8.021,2.005 -8.021,4.505c0,2.461 3.594,4.48 8.021,4.48c4.453,0 8.034,-2.019 8.034,-4.48Z" style="fill:#ffd580;fill-rule:nonzero;"/><path d="M369.049,370.664c0,-3.203 -4.7,-5.846 -10.468,-5.846c-5.768,0 -10.469,2.643 -10.469,5.846c0,3.229 4.701,5.872 10.469,5.872c5.768,0 10.468,-2.643 10.468,-5.872Z" style="fill:#ffd580;fill-rule:nonzero;"/><path d="M369.049,370.664c0,-3.203 -4.7,-5.846 -10.468,-5.846c-5.768,0 -10.469,2.643 -10.469,5.846c0,3.229 4.701,5.872 10.469,5.872c5.768,0 10.468,-2.643 10.468,-5.872Z" style="fill:#ffd580;fill-rule:nonzero;"/><path d="M814.701,228.932c0,-2.916 -4.18,-5.26 -9.402,-5.26c-5.182,0 -9.375,2.344 -9.375,5.26c0,2.904 4.193,5.248 9.375,5.248c5.222,0 9.402,-2.344 9.402,-5.248Z" style="fill:#ffd580;fill-rule:nonzero;"/><path d="M814.701,228.932c0,-2.916 -4.18,-5.26 -9.402,-5.26c-5.182,0 -9.375,2.344 -9.375,5.26c0,2.904 4.193,5.248 9.375,5.248c5.222,0 9.402,-2.344 9.402,-5.248Z" style="fill:#ffd580;fill-rule:nonzero;"/><path d="M190.951,108.594c0,-3.164 -4.597,-5.729 -10.274,-5.729c-5.664,0 -10.234,2.565 -10.234,5.729c0,3.164 4.57,5.729 10.234,5.729c5.677,0 10.274,-2.565 10.274,-5.729Z" style="fill:#ffd580;fill-rule:nonzero;"/><path d="M190.951,108.594c0,-3.164 -4.597,-5.729 -10.274,-5.729c-5.664,0 -10.234,2.565 -10.234,5.729c0,3.164 4.57,5.729 10.234,5.729c5.677,0 10.274,-2.565 10.274,-5.729Z" style="fill:#ffd580;fill-rule:nonzero;"/><path d="M1022.8,197.109c0,-2.734 -3.946,-4.948 -8.868,-4.948c-4.895,0 -8.854,2.214 -8.854,4.948c0,2.735 3.959,4.948 8.854,4.948c4.922,0 8.868,-2.213 8.868,-4.948Z" style="fill:#ffd580;fill-rule:nonzero;"/><path d="M1022.8,197.109c0,-2.734 -3.946,-4.948 -8.868,-4.948c-4.895,0 -8.854,2.214 -8.854,4.948c0,2.735 3.959,4.948 8.854,4.948c4.922,0 8.868,-2.213 8.868,-4.948Z" style="fill:#ffd580;fill-rule:nonzero;"/><path d="M832.461,362.812c0,-2.2 -3.229,-4.01 -7.214,-4.01c-3.971,0 -7.2,1.81 -7.2,4.01c0,2.24 3.229,4.05 7.2,4.05c3.985,0 7.214,-1.81 7.214,-4.05Z" style="fill:#ffd580;fill-rule:nonzero;"/><path d="M832.461,362.812c0,-2.2 -3.229,-4.01 -7.214,-4.01c-3.971,0 -7.2,1.81 -7.2,4.01c0,2.24 3.229,4.05 7.2,4.05c3.985,0 7.214,-1.81 7.214,-4.05Z" style="fill:#ffd580;fill-rule:nonzero;"/><path d="M687.591,98.62c0,-2.344 -3.372,-4.232 -7.539,-4.232c-4.18,0 -7.552,1.888 -7.552,4.232c0,2.331 3.372,4.218 7.552,4.218c4.167,0 7.539,-1.887 7.539,-4.218Z" style="fill:#ffd580;fill-rule:nonzero;"/><path d="M687.591,98.62c0,-2.344 -3.372,-4.232 -7.539,-4.232c-4.18,0 -7.552,1.888 -7.552,4.232c0,2.331 3.372,4.218 7.552,4.218c4.167,0 7.539,-1.887 7.539,-4.218Z" style="fill:#ffd580;fill-rule:nonzero;"/><path d="M894.883,264.245c0,-2.123 -3.073,-3.854 -6.875,-3.854c-3.789,0 -6.875,1.731 -6.875,3.854c0,2.109 3.086,3.828 6.875,3.828c3.802,0 6.875,-1.719 6.875,-3.828Z" style="fill:#ffd580;fill-rule:nonzero;"/><path d="M894.883,264.245c0,-2.123 -3.073,-3.854 -6.875,-3.854c-3.789,0 -6.875,1.731 -6.875,3.854c0,2.109 3.086,3.828 6.875,3.828c3.802,0 6.875,-1.719 6.875,-3.828Z" style="fill:#ffd580;fill-rule:nonzero;"/><path d="M657.591,388.802c0,-1.667 -2.422,-3.021 -5.39,-3.021c-2.995,0 -5.404,1.354 -5.404,3.021c0,1.68 2.409,3.008 5.404,3.008c2.968,0 5.39,-1.328 5.39,-3.008Z" style="fill:#ffd580;fill-rule:nonzero;"/><path d="M657.591,388.802c0,-1.667 -2.422,-3.021 -5.39,-3.021c-2.995,0 -5.404,1.354 -5.404,3.021c0,1.68 2.409,3.008 5.404,3.008c2.968,0 5.39,-1.328 5.39,-3.008Z" style="fill:#ffd580;fill-rule:nonzero;"/><path d="M787.253,169.583c0,-1.901 -2.774,-3.476 -6.211,-3.476c-3.451,0 -6.224,1.575 -6.224,3.476c0,1.94 2.773,3.477 6.224,3.477c3.437,0 6.211,-1.537 6.211,-3.477Z" style="fill:#ffd580;fill-rule:nonzero;"/><path d="M787.253,169.583c0,-1.901 -2.774,-3.476 -6.211,-3.476c-3.451,0 -6.224,1.575 -6.224,3.476c0,1.94 2.773,3.477 6.224,3.477c3.437,0 6.211,-1.537 6.211,-3.477Z" style="fill:#ffd580;fill-rule:nonzero;"/><path d="M763.789,280.026c0,-2.669 -3.88,-4.857 -8.685,-4.857c-4.791,0 -8.672,2.188 -8.672,4.857c0,2.682 3.881,4.857 8.672,4.857c4.805,0 8.685,-2.175 8.685,-4.857Z" style="fill:#ffd580;fill-rule:nonzero;"/><path d="M763.789,280.026c0,-2.669 -3.88,-4.857 -8.685,-4.857c-4.791,0 -8.672,2.188 -8.672,4.857c0,2.682 3.881,4.857 8.672,4.857c4.805,0 8.685,-2.175 8.685,-4.857Z" style="fill:#ffd580;fill-rule:nonzero;"/><path d="M74.388,202.526c0,-1.875 -2.682,-3.359 -6.016,-3.359c-3.32,0 -6.015,1.484 -6.015,3.359c0,1.862 2.695,3.372 6.015,3.372c3.334,0 6.016,-1.51 6.016,-3.372Z" style="fill:#ffd580;fill-rule:nonzero;"/><path d="M74.388,202.526c0,-1.875 -2.682,-3.359 -6.016,-3.359c-3.32,0 -6.015,1.484 -6.015,3.359c0,1.862 2.695,3.372 6.015,3.372c3.334,0 6.016,-1.51 6.016,-3.372Z" style="fill:#ffd580;fill-rule:nonzero;"/><path d="M856.602,265.247c0,-1.77 -2.605,-3.216 -5.795,-3.216c-3.177,0 -5.781,1.446 -5.781,3.216c0,1.81 2.604,3.256 5.781,3.256c3.19,0 5.795,-1.446 5.795,-3.256Z" style="fill:#ffd580;fill-rule:nonzero;"/><path d="M856.602,265.247c0,-1.77 -2.605,-3.216 -5.795,-3.216c-3.177,0 -5.781,1.446 -5.781,3.216c0,1.81 2.604,3.256 5.781,3.256c3.19,0 5.795,-1.446 5.795,-3.256Z" style="fill:#ffd580;fill-rule:nonzero;"/><path d="M393.242,101.758c0,-2.357 -3.398,-4.258 -7.604,-4.258c-4.206,0 -7.617,1.901 -7.617,4.258c0,2.331 3.411,4.232 7.617,4.232c4.206,0 7.604,-1.901 7.604,-4.232Z" style="fill:#ffd580;fill-rule:nonzero;"/><path d="M393.242,101.758c0,-2.357 -3.398,-4.258 -7.604,-4.258c-4.206,0 -7.617,1.901 -7.617,4.258c0,2.331 3.411,4.232 7.617,4.232c4.206,0 7.604,-1.901 7.604,-4.232Z" style="fill:#ffd580;fill-rule:nonzero;"/><path d="M905.156,159.87c0,-3.19 -4.622,-5.742 -10.312,-5.742c-5.703,0 -10.313,2.552 -10.313,5.742c0,3.203 4.61,5.768 10.313,5.768c5.69,0 10.312,-2.565 10.312,-5.768Z" style="fill:#ffd580;fill-rule:nonzero;"/><path d="M905.156,159.87c0,-3.19 -4.622,-5.742 -10.312,-5.742c-5.703,0 -10.313,2.552 -10.313,5.742c0,3.203 4.61,5.768 10.313,5.768c5.69,0 10.312,-2.565 10.312,-5.768Z" style="fill:#ffd580;fill-rule:nonzero;"/><path d="M163.411,212.917c0,-2.552 -3.671,-4.61 -8.216,-4.61c-4.557,0 -8.216,2.058 -8.216,4.61c0,2.526 3.659,4.57 8.216,4.57c4.545,0 8.216,-2.044 8.216,-4.57Z" style="fill:#ffd580;fill-rule:nonzero;"/><path d="M163.411,212.917c0,-2.552 -3.671,-4.61 -8.216,-4.61c-4.557,0 -8.216,2.058 -8.216,4.61c0,2.526 3.659,4.57 8.216,4.57c4.545,0 8.216,-2.044 8.216,-4.57Z" style="fill:#ffd580;fill-rule:nonzero;"/><path d="M506.901,303.477c0,-2.526 -3.672,-4.584 -8.19,-4.584c-4.544,0 -8.203,2.058 -8.203,4.584c0,2.526 3.659,4.583 8.203,4.583c4.518,0 8.19,-2.057 8.19,-4.583Z" style="fill:#ffd580;fill-rule:nonzero;"/><path d="M506.901,303.477c0,-2.526 -3.672,-4.584 -8.19,-4.584c-4.544,0 -8.203,2.058 -8.203,4.584c0,2.526 3.659,4.583 8.203,4.583c4.518,0 8.19,-2.057 8.19,-4.583Z" style="fill:#ffd580;fill-rule:nonzero;"/><path d="M105.859,254.518c0,-1.692 -2.461,-3.073 -5.52,-3.073c-3.06,0 -5.534,1.381 -5.534,3.073c0,1.732 2.474,3.099 5.534,3.099c3.059,0 5.52,-1.367 5.52,-3.099Z" style="fill:#ffd580;fill-rule:nonzero;"/><path d="M105.859,254.518c0,-1.692 -2.461,-3.073 -5.52,-3.073c-3.06,0 -5.534,1.381 -5.534,3.073c0,1.732 2.474,3.099 5.534,3.099c3.059,0 5.52,-1.367 5.52,-3.099Z" style="fill:#ffd580;fill-rule:nonzero;"/><path d="M719.596,216.914c0,-1.471 -2.109,-2.63 -4.726,-2.63c-2.591,0 -4.688,1.159 -4.688,2.63c0,1.445 2.097,2.643 4.688,2.643c2.617,0 4.726,-1.198 4.726,-2.643Z" style="fill:#ffd580;fill-rule:nonzero;"/><path d="M719.596,216.914c0,-1.471 -2.109,-2.63 -4.726,-2.63c-2.591,0 -4.688,1.159 -4.688,2.63c0,1.445 2.097,2.643 4.688,2.643c2.617,0 4.726,-1.198 4.726,-2.643Z" style="fill:#ffd580;fill-rule:nonzero;"/><path d="M323.047,357.995c0,-2.643 -3.776,-4.753 -8.451,-4.753c-4.674,0 -8.45,2.11 -8.45,4.753c0,2.604 3.776,4.713 8.45,4.713c4.675,0 8.451,-2.109 8.451,-4.713Z" style="fill:#ffd580;fill-rule:nonzero;"/><path d="M323.047,357.995c0,-2.643 -3.776,-4.753 -8.451,-4.753c-4.674,0 -8.45,2.11 -8.45,4.753c0,2.604 3.776,4.713 8.45,4.713c4.675,0 8.451,-2.109 8.451,-4.713Z" style="fill:#ffd580;fill-rule:nonzero;"/><path d="M498.633,55.339c0,-1.901 -2.761,-3.425 -6.159,-3.425c-3.411,0 -6.172,1.524 -6.172,3.425c0,1.914 2.761,3.476 6.172,3.476c3.398,0 6.159,-1.562 6.159,-3.476Z" style="fill:#ffd580;fill-rule:nonzero;"/><path d="M498.633,55.339c0,-1.901 -2.761,-3.425 -6.159,-3.425c-3.411,0 -6.172,1.524 -6.172,3.425c0,1.914 2.761,3.476 6.172,3.476c3.398,0 6.159,-1.562 6.159,-3.476Z" style="fill:#ffd580;fill-rule:nonzero;"/><path d="M1017.06,249.896c0,-2.5 -3.606,-4.479 -8.047,-4.479c-4.44,0 -8.02,1.979 -8.02,4.479c0,2.461 3.58,4.466 8.02,4.466c4.441,0 8.047,-2.005 8.047,-4.466Z" style="fill:#ffd580;fill-rule:nonzero;"/><path d="M1017.06,249.896c0,-2.5 -3.606,-4.479 -8.047,-4.479c-4.44,0 -8.02,1.979 -8.02,4.479c0,2.461 3.58,4.466 8.02,4.466c4.441,0 8.047,-2.005 8.047,-4.466Z" style="fill:#ffd580;fill-rule:nonzero;"/><path d="M574.427,52.448c0,-2.383 -3.45,-4.31 -7.708,-4.31c-4.258,0 -7.696,1.927 -7.696,4.31c0,2.37 3.438,4.297 7.696,4.297c4.258,0 7.708,-1.927 7.708,-4.297Z" style="fill:#ffd580;fill-rule:nonzero;"/><path d="M574.427,52.448c0,-2.383 -3.45,-4.31 -7.708,-4.31c-4.258,0 -7.696,1.927 -7.696,4.31c0,2.37 3.438,4.297 7.696,4.297c4.258,0 7.708,-1.927 7.708,-4.297Z" style="fill:#ffd580;fill-rule:nonzero;"/><path d="M1132.73,166.432c0,-1.731 -2.526,-3.138 -5.612,-3.138c-3.112,0 -5.625,1.407 -5.625,3.138c0,1.745 2.513,3.151 5.625,3.151c3.086,0 5.612,-1.406 5.612,-3.151Z" style="fill:#ffd580;fill-rule:nonzero;"/><path d="M1132.73,166.432c0,-1.731 -2.526,-3.138 -5.612,-3.138c-3.112,0 -5.625,1.407 -5.625,3.138c0,1.745 2.513,3.151 5.625,3.151c3.086,0 5.612,-1.406 5.612,-3.151Z" style="fill:#ffd580;fill-rule:nonzero;"/><path d="M591.992,387.838c0,-2.161 -3.177,-3.932 -7.07,-3.932c-3.906,0 -7.083,1.771 -7.083,3.932c0,2.214 3.177,3.972 7.083,3.972c3.893,0 7.07,-1.758 7.07,-3.972Z" style="fill:#ffd580;fill-rule:nonzero;"/><path d="M591.992,387.838c0,-2.161 -3.177,-3.932 -7.07,-3.932c-3.906,0 -7.083,1.771 -7.083,3.932c0,2.214 3.177,3.972 7.083,3.972c3.893,0 7.07,-1.758 7.07,-3.972Z" style="fill:#ffd580;fill-rule:nonzero;"/><path d="M755.404,79.18c0,-1.732 -2.487,-3.125 -5.573,-3.125c-3.06,0 -5.56,1.393 -5.56,3.125c0,1.705 2.5,3.099 5.56,3.099c3.086,0 5.573,-1.394 5.573,-3.099Z" style="fill:#ffd580;fill-rule:nonzero;"/><path d="M755.404,79.18c0,-1.732 -2.487,-3.125 -5.573,-3.125c-3.06,0 -5.56,1.393 -5.56,3.125c0,1.705 2.5,3.099 5.56,3.099c3.086,0 5.573,-1.394 5.573,-3.099Z" style="fill:#ffd580;fill-rule:nonzero;"/><path d="M1021.93,318.893c0,-3.099 -4.479,-5.599 -10.039,-5.599c-5.56,0 -10.052,2.5 -10.052,5.599c0,3.099 4.492,5.612 10.052,5.612c5.56,0 10.039,-2.513 10.039,-5.612Z" style="fill:#ffd580;fill-rule:nonzero;"/><path d="M1021.93,318.893c0,-3.099 -4.479,-5.599 -10.039,-5.599c-5.56,0 -10.052,2.5 -10.052,5.599c0,3.099 4.492,5.612 10.052,5.612c5.56,0 10.039,-2.513 10.039,-5.612Z" style="fill:#ffd580;fill-rule:nonzero;"/><path d="M990.768,153.633c0,-2.526 -3.659,-4.571 -8.177,-4.571c-4.531,0 -8.19,2.045 -8.19,4.571c0,2.526 3.659,4.57 8.19,4.57c4.518,0 8.177,-2.044 8.177,-4.57Z" style="fill:#ffd580;fill-rule:nonzero;"/><path d="M990.768,153.633c0,-2.526 -3.659,-4.571 -8.177,-4.571c-4.531,0 -8.19,2.045 -8.19,4.571c0,2.526 3.659,4.57 8.19,4.57c4.518,0 8.177,-2.044 8.177,-4.57Z" style="fill:#ffd580;fill-rule:nonzero;"/><path d="M209.753,160.885c0,-1.784 -2.592,-3.229 -5.795,-3.229c-3.177,0 -5.768,1.445 -5.768,3.229c0,1.771 2.591,3.217 5.768,3.217c3.203,0 5.795,-1.446 5.795,-3.217Z" style="fill:#ffd580;fill-rule:nonzero;"/><path d="M209.753,160.885c0,-1.784 -2.592,-3.229 -5.795,-3.229c-3.177,0 -5.768,1.445 -5.768,3.229c0,1.771 2.591,3.217 5.768,3.217c3.203,0 5.795,-1.446 5.795,-3.217Z" style="fill:#ffd580;fill-rule:nonzero;"/><path d="M472.643,207.656c0,-1.536 -2.213,-2.773 -4.948,-2.773c-2.721,0 -4.922,1.237 -4.922,2.773c0,1.55 2.201,2.761 4.922,2.761c2.735,0 4.948,-1.211 4.948,-2.761Z" style="fill:#ffd580;fill-rule:nonzero;"/><path d="M472.643,207.656c0,-1.536 -2.213,-2.773 -4.948,-2.773c-2.721,0 -4.922,1.237 -4.922,2.773c0,1.55 2.201,2.761 4.922,2.761c2.735,0 4.948,-1.211 4.948,-2.761Z" style="fill:#ffd580;fill-rule:nonzero;"/><path d="M922.708,48.685c0,-3.19 -4.609,-5.781 -10.312,-5.781c-5.716,0 -10.339,2.591 -10.339,5.781c0,3.19 4.623,5.768 10.339,5.768c5.703,0 10.312,-2.578 10.312,-5.768Z" style="fill:#ffd580;fill-rule:nonzero;"/><path d="M922.708,48.685c0,-3.19 -4.609,-5.781 -10.312,-5.781c-5.716,0 -10.339,2.591 -10.339,5.781c0,3.19 4.623,5.768 10.339,5.768c5.703,0 10.312,-2.578 10.312,-5.768Z" style="fill:#ffd580;fill-rule:nonzero;"/><path d="M438.893,366.055c0,-2.045 -2.969,-3.711 -6.64,-3.711c-3.646,0 -6.615,1.666 -6.615,3.711c0,2.044 2.969,3.711 6.615,3.711c3.671,0 6.64,-1.667 6.64,-3.711Z" style="fill:#ffd580;fill-rule:nonzero;"/><path d="M438.893,366.055c0,-2.045 -2.969,-3.711 -6.64,-3.711c-3.646,0 -6.615,1.666 -6.615,3.711c0,2.044 2.969,3.711 6.615,3.711c3.671,0 6.64,-1.667 6.64,-3.711Z" style="fill:#ffd580;fill-rule:nonzero;"/><path d="M1096.72,143.932c0,-2.474 -3.594,-4.479 -8.021,-4.479c-4.414,0 -8.008,2.005 -8.008,4.479c0,2.487 3.594,4.493 8.008,4.493c4.427,0 8.021,-2.006 8.021,-4.493Z" style="fill:#ffd580;fill-rule:nonzero;"/><path d="M1096.72,143.932c0,-2.474 -3.594,-4.479 -8.021,-4.479c-4.414,0 -8.008,2.005 -8.008,4.479c0,2.487 3.594,4.493 8.008,4.493c4.427,0 8.021,-2.006 8.021,-4.493Z" style="fill:#ffd580;fill-rule:nonzero;"/><path d="M938.88,147.878c0,-1.537 -2.2,-2.748 -4.922,-2.748c-2.721,0 -4.922,1.211 -4.922,2.748c0,1.523 2.201,2.747 4.922,2.747c2.722,0 4.922,-1.224 4.922,-2.747Z" style="fill:#ffd580;fill-rule:nonzero;"/><path d="M938.88,147.878c0,-1.537 -2.2,-2.748 -4.922,-2.748c-2.721,0 -4.922,1.211 -4.922,2.748c0,1.523 2.201,2.747 4.922,2.747c2.722,0 4.922,-1.224 4.922,-2.747Z" style="fill:#ffd580;fill-rule:nonzero;"/><path d="M894.74,354.01c0,-2.109 -3.047,-3.828 -6.823,-3.828c-3.75,0 -6.823,1.719 -6.823,3.828c0,2.11 3.073,3.802 6.823,3.802c3.776,0 6.823,-1.692 6.823,-3.802Z" style="fill:#ffd580;fill-rule:nonzero;"/><path d="M894.74,354.01c0,-2.109 -3.047,-3.828 -6.823,-3.828c-3.75,0 -6.823,1.719 -6.823,3.828c0,2.11 3.073,3.802 6.823,3.802c3.776,0 6.823,-1.692 6.823,-3.802Z" style="fill:#ffd580;fill-rule:nonzero;"/><path d="M439.453,238.698c0,-1.888 -2.734,-3.399 -6.107,-3.399c-3.359,0 -6.08,1.511 -6.08,3.399c0,1.888 2.721,3.398 6.08,3.398c3.373,0 6.107,-1.51 6.107,-3.398Z" style="fill:#ffd580;fill-rule:nonzero;"/><path d="M439.453,238.698c0,-1.888 -2.734,-3.399 -6.107,-3.399c-3.359,0 -6.08,1.511 -6.08,3.399c0,1.888 2.721,3.398 6.08,3.398c3.373,0 6.107,-1.51 6.107,-3.398Z" style="fill:#ffd580;fill-rule:nonzero;"/><path d="M143.294,118.177c0,-1.601 -2.291,-2.89 -5.156,-2.89c-2.839,0 -5.156,1.289 -5.156,2.89c0,1.602 2.317,2.904 5.156,2.904c2.865,0 5.156,-1.302 5.156,-2.904Z" style="fill:#ffd580;fill-rule:nonzero;"/><path d="M143.294,118.177c0,-1.601 -2.291,-2.89 -5.156,-2.89c-2.839,0 -5.156,1.289 -5.156,2.89c0,1.602 2.317,2.904 5.156,2.904c2.865,0 5.156,-1.302 5.156,-2.904Z" style="fill:#ffd580;fill-rule:nonzero;"/><path d="M958.529,207.474c0,-1.549 -2.266,-2.852 -5.052,-2.852c-2.787,0 -5.053,1.303 -5.053,2.852c0,1.549 2.266,2.825 5.053,2.825c2.786,0 5.052,-1.276 5.052,-2.825Z" style="fill:#ffd580;fill-rule:nonzero;"/><path d="M958.529,207.474c0,-1.549 -2.266,-2.852 -5.052,-2.852c-2.787,0 -5.053,1.303 -5.053,2.852c0,1.549 2.266,2.825 5.053,2.825c2.786,0 5.052,-1.276 5.052,-2.825Z" style="fill:#ffd580;fill-rule:nonzero;"/><path d="M1053.09,141.484c0,-2.669 -3.88,-4.817 -8.685,-4.817c-4.766,0 -8.646,2.148 -8.646,4.817c0,2.696 3.88,4.857 8.646,4.857c4.805,0 8.685,-2.161 8.685,-4.857Z" style="fill:#ffd580;fill-rule:nonzero;"/><path d="M1053.09,141.484c0,-2.669 -3.88,-4.817 -8.685,-4.817c-4.766,0 -8.646,2.148 -8.646,4.817c0,2.696 3.88,4.857 8.646,4.857c4.805,0 8.685,-2.161 8.685,-4.857Z" style="fill:#ffd580;fill-rule:nonzero;"/><path d="M1133.88,266.25c0,-1.732 -2.5,-3.138 -5.625,-3.138c-3.086,0 -5.612,1.406 -5.612,3.138c0,1.732 2.526,3.151 5.612,3.151c3.125,0 5.625,-1.419 5.625,-3.151Z" style="fill:#ffd580;fill-rule:nonzero;"/><path d="M1133.88,266.25c0,-1.732 -2.5,-3.138 -5.625,-3.138c-3.086,0 -5.612,1.406 -5.612,3.138c0,1.732 2.526,3.151 5.612,3.151c3.125,0 5.625,-1.419 5.625,-3.151Z" style="fill:#ffd580;fill-rule:nonzero;"/><path d="M636.289,51.12c0,-2.24 -3.229,-4.05 -7.2,-4.05c-3.998,0 -7.227,1.81 -7.227,4.05c0,2.213 3.229,4.023 7.227,4.023c3.971,0 7.2,-1.81 7.2,-4.023Z" style="fill:#ffd580;fill-rule:nonzero;"/><path d="M636.289,51.12c0,-2.24 -3.229,-4.05 -7.2,-4.05c-3.998,0 -7.227,1.81 -7.227,4.05c0,2.213 3.229,4.023 7.227,4.023c3.971,0 7.2,-1.81 7.2,-4.023Z" style="fill:#ffd580;fill-rule:nonzero;"/><path d="M250.143,216.12c0,-3.164 -4.609,-5.755 -10.299,-5.755c-5.69,0 -10.3,2.591 -10.3,5.755c0,3.177 4.61,5.768 10.3,5.768c5.69,0 10.299,-2.591 10.299,-5.768Z" style="fill:#ffd580;fill-rule:nonzero;"/><path d="M250.143,216.12c0,-3.164 -4.609,-5.755 -10.299,-5.755c-5.69,0 -10.3,2.591 -10.3,5.755c0,3.177 4.61,5.768 10.3,5.768c5.69,0 10.299,-2.591 10.299,-5.768Z" style="fill:#ffd580;fill-rule:nonzero;"/><path d="M141.042,241.575c0,-3.15 -4.571,-5.716 -10.209,-5.716c-5.625,0 -10.169,2.566 -10.169,5.716c0,3.152 4.544,5.691 10.169,5.691c5.638,0 10.209,-2.539 10.209,-5.691Z" style="fill:#ffd580;fill-rule:nonzero;"/><path d="M141.042,241.575c0,-3.15 -4.571,-5.716 -10.209,-5.716c-5.625,0 -10.169,2.566 -10.169,5.716c0,3.152 4.544,5.691 10.169,5.691c5.638,0 10.209,-2.539 10.209,-5.691Z" style="fill:#ffd580;fill-rule:nonzero;"/><path d="M351.784,309.492c0,-2.305 -3.347,-4.192 -7.474,-4.192c-4.128,0 -7.461,1.887 -7.461,4.192c0,2.318 3.333,4.18 7.461,4.18c4.127,0 7.474,-1.862 7.474,-4.18Z" style="fill:#ffd580;fill-rule:nonzero;"/><path d="M351.784,309.492c0,-2.305 -3.347,-4.192 -7.474,-4.192c-4.128,0 -7.461,1.887 -7.461,4.192c0,2.318 3.333,4.18 7.461,4.18c4.127,0 7.474,-1.862 7.474,-4.18Z" style="fill:#ffd580;fill-rule:nonzero;"/><path d="M624.323,283.386c0,-3.1 -4.466,-5.612 -10.013,-5.612c-5.547,0 -10.026,2.512 -10.026,5.612c0,3.098 4.479,5.598 10.026,5.598c5.547,0 10.013,-2.5 10.013,-5.598Z" style="fill:#ffd580;fill-rule:nonzero;"/><path d="M624.323,283.386c0,-3.1 -4.466,-5.612 -10.013,-5.612c-5.547,0 -10.026,2.512 -10.026,5.612c0,3.098 4.479,5.598 10.026,5.598c5.547,0 10.013,-2.5 10.013,-5.598Z" style="fill:#ffd580;fill-rule:nonzero;"/><path d="M934.193,318.763c0,-2.057 -2.969,-3.698 -6.654,-3.698c-3.659,0 -6.628,1.641 -6.628,3.698c0,2.07 2.969,3.737 6.628,3.737c3.685,0 6.654,-1.667 6.654,-3.737Z" style="fill:#ffd580;fill-rule:nonzero;"/><path d="M934.193,318.763c0,-2.057 -2.969,-3.698 -6.654,-3.698c-3.659,0 -6.628,1.641 -6.628,3.698c0,2.07 2.969,3.737 6.628,3.737c3.685,0 6.654,-1.667 6.654,-3.737Z" style="fill:#ffd580;fill-rule:nonzero;"/><path d="M397.018,264.492c0,-1.927 -2.773,-3.463 -6.198,-3.463c-3.411,0 -6.198,1.536 -6.198,3.463c0,1.901 2.787,3.451 6.198,3.451c3.425,0 6.198,-1.55 6.198,-3.451Z" style="fill:#ffd580;fill-rule:nonzero;"/><path d="M397.018,264.492c0,-1.927 -2.773,-3.463 -6.198,-3.463c-3.411,0 -6.198,1.536 -6.198,3.463c0,1.901 2.787,3.451 6.198,3.451c3.425,0 6.198,-1.55 6.198,-3.451Z" style="fill:#ffd580;fill-rule:nonzero;"/><path d="M305.781,68.32c0,-1.992 -2.864,-3.58 -6.393,-3.58c-3.516,0 -6.38,1.588 -6.38,3.58c0,1.966 2.864,3.568 6.38,3.568c3.529,0 6.393,-1.602 6.393,-3.568Z" style="fill:#ffd580;fill-rule:nonzero;"/><path d="M305.781,68.32c0,-1.992 -2.864,-3.58 -6.393,-3.58c-3.516,0 -6.38,1.588 -6.38,3.58c0,1.966 2.864,3.568 6.38,3.568c3.529,0 6.393,-1.602 6.393,-3.568Z" style="fill:#ffd580;fill-rule:nonzero;"/><path d="M279.193,121.068c0,-1.745 -2.526,-3.151 -5.599,-3.151c-3.099,0 -5.586,1.406 -5.586,3.151c0,1.705 2.487,3.112 5.586,3.112c3.073,0 5.599,-1.407 5.599,-3.112Z" style="fill:#ffd580;fill-rule:nonzero;"/><path d="M279.193,121.068c0,-1.745 -2.526,-3.151 -5.599,-3.151c-3.099,0 -5.586,1.406 -5.586,3.151c0,1.705 2.487,3.112 5.586,3.112c3.073,0 5.599,-1.407 5.599,-3.112Z" style="fill:#ffd580;fill-rule:nonzero;"/><path d="M707.448,339.622c0,-2.161 -3.138,-3.919 -6.992,-3.919c-3.88,0 -7.005,1.758 -7.005,3.919c0,2.136 3.125,3.933 7.005,3.933c3.854,0 6.992,-1.797 6.992,-3.933Z" style="fill:#ffd580;fill-rule:nonzero;"/><path d="M707.448,339.622c0,-2.161 -3.138,-3.919 -6.992,-3.919c-3.88,0 -7.005,1.758 -7.005,3.919c0,2.136 3.125,3.933 7.005,3.933c3.854,0 6.992,-1.797 6.992,-3.933Z" style="fill:#ffd580;fill-rule:nonzero;"/><path d="M576.927,326.497c0,-3.151 -4.583,-5.69 -10.234,-5.69c-5.664,0 -10.248,2.539 -10.248,5.69c0,3.204 4.584,5.743 10.248,5.743c5.651,0 10.234,-2.539 10.234,-5.743Z" style="fill:#ffd580;fill-rule:nonzero;"/><path d="M576.927,326.497c0,-3.151 -4.583,-5.69 -10.234,-5.69c-5.664,0 -10.248,2.539 -10.248,5.69c0,3.204 4.584,5.743 10.248,5.743c5.651,0 10.234,-2.539 10.234,-5.743Z" style="fill:#ffd580;fill-rule:nonzero;"/><path d="M851.536,116.927c0,-2.266 -3.281,-4.102 -7.317,-4.102c-4.037,0 -7.318,1.836 -7.318,4.102c0,2.253 3.281,4.089 7.318,4.089c4.036,0 7.317,-1.836 7.317,-4.089Z" style="fill:#ffd580;fill-rule:nonzero;"/><path d="M851.536,116.927c0,-2.266 -3.281,-4.102 -7.317,-4.102c-4.037,0 -7.318,1.836 -7.318,4.102c0,2.253 3.281,4.089 7.318,4.089c4.036,0 7.317,-1.836 7.317,-4.089Z" style="fill:#ffd580;fill-rule:nonzero;"/><path d="M617.812,110.104c0,-1.523 -2.226,-2.773 -4.947,-2.773c-2.735,0 -4.948,1.25 -4.948,2.773c0,1.537 2.213,2.761 4.948,2.761c2.721,0 4.947,-1.224 4.947,-2.761Z" style="fill:#ffd580;fill-rule:nonzero;"/><path d="M617.812,110.104c0,-1.523 -2.226,-2.773 -4.947,-2.773c-2.735,0 -4.948,1.25 -4.948,2.773c0,1.537 2.213,2.761 4.948,2.761c2.721,0 4.947,-1.224 4.947,-2.761Z" style="fill:#ffd580;fill-rule:nonzero;"/></g></svg>