<?xml version="1.0" encoding="UTF-8" standalone="no"?><!DOCTYPE svg PUBLIC "-//W3C//DTD SVG 1.1//EN" "http://www.w3.org/Graphics/SVG/1.1/DTD/svg11.dtd"><svg width="100%" height="100%" viewBox="0 0 1306 570" version="1.1" xmlns="http://www.w3.org/2000/svg" xmlns:xlink="http://www.w3.org/1999/xlink" xml:space="preserve" xmlns:serif="http://www.serif.com/" style="fill-rule:evenodd;clip-rule:evenodd;stroke-linejoin:round;stroke-miterlimit:2;"><g><path d="M373.901,539.355c-33.281,-49.401 -274.999,-309.896 -329.752,-309.896c-54.753,0 -60.338,-12.708 -6.849,-43.75c62.786,-36.458 341.25,-123.828 447.409,-155.82c127.122,-38.281 201.042,-44.714 350.534,9.974c149.492,54.688 386.458,178.932 441.172,235.312c54.687,56.355 25.52,60.013 -32.826,49.076c-58.333,-10.937 -761.992,171.341 -794.818,215.104c-32.799,43.75 -49.596,37.487 -74.87,0Z" style="fill:#ffbf00;fill-rule:nonzero;"/><path d="M1300.27,304.277c-9.128,5.026 -29.948,3.19 -57.305,-1.901c-58.88,-10.937 -769.427,171.354 -802.552,215.091c-33.138,43.75 -50.091,37.487 -75.625,0c-33.581,-49.388 -277.682,-309.883 -332.982,-309.883c-9.726,0 -17.812,-0.429 -24.401,-1.237c-17.227,16.159 -3.724,23.112 36.745,23.112c54.753,0 296.471,260.495 329.752,309.896c25.274,37.487 42.071,43.75 74.87,0c32.826,-43.763 736.485,-226.041 794.818,-215.104c45.885,8.607 73.542,8.06 56.68,-19.974Z" style="fill:#fa0;fill-rule:nonzero;"/><path d="M740.269,366.413c-20.131,28.567 -131.12,47.421 -193.047,72.486c-83.242,33.75 -122.018,69.623 -152.149,68.594c-31.224,-1.028 -71.249,-67.213 -126.406,-128.815c-42.5,-47.461 -104.401,-88.372 -113.828,-118.32c-26.614,-84.792 635.143,35.377 585.43,106.055Z" style="fill:#ffd84d;fill-rule:nonzero;"/><path d="M357.665,359.512c23.424,17.59 37.226,38.684 30.885,47.135c-6.341,8.437 -30.469,1.068 -53.867,-16.484c-23.412,-17.565 -37.266,-38.66 -30.898,-47.123c6.353,-8.45 30.468,-1.081 53.88,16.472Z" style="fill:#fe9;fill-rule:nonzero;"/><path d="M426.037,415.202c9.688,7.278 12.487,19.961 6.211,28.32c-6.289,8.346 -19.219,9.219 -28.932,1.927c-9.675,-7.279 -12.487,-19.948 -6.224,-28.294c6.302,-8.373 19.219,-9.232 28.945,-1.953Z" style="fill:#fe9;fill-rule:nonzero;"/><path d="M985.894,317.246c-26.537,0 -15.195,-40.716 21.992,-71.393c18.424,-15.209 -1.576,-89.961 32.317,-89.961c3.438,0 7.436,0.768 12.084,2.447c50.417,18.243 115.521,54.545 138.568,72.852c23.059,18.307 49.622,39.154 0,45.651c-49.61,6.498 -151.68,25.534 -192.826,38.282c-4.687,1.458 -8.724,2.122 -12.135,2.122Z" style="fill:#ffcc27;fill-rule:nonzero;"/><path d="M785.125,153.678c-34.531,0 -77.083,-3.45 -123.177,-7.317c-113.632,-9.506 -205.69,-17.891 -202.252,-59.024c2.969,-35.325 73.398,-59.232 165.221,-59.232c15.078,0 30.729,0.651 46.758,1.992c113.659,9.506 202.982,50.573 199.518,91.706c-2.044,24.453 -35.443,31.875 -86.068,31.875Z" style="fill:#ffcc27;fill-rule:nonzero;"/></g></svg>