<?xml version="1.0" encoding="UTF-8" standalone="no"?><!DOCTYPE svg PUBLIC "-//W3C//DTD SVG 1.1//EN" "http://www.w3.org/Graphics/SVG/1.1/DTD/svg11.dtd"><svg width="100%" height="100%" viewBox="0 0 1392 613" version="1.1" xmlns="http://www.w3.org/2000/svg" xmlns:xlink="http://www.w3.org/1999/xlink" xml:space="preserve" xmlns:serif="http://www.serif.com/" style="fill-rule:evenodd;clip-rule:evenodd;stroke-linejoin:round;stroke-miterlimit:2;"><g><path d="M798.047,280.261c-40.651,-1.055 -74.089,-19.31 -81.641,-42.657c7.657,-23.828 42.656,-41.172 84.271,-40.104c40.612,1.042 74.076,19.271 81.628,42.617c-7.656,23.828 -42.63,41.211 -84.258,40.144Zm-50.873,120.091c-17.317,4.7 -33.698,1.432 -40.56,-7.136c5.079,-7.825 15.378,-14.883 28.282,-18.385c17.317,-4.7 33.698,-1.433 40.533,7.122c-5.064,7.852 -15.364,14.909 -28.255,18.399Zm-93.138,-222.644c-21.184,-0.546 -38.776,-10.221 -44.948,-23.086c6.368,-13.098 24.805,-22.343 46.615,-21.77c21.185,0.534 38.763,10.182 44.948,23.034c-6.367,13.111 -24.805,22.357 -46.615,21.822Zm277.643,2.527c-12.369,-0.313 -22.877,-5.274 -28.15,-12.24c5.469,-7.018 16.51,-11.68 29.27,-11.367c12.357,0.312 22.865,5.273 28.165,12.213c-5.496,7.032 -16.537,11.706 -29.285,11.394Zm458.555,174.283c-100.156,-228.112 -649.648,-349.309 -659.518,-354.518c-10.156,14.948 -188.229,87.669 -249.726,117.24c-61.485,29.544 -318.425,38.776 -479.245,175.95c0.039,0 -3.946,9.258 0,19.74c0.078,0 31.276,6.12 79.948,18.359c7.174,-11.64 18.75,-22.851 33.633,-31.354c32.838,-18.776 69.075,-17.188 80.924,3.503c0.937,1.666 1.641,3.437 2.201,5.247c-2.696,10.091 -9.063,20.56 -18.464,29.987c-1.602,6.159 -1.172,14.375 0,19.753c43.268,12.995 90.95,28.789 138.867,47.435c2.214,-23.92 20.104,-49.701 48.529,-65.964c40.208,-22.982 86.171,-18.216 102.669,10.625c2.383,4.167 3.932,8.646 4.883,13.268c-4.128,22.396 -21.393,45.729 -47.826,60.846c-2.956,1.68 -5.937,3.178 -8.932,4.571c-3.659,7.344 -2.839,13.515 0,19.739c89.792,43.776 169.583,98.178 208.893,163.321c107.787,-131.172 365.69,-212.565 554.141,-240.234c-0.091,-6.342 1.302,-12.384 0,-19.727c-1.289,-0.847 -2.604,-1.536 -3.867,-2.461c-13.568,-9.987 -22.305,-23.216 -25.508,-36.094c0.976,-3.307 2.292,-6.51 4.349,-9.323c13.099,-17.747 43.763,-17.369 68.528,0.847c13.412,9.895 22.24,22.994 25.456,35.742l-0.911,3.32l1.536,-0.117c-2.474,7.604 -0.625,12.864 -1.536,19.87c68.034,-5.664 116.471,-4.219 137.5,8.333c3.971,-5.391 5.56,-13.203 3.476,-17.904Z" style="fill:#ffbf00;fill-rule:nonzero;"/><path d="M931.679,180.235c-17.916,-0.469 -32.174,-10.56 -31.861,-22.514c0.312,-11.966 15.065,-21.301 32.981,-20.846c17.904,0.469 32.188,10.534 31.863,22.513c-0.313,11.966 -15.079,21.302 -32.983,20.847Zm-133.632,100.026c-46.732,-1.212 -83.959,-25.144 -83.255,-53.438c0.729,-28.307 39.192,-50.273 85.885,-49.062c46.693,1.198 83.984,25.091 83.229,53.424c-0.729,28.294 -39.154,50.273 -85.859,49.076Zm-50.873,120.091c-20.637,5.586 -40.091,-0.013 -43.489,-12.513c-3.386,-12.487 10.586,-27.162 31.211,-32.748c20.625,-5.586 40.091,0 43.489,12.513c3.36,12.487 -10.586,27.162 -31.211,32.748Zm-93.138,-222.644c-26.692,-0.702 -47.929,-15.742 -47.474,-33.554c0.443,-17.839 22.461,-31.745 49.141,-31.042c26.667,0.677 47.904,15.677 47.461,33.516c-0.469,17.838 -22.448,31.719 -49.128,31.08Zm76.68,-177.708c-10.156,14.948 -188.229,87.669 -249.726,117.24c-61.485,29.544 -318.425,38.776 -479.245,175.95c0.078,0 31.276,6.12 79.948,18.36c7.174,-11.641 18.75,-22.865 33.633,-31.368c32.838,-18.775 69.075,-17.187 80.924,3.516c8.802,15.43 1.589,37.122 -16.263,54.974c43.268,13.008 90.95,28.815 138.867,47.435c2.214,-23.919 20.104,-49.688 48.529,-65.964c40.208,-22.969 86.171,-18.203 102.669,10.639c16.484,28.841 -2.721,70.859 -42.943,93.853c-2.956,1.68 -5.937,3.178 -8.932,4.571c89.792,43.776 169.583,98.164 208.893,163.294c107.787,-131.146 365.69,-212.539 554.141,-240.195c-1.289,-0.847 -2.604,-1.536 -3.867,-2.461c-24.766,-18.229 -34.232,-47.409 -21.159,-65.169c13.099,-17.748 43.763,-17.37 68.528,0.859c21.967,16.224 31.797,41.002 24.545,58.802c68.034,-5.664 119.974,-2.37 140.976,10.182c-100.156,-228.112 -649.648,-349.309 -659.518,-354.518Z" style="fill:#fd3;fill-rule:nonzero;"/><path d="M803.659,158.008c-48.034,-1.211 -87.578,20.755 -88.321,49.076c-0.104,3.333 0.404,6.588 1.342,9.765c8.307,-23.294 42.955,-40.156 83.997,-39.088c45.117,1.146 81.367,23.541 83.073,50.611c3.346,-5.26 5.352,-10.937 5.508,-16.94c0.755,-28.333 -37.591,-52.226 -85.599,-53.424Z" style="fill:#fff266;fill-rule:nonzero;"/><path d="M780.703,347.865c-3.477,-12.513 -23.489,-18.112 -44.687,-12.513c-21.224,5.573 -35.599,20.247 -32.11,32.734c0.547,1.94 1.589,3.633 2.852,5.235c5.117,-7.8 15.338,-14.766 28.138,-18.23c18.268,-4.947 35.573,-1.107 41.653,8.516c3.881,-5.091 5.612,-10.573 4.154,-15.742Z" style="fill:#fff266;fill-rule:nonzero;"/><path d="M654.544,93.36c-27.435,-0.691 -50.052,13.215 -50.534,31.041c-0.13,4.583 1.302,8.972 3.841,12.982c5.039,-14.427 24.662,-24.883 47.852,-24.271c21.263,0.547 38.867,10.235 45,23.164c1.511,-2.969 2.578,-6.068 2.682,-9.388c0.456,-17.839 -21.406,-32.851 -48.841,-33.528Z" style="fill:#fff266;fill-rule:nonzero;"/><path d="M972.305,139.649c0.325,-11.993 -14.349,-22.058 -32.774,-22.514c-18.411,-0.442 -33.607,8.868 -33.919,20.847c-0.065,2.305 0.586,4.505 1.549,6.601c6.081,-4.896 15.287,-7.968 25.638,-7.708c14.935,0.378 27.214,7.5 30.73,16.797c5.273,-3.685 8.619,-8.555 8.776,-14.023Z" style="fill:#fff266;fill-rule:nonzero;"/><path d="M1164.25,337.331c-190.208,31.497 -434.037,111.081 -539.128,235.43c-37.031,-59.649 -108.997,-110.248 -191.797,-151.98c-2.031,1.328 -4.062,2.631 -6.211,3.854c-2.956,1.68 -5.937,3.178 -8.932,4.571c89.792,43.776 169.583,98.164 208.893,163.294c107.787,-131.146 365.69,-212.539 554.141,-240.195c-1.289,-0.847 -2.604,-1.536 -3.867,-2.461c-5.105,-3.75 -9.375,-8.034 -13.099,-12.513Z" style="fill:#fff266;fill-rule:nonzero;"/><path d="M1265,324.583c7.448,-17.786 -2.643,-42.591 -25.248,-58.788c-25.481,-18.243 -57.005,-18.607 -70.468,-0.873c-2.852,3.789 -4.44,8.125 -5.274,12.708c15.209,-9.934 39.974,-7.356 60.703,7.904c21.967,16.224 31.797,41.002 24.545,58.802c68.034,-5.664 119.974,-2.37 140.976,10.182c-4.479,-10.143 -9.844,-20.078 -15.976,-29.791c-27.188,-3.698 -64.87,-3.724 -109.258,-0.144Z" style="fill:#fff266;fill-rule:nonzero;"/><path d="M182.031,263.945c-12.187,-20.716 -49.427,-22.278 -83.229,-3.502c-15.313,8.49 -27.214,19.714 -34.583,31.38c-18.412,-4.518 -34.388,-8.19 -47.24,-11.041c-5.156,4.023 -10.234,8.15 -15.234,12.408c0.078,0 31.276,6.12 79.948,18.36c7.174,-11.641 18.75,-22.865 33.633,-31.368c25.637,-14.648 53.294,-16.849 69.856,-7.265c-0.599,-3.151 -1.51,-6.185 -3.151,-8.972Z" style="fill:#fff266;fill-rule:nonzero;"/><path d="M469.453,329.909c-0.547,-6.667 -2.409,-13.034 -5.833,-18.867c-16.953,-28.841 -64.232,-33.62 -105.599,-10.638c-29.245,16.263 -47.617,42.044 -49.896,65.95c-40.351,-15.221 -80.378,-28.502 -118.034,-39.961c-2.852,4.193 -6.172,8.347 -10.104,12.279c43.268,13.008 90.95,28.815 138.867,47.435c2.214,-23.919 20.104,-49.688 48.529,-65.964c39.778,-22.721 85.13,-18.255 102.07,9.766Z" style="fill:#fff266;fill-rule:nonzero;"/><path d="M757.044,410.235c20.625,-5.612 34.584,-20.287 31.198,-32.761c-1.302,-4.883 -5.13,-8.672 -10.468,-11.185l0.611,1.315c3.36,12.487 -10.586,27.162 -31.211,32.748c-12.591,3.411 -24.687,2.617 -33.007,-1.328c4.401,11.523 23.021,16.588 42.877,11.211Z" style="fill:#fff266;fill-rule:nonzero;"/><path d="M893.789,241.055c0.299,-12.266 -6.511,-23.685 -18.112,-32.8c5.417,6.979 8.451,14.753 8.229,22.93c-0.729,28.294 -39.154,50.273 -85.859,49.076c-26.485,-0.677 -49.922,-8.698 -65.13,-20.638c13.385,17.239 41.757,29.661 75,30.507c46.705,1.185 85.13,-20.794 85.872,-49.075Z" style="fill:#fff266;fill-rule:nonzero;"/><path d="M663.906,187.565c26.667,0.677 48.672,-13.229 49.128,-31.067c0.234,-9.089 -5.209,-17.409 -14.076,-23.49c2.735,4.18 4.323,8.776 4.206,13.62c-0.469,17.838 -22.448,31.719 -49.128,31.08c-13.086,-0.351 -24.818,-4.179 -33.385,-10.052c7.396,11.251 23.815,19.389 43.255,19.909Z" style="fill:#fff266;fill-rule:nonzero;"/><path d="M941.55,190.104c17.903,0.456 32.682,-8.88 32.968,-20.846c0.196,-6.784 -4.414,-12.891 -11.614,-17.044c1.106,2.265 1.81,4.661 1.758,7.174c-0.313,11.966 -15.079,21.302 -32.983,20.847c-7.773,-0.209 -14.726,-2.279 -20.247,-5.456c4.219,8.555 15.977,14.974 30.118,15.325Z" style="fill:#fff266;fill-rule:nonzero;"/><path d="M1261.26,343.438c0.729,-14.844 -7.487,-31.784 -22.682,-44.662c11.862,14.701 16.172,32.123 10.677,45.56c4.062,-0.325 8.06,-0.651 12.005,-0.898Z" style="fill:#fff266;fill-rule:nonzero;"/><path d="M436.979,434.506c40.208,-22.996 59.427,-65.014 42.943,-93.855c-3.177,-5.56 -7.487,-10.208 -12.591,-13.958c0.937,1.328 1.888,2.669 2.721,4.089c16.484,28.841 -2.721,70.859 -42.943,93.853c-2.956,1.68 -5.937,3.178 -8.932,4.571c4.935,2.409 9.857,4.896 14.753,7.37c1.367,-0.704 2.708,-1.302 4.049,-2.07Z" style="fill:#fff266;fill-rule:nonzero;"/><path d="M591.419,546.719c13.998,14.648 26.055,29.883 35.651,45.781l2.005,-2.265c-10.507,-15.118 -23.216,-29.623 -37.656,-43.516Z" style="fill:#fff266;fill-rule:nonzero;"/><path d="M194.661,343.229c14.206,-16.718 19.414,-35.742 11.446,-49.661c-2.409,-4.232 -5.899,-7.63 -10.13,-10.248l0.273,0.378c8.802,15.43 1.589,37.122 -16.263,54.974c4.779,1.419 9.791,3.034 14.674,4.557Z" style="fill:#fff266;fill-rule:nonzero;"/><path d="M1177.34,349.844c-1.303,-0.951 -2.37,-2.057 -3.581,-3.06c1.614,1.992 3.255,3.985 5.156,5.846l2.292,-0.325c-1.289,-0.847 -2.604,-1.536 -3.867,-2.461Z" style="fill:#fff266;fill-rule:nonzero;"/><path d="M578.724,442.162c36.328,27.278 57.787,60 47.943,73.111c-9.87,13.1 -29.453,-13.88 -65.782,-41.119c-36.328,-27.253 -75.612,-44.414 -65.755,-57.565c9.844,-13.112 47.279,-1.68 83.594,25.573Z" style="fill:#fff266;fill-rule:nonzero;"/><path d="M268.268,294.714c18.399,2.89 32.136,12.799 30.651,22.122c-1.484,9.31 -17.578,14.479 -35.989,11.576c-18.399,-2.93 -32.162,-12.813 -30.665,-22.136c1.472,-9.336 17.592,-14.505 36.003,-11.562Z" style="fill:#fff266;fill-rule:nonzero;"/></g></svg>