<?xml version="1.0" encoding="UTF-8" standalone="no"?><!DOCTYPE svg PUBLIC "-//W3C//DTD SVG 1.1//EN" "http://www.w3.org/Graphics/SVG/1.1/DTD/svg11.dtd"><svg width="100%" height="100%" viewBox="0 0 993 573" version="1.1" xmlns="http://www.w3.org/2000/svg" xmlns:xlink="http://www.w3.org/1999/xlink" xml:space="preserve" xmlns:serif="http://www.serif.com/" style="fill-rule:evenodd;clip-rule:evenodd;stroke-linejoin:round;stroke-miterlimit:2;"><g><path d="M852.428,23.361c-166.549,-59.466 -435.026,1.55 -446.093,104.649c-1.315,12.266 -2.618,36.38 -3.763,47.005c-11.732,109.31 251.041,224.362 452.33,171.979c86.758,-22.591 129.076,-69.127 133.112,-118.984c0.925,-11.445 3.308,-38.099 3.894,-50.326c2.825,-58.685 -46.954,-121.276 -139.48,-154.323Z" style="fill:#3d8603;fill-rule:nonzero;"/><path d="M991.908,177.684c2.825,-58.685 -46.954,-121.276 -139.48,-154.323c-88.606,-31.627 -206.054,-29.179 -298.242,-4.401c13.412,21.198 29.492,40.482 42.084,62.201c24.088,41.38 35.299,88.008 27.734,135.82c-4.596,29.141 -18.164,79.896 -42.083,116.589c83.789,27.096 184.349,36.471 272.981,13.424c86.758,-22.591 129.076,-69.127 133.112,-118.984c0.925,-11.445 3.308,-38.099 3.894,-50.326Z" style="fill:#265f01;fill-rule:nonzero;"/><path d="M858.639,300.002c190.625,-49.635 166.823,-214.87 -6.211,-276.641c-166.549,-59.466 -435.026,1.55 -446.093,104.649c-11.745,109.323 251.028,224.375 452.304,171.992Z" style="fill:#528a1b;fill-rule:nonzero;"/><path d="M853.483,290.51c183.542,-46.901 160.43,-203.737 -6.315,-262.552c-160.026,-56.445 -419.063,1.224 -429.583,98.815c-11.211,103.75 242.057,213.242 435.898,163.737Z" style="fill:#95ca34;fill-rule:nonzero;"/><path d="M844.369,276.695c171.445,-42.8 149.609,-186.758 -6.251,-240.964c-148.736,-51.732 -391.614,1.016 -401.275,90.117c-10.313,95.196 226.471,196.029 407.526,150.847Z" style="fill:#d8f299;fill-rule:nonzero;"/><path d="M826.413,254.637c148.19,-36.015 129.127,-158.059 -5.742,-204.192c-126.875,-43.425 -338.698,1.224 -346.823,75.807c-8.789,80.625 196.08,166.419 352.565,128.385Z" style="fill:#effbcb;fill-rule:nonzero;"/><path d="M790.645,219.572c84.049,-20.299 53.359,-110.169 -3.737,-129.609c-58.112,-19.805 -217.461,12.305 -221.342,48.021c-3.711,33.841 145.56,100.755 225.079,81.588Z" style="fill:#fcfff2;fill-rule:nonzero;"/><path d="M757.975,239.52c-8.177,-7.343 4.05,-17.838 27.305,-23.45c23.255,-5.625 48.724,-4.193 56.901,3.138c8.164,7.344 -4.049,17.864 -27.305,23.463c-23.242,5.638 -48.711,4.193 -56.901,-3.151Z" style="fill:#fcfff2;fill-rule:nonzero;"/><path d="M518.066,167.242c-15.911,-0.821 -29.166,-12.552 -29.596,-26.198c-0.43,-13.633 12.11,-24.037 28.021,-23.203c15.924,0.833 29.18,12.552 29.596,26.198c0.443,13.619 -12.096,24.023 -28.021,23.203Z" style="fill:#fcfff2;fill-rule:nonzero;"/><path d="M834.746,82.411c-7.708,6.536 -33.177,5.312 -56.888,-2.721c-23.672,-8.047 -36.601,-19.857 -28.867,-26.381c7.734,-6.536 33.203,-5.299 56.875,2.748c23.711,8.021 36.627,19.844 28.88,26.354Z" style="fill:#fcfff2;fill-rule:nonzero;"/><path d="M716.999,153.674c14.791,-3.555 35.924,2.213 48.125,13.177c0.625,0.56 55.573,56.927 35.338,61.81c-20.286,4.883 -87.5,-48.529 -88.125,-49.089c-12.2,-10.937 -10.143,-22.304 4.662,-25.898Z" style="fill:#fcfff2;fill-rule:nonzero;"/><path d="M716.973,178.479c10.481,9.401 68.659,50.573 80.69,47.695c12.005,-2.904 -26.706,-48.776 -37.175,-58.19c-10.455,-9.414 -28.724,-14.688 -40.716,-11.797c-12.018,2.891 -13.255,12.865 -2.799,22.292Z" style="fill:#c8de6f;fill-rule:nonzero;"/><path d="M759.981,201.63c4.427,3.971 29.01,21.354 34.101,20.156c5.065,-1.237 -11.289,-20.625 -15.703,-24.609c-4.427,-3.985 -12.122,-6.198 -17.214,-4.974c-5.065,1.224 -5.599,5.429 -1.184,9.427Z" style="fill:#effbcb;fill-rule:nonzero;"/><path d="M782.012,151.499c2.083,-0.52 4.349,-0.82 6.68,-0.937c15.52,-0.703 31.145,7.305 35.611,18.229c0.196,0.508 14.623,51.537 -2.799,55.755l-2.565,0.352c-21.693,0.963 -49.753,-53.021 -50,-53.594c-3.633,-8.919 1.758,-17.083 13.073,-19.818l0,0.013Z" style="fill:#fcfff2;fill-rule:nonzero;"/><path d="M774.225,171.07c3.789,9.258 31.237,51.666 43.594,51.094c12.344,-0.573 4.948,-43.868 1.172,-53.112c-3.75,-9.271 -16.836,-16.303 -29.193,-15.743c-12.344,0.547 -19.336,8.503 -15.573,17.761Z" style="fill:#c8de6f;fill-rule:nonzero;"/><path d="M798.783,196.447c1.601,3.92 13.203,21.823 18.45,21.589c5.195,-0.247 2.057,-18.529 0.469,-22.448c-1.589,-3.919 -7.096,-6.888 -12.331,-6.654c-5.208,0.248 -8.164,3.607 -6.588,7.513Z" style="fill:#effbcb;fill-rule:nonzero;"/><path d="M676.803,174.455c11.954,-2.89 29.87,0.222 43.581,7.539c7.487,4.011 25.078,15.313 39.31,25.768c26.693,19.597 26.094,24.336 21.458,26.524l-1.783,0.612c-17.696,4.258 -97.592,-33.893 -98.36,-34.284c-15.989,-8.568 -19.883,-19.362 -8.854,-24.557c1.38,-0.638 2.93,-1.185 4.648,-1.602Z" style="fill:#fcfff2;fill-rule:nonzero;"/><path d="M684.72,198.856c13.607,7.253 83.672,37.487 92.513,33.321c8.815,-4.18 -46.94,-41.159 -60.547,-48.412c-13.607,-7.279 -31.771,-9.779 -40.612,-5.612c-8.802,4.167 -4.961,13.412 8.646,20.703Z" style="fill:#c8de6f;fill-rule:nonzero;"/><path d="M732.897,214.559c5.755,3.034 35.352,15.821 39.102,14.063c3.724,-1.758 -19.844,-17.396 -25.586,-20.456c-5.755,-3.073 -13.438,-4.127 -17.149,-2.383c-3.737,1.784 -2.109,5.69 3.633,8.776Z" style="fill:#effbcb;fill-rule:nonzero;"/><path d="M525.671,134.611c20.416,-4.921 92.799,-5.416 111.25,-4.453c10.846,0.56 21.172,2.578 29.062,5.664c8.503,3.347 13.281,7.578 13.411,11.875c0.144,4.74 -5.455,8.855 -15.364,11.25c-7.344,1.758 -16.602,2.448 -26.12,1.967c-1.211,-0.053 -119.258,-9.74 -119.635,-21.524c-0.065,-1.953 2.422,-3.568 7.396,-4.779Z" style="fill:#fcfff2;fill-rule:nonzero;"/><path d="M637.012,132.867c-20.209,-1.042 -113.568,-0.196 -113.321,6.81c0.209,6.979 93.92,17.486 114.128,18.515c20.208,1.042 36.406,-3.789 36.185,-10.768c-0.222,-6.979 -16.784,-13.516 -36.992,-14.557Z" style="fill:#c8de6f;fill-rule:nonzero;"/><path d="M580.475,137.841c-8.528,-0.443 -47.982,-0.066 -47.877,2.877c0.091,2.956 39.687,7.383 48.216,7.839c8.555,0.416 15.39,-1.602 15.299,-4.557c-0.104,-2.956 -7.083,-5.717 -15.638,-6.159Z" style="fill:#effbcb;fill-rule:nonzero;"/><path d="M521.608,147.476c16.029,-3.867 94.284,9.518 107.161,12.396c20.456,4.583 32.618,13.854 27.735,21.081c-1.693,2.461 -5.286,4.44 -10.365,5.664c-9.218,2.213 -22.265,1.862 -34.882,-0.99c-1.029,-0.221 -100.652,-25.82 -93.789,-35.898c0.442,-0.677 1.536,-1.628 4.14,-2.253Z" style="fill:#fcfff2;fill-rule:nonzero;"/><path d="M627.09,162.359c-17.318,-3.893 -100.586,-17.227 -104.505,-11.498c-3.894,5.756 73.046,28.412 90.338,32.305c17.318,3.893 34.532,2.37 38.438,-3.372c3.88,-5.729 -6.953,-13.555 -24.271,-17.435Z" style="fill:#c8de6f;fill-rule:nonzero;"/><path d="M574.03,157.919c-7.318,-1.641 -42.487,-7.266 -44.141,-4.844c-1.653,2.435 30.847,12.005 38.164,13.646c7.318,1.64 14.584,1.015 16.224,-1.419c1.654,-2.422 -2.929,-5.743 -10.247,-7.383Z" style="fill:#effbcb;fill-rule:nonzero;"/><path d="M537.428,116.799c23.646,-5.716 63.36,-11.797 75.886,-12.93c20.937,-1.901 40.937,2.865 45.521,10.808c3.463,6.067 -3.477,12.343 -17.227,15.677c-3.685,0.885 -7.721,1.536 -11.979,1.927c-1.055,0.091 -107.123,6.198 -113.36,-4.714c-2.031,-3.528 4.089,-6.653 21.159,-10.768Z" style="fill:#fcfff2;fill-rule:nonzero;"/><path d="M614.863,106.565c-17.786,1.601 -97.057,14.192 -93.424,20.546c3.646,6.355 88.867,4.076 106.64,2.461c17.774,-1.588 29.206,-8.06 25.56,-14.414c-3.646,-6.354 -21.002,-10.208 -38.776,-8.593Z" style="fill:#c8de6f;fill-rule:nonzero;"/><path d="M569.056,118.257c-7.513,0.69 -41.016,6.003 -39.466,8.698c1.549,2.669 37.539,1.706 45.039,1.042c7.526,-0.677 12.344,-3.412 10.807,-6.094c-1.536,-2.669 -8.88,-4.323 -16.38,-3.646Z" style="fill:#effbcb;fill-rule:nonzero;"/><path d="M776.934,69.429c5.078,-1.237 9.414,-1.263 12.877,-0.091c6.354,2.162 9.987,7.253 -6.237,29.818c-8.75,12.161 -20.599,25.364 -26.185,30.078c-4.791,4.049 -11.588,7.278 -19.127,9.101c-10.222,2.461 -20.951,2.227 -29.44,-0.625c-15.443,-5.26 -18.282,-17.174 -6.472,-27.135c9.31,-7.852 53.451,-36.068 74.558,-41.146l0.026,0Z" style="fill:#fcfff2;fill-rule:nonzero;"/><path d="M752.676,127.645c10.169,-8.606 47.096,-51.823 34.492,-56.093c-12.578,-4.271 -69.909,32.044 -80.091,40.625c-10.182,8.58 -8.229,19.036 4.375,23.294c12.578,4.271 31.016,0.755 41.224,-7.826Z" style="fill:#c8de6f;fill-rule:nonzero;"/><path d="M767.025,98.674c4.323,-3.633 19.909,-21.901 14.596,-23.711c-5.325,-1.797 -29.531,13.542 -33.828,17.188c-4.323,3.606 -3.49,8.033 1.823,9.817c5.312,1.81 13.125,0.339 17.409,-3.294Z" style="fill:#effbcb;fill-rule:nonzero;"/><path d="M725.202,66.617c33.607,-8.099 42.161,-6.784 46.419,-4.141c14.792,9.193 -63.138,44.115 -63.945,44.414c-2.617,1.042 -5.391,1.901 -8.295,2.604c-15.091,3.633 -31.757,2.37 -40.507,-3.047c-10.821,-6.718 -6.315,-17.057 10.221,-23.476c7.891,-3.099 33.047,-10.794 56.107,-16.354Z" style="fill:#fcfff2;fill-rule:nonzero;"/><path d="M704.056,104.677c14.089,-5.495 72.201,-35.248 63.529,-40.625c-8.672,-5.378 -80.795,15.651 -94.883,21.119c-14.076,5.508 -18.451,14.31 -9.792,19.701c8.646,5.351 27.07,5.273 41.146,-0.195Z" style="fill:#c8de6f;fill-rule:nonzero;"/><path d="M733.809,83.166c5.963,-2.318 30.494,-14.883 26.823,-17.161c-3.646,-2.279 -34.128,6.614 -40.079,8.932c-5.95,2.331 -7.812,6.029 -4.127,8.32c3.646,2.266 11.432,2.227 17.383,-0.091Z" style="fill:#effbcb;fill-rule:nonzero;"/><path d="M804.538,76.057c3.021,-0.729 5.612,-0.547 7.213,-0.248c21.914,3.933 2.578,58.555 2.305,59.089c-3.021,6.198 -10.313,11.224 -19.505,13.45c-5.964,1.42 -12.292,1.628 -18.32,0.547c-16.029,-2.877 -24.48,-13.515 -19.271,-24.231c3.216,-6.589 30.273,-44.441 47.578,-48.607Z" style="fill:#fcfff2;fill-rule:nonzero;"/><path d="M808.809,133.947c4.44,-9.127 14.557,-53.255 1.692,-55.586c-12.838,-2.304 -43.841,38.125 -48.294,47.24c-4.427,9.154 2.383,18.412 15.261,20.729c12.851,2.305 26.901,-3.229 31.341,-12.383Z" style="fill:#c8de6f;fill-rule:nonzero;"/><path d="M806.738,105.692c1.875,-3.88 6.146,-22.526 0.703,-23.489c-5.403,-0.99 -18.515,16.093 -20.39,19.947c-1.888,3.868 1.002,7.8 6.445,8.764c5.43,0.976 11.354,-1.368 13.242,-5.222Z" style="fill:#effbcb;fill-rule:nonzero;"/><path d="M578.483,172.15c-0.534,-3.971 -1.38,-7.955 -2.565,-11.927c-34.193,-115.065 -327.396,-139.635 -481.771,-59.453c-66.68,34.597 -96.784,85.899 -93.867,134.636c0.807,13.489 4.844,44.544 6.745,56.901c8.62,55.924 61.302,106.575 152.812,121.901c179.74,30.117 438.282,-77.409 424.466,-193.985c-0.52,-4.388 -4.231,-36.21 -5.82,-48.073Z" style="fill:#3d8603;fill-rule:nonzero;"/><path d="M578.483,172.15c-0.534,-3.971 -1.38,-7.955 -2.565,-11.927c-32.487,-109.348 -298.984,-136.94 -457.852,-70.599c23.881,15.482 43.412,36.029 58.503,65.977c20.234,40.13 33.021,82.526 38.828,127.07c4.623,35.326 10.143,91.589 -1.771,136.511c173.217,4.336 383.164,-93.62 370.677,-198.959c-0.52,-4.388 -4.231,-36.21 -5.82,-48.073Z" style="fill:#265f01;fill-rule:nonzero;"/><path d="M575.918,160.223c-34.193,-115.065 -327.396,-139.635 -481.771,-59.453c-148.594,77.149 -115.885,237.188 60.026,266.641c186.524,31.224 457.826,-85.69 421.745,-207.188Z" style="fill:#528a1b;fill-rule:nonzero;"/><path d="M565.033,160.093c-32.735,-109.271 -315.131,-132.174 -463.92,-55.742c-142.799,73.333 -111.575,225.651 57.383,253.294c179.597,29.388 441.107,-82.135 406.537,-197.552Z" style="fill:#95ca34;fill-rule:nonzero;"/><path d="M546.374,160.549c-30.352,-100.156 -294.115,-120.547 -433.295,-50.156c-132.799,67.187 -103.906,207.304 53.073,232.187c167.722,26.563 412.279,-76.276 380.222,-182.031Z" style="fill:#d8f299;fill-rule:nonzero;"/><path d="M510.71,164.13c-26.068,-85.118 -254.089,-102.006 -374.532,-41.901c-113.32,56.549 -88.541,176.692 45.482,197.304c144.948,22.292 356.55,-65.573 329.05,-155.403Z" style="fill:#effbcb;fill-rule:nonzero;"/><path d="M439.004,173.153c-14.688,-47.474 -187.943,-51.002 -238.971,-25.846c-51.928,25.586 -35.717,114.245 28.802,123.906c61.146,9.18 224.075,-53.125 210.169,-98.06Z" style="fill:#fcfff2;fill-rule:nonzero;"/><path d="M466.895,194.208c-15.677,2.617 -31.68,-5.912 -35.743,-19.024c-4.062,-13.151 5.352,-25.924 21.029,-28.554c15.69,-2.63 31.706,5.898 35.781,19.036c4.05,13.151 -5.377,25.899 -21.067,28.542Z" style="fill:#fcfff2;fill-rule:nonzero;"/><path d="M269.85,301.864c-5.794,7.995 -30.872,12.279 -56.028,9.583c-25.17,-2.708 -40.886,-11.367 -35.118,-19.349c5.769,-8.007 30.86,-12.278 56.042,-9.583c25.143,2.695 40.872,11.367 35.104,19.349Z" style="fill:#fcfff2;fill-rule:nonzero;"/><path d="M199.004,121.109c9.896,5.364 0.833,18.19 -20.274,28.633c-21.106,10.442 -46.249,14.557 -56.158,9.192c-9.909,-5.39 -0.821,-18.19 20.273,-28.645c21.107,-10.43 46.25,-14.532 56.159,-9.18Z" style="fill:#fcfff2;fill-rule:nonzero;"/><path d="M298.301,196.851c-2.591,-8.372 13.698,-17.969 37.07,-21.888c1.198,-0.195 119.414,-16.328 122.969,-4.87c3.542,11.433 -112.565,34.505 -113.737,34.701c-23.386,3.906 -43.711,0.403 -46.302,-7.943Z" style="fill:#fcfff2;fill-rule:nonzero;"/><path d="M343.796,202.177c20.078,-3.36 111.315,-24.402 109.218,-31.211c-2.109,-6.771 -96.744,3.255 -116.822,6.627c-20.092,3.347 -34.662,11.589 -32.579,18.347c2.11,6.809 20.078,9.583 40.183,6.237Z" style="fill:#c8de6f;fill-rule:nonzero;"/><path d="M397.832,185.054c8.49,-1.419 47.044,-10.312 46.159,-13.177c-0.885,-2.878 -40.872,1.367 -49.375,2.787c-8.464,1.419 -14.622,4.895 -13.75,7.76c0.898,2.878 8.489,4.062 16.966,2.63Z" style="fill:#effbcb;fill-rule:nonzero;"/><path d="M311.699,162.997c-0.351,-1.172 -0.325,-2.396 0.104,-3.607c2.878,-8.112 21.771,-14.44 43.021,-14.388c0.977,0.013 98.529,3.542 101.576,13.385l-0.039,1.407c-4.011,11.315 -110.703,14.179 -111.758,14.179c-17.383,-0.065 -30.912,-4.57 -32.891,-10.963l-0.013,-0.013Z" style="fill:#fcfff2;fill-rule:nonzero;"/><path d="M345.579,171.187c18.021,0.065 103.191,-4.948 105.495,-11.419c2.266,-6.459 -79.218,-11.94 -97.239,-11.993c-17.995,-0.052 -34.44,5.17 -36.732,11.628c-2.279,6.458 10.469,11.732 28.476,11.784Z" style="fill:#c8de6f;fill-rule:nonzero;"/><path d="M398.757,164.025c7.604,0.013 43.606,-2.096 44.57,-4.843c0.95,-2.709 -33.477,-5.039 -41.081,-5.039c-7.604,-0.039 -14.557,2.161 -15.521,4.896c-0.963,2.721 4.427,4.973 12.032,4.986Z" style="fill:#effbcb;fill-rule:nonzero;"/><path d="M325.632,221.929c-2.071,-6.745 8.437,-15.286 25.559,-20.755c9.349,-2.995 34.818,-9.583 57.852,-14.661c43.151,-9.493 51.654,-8.178 54.427,-5.326l0.651,1.055c3.086,9.987 -88.398,42.838 -89.323,43.125c-19.987,6.393 -40.833,6.093 -47.461,-0.703l-1.705,-2.735Z" style="fill:#fcfff2;fill-rule:nonzero;"/><path d="M372.572,223.088c16.992,-5.417 91.289,-34.909 86.002,-40.326c-5.286,-5.429 -88.177,15.261 -105.156,20.691c-16.992,5.416 -26.471,14.218 -21.172,19.635c5.287,5.43 23.334,5.43 40.326,0Z" style="fill:#c8de6f;fill-rule:nonzero;"/><path d="M414.29,201.734c7.175,-2.305 38.581,-14.766 36.341,-17.057c-2.226,-2.305 -37.239,6.471 -44.414,8.75c-7.187,2.291 -11.184,6.002 -8.958,8.307c2.227,2.291 9.87,2.278 17.031,0Z" style="fill:#effbcb;fill-rule:nonzero;"/><path d="M211.986,290.979c-3.568,-11.537 14.922,-48.789 21.614,-58.073c3.946,-5.443 10.417,-10.326 18.242,-13.698c8.425,-3.659 17.461,-5.182 25.391,-4.349c8.75,0.963 14.766,4.713 16.51,10.312c1.277,4.141 0.079,9.037 -3.385,13.841c-0.43,0.599 -49.844,59.128 -71.614,56.784c-3.62,-0.377 -5.886,-2.005 -6.758,-4.817Z" style="fill:#fcfff2;fill-rule:nonzero;"/><path d="M238.626,233.44c-7.343,10.169 -30.833,58.255 -17.916,59.648c12.877,1.367 57.304,-44.479 64.635,-54.622c7.344,-10.144 2.813,-19.506 -10.078,-20.899c-12.904,-1.367 -29.31,5.729 -36.641,15.873Z" style="fill:#c8de6f;fill-rule:nonzero;"/><path d="M232.598,263.544c-3.099,4.284 -13.021,24.609 -7.565,25.182c5.442,0.573 24.205,-18.789 27.304,-23.073c3.112,-4.284 1.198,-8.242 -4.245,-8.815c-5.455,-0.586 -12.395,2.409 -15.494,6.706Z" style="fill:#effbcb;fill-rule:nonzero;"/><path d="M234.499,295.822c-2.8,-9.075 42.747,-46.367 51.497,-52.356c13.932,-9.519 34.18,-13.776 46.146,-9.701c4.088,1.393 6.732,3.659 7.604,6.537c1.628,5.195 -2.552,11.809 -11.133,17.669c-0.703,0.495 -74.427,46.159 -91.12,40.456c-1.106,-0.391 -2.539,-1.146 -2.994,-2.605Z" style="fill:#fcfff2;fill-rule:nonzero;"/><path d="M290.098,244.859c-11.784,8.047 -58.594,47.956 -49.102,51.185c9.505,3.229 71.745,-31.406 83.516,-39.453c11.784,-8.06 13.633,-17.201 4.127,-20.456c-9.492,-3.229 -26.758,0.664 -38.541,8.724Z" style="fill:#c8de6f;fill-rule:nonzero;"/><path d="M267.741,271.148c-4.974,3.398 -24.753,20.247 -20.742,21.614c4.023,1.381 30.312,-13.268 35.286,-16.653c4.987,-3.425 5.768,-7.279 1.745,-8.646c-4.01,-1.367 -11.302,0.273 -16.289,3.685Z" style="fill:#effbcb;fill-rule:nonzero;"/><path d="M182.415,281.122c-4.127,-13.36 -4.687,-35.052 -3.398,-41.719c2.135,-11.159 16.237,-20.404 32.07,-21.042c12.045,-0.481 21.745,4.414 24.154,12.188c0.638,2.083 0.742,4.31 0.312,6.562c-0.104,0.56 -17.33,56.329 -39.01,57.188c-7.044,0.273 -11.146,-3.529 -14.128,-13.177Z" style="fill:#fcfff2;fill-rule:nonzero;"/><path d="M184.382,239.195c-1.823,9.466 0.052,52.851 12.695,52.343c12.63,-0.507 31.289,-44.739 33.112,-54.205c1.81,-9.479 -6.966,-16.719 -19.636,-16.224c-12.63,0.534 -24.375,8.607 -26.171,18.086Z" style="fill:#c8de6f;fill-rule:nonzero;"/><path d="M193.587,265.197c-0.755,3.998 0.013,22.331 5.365,22.123c5.351,-0.209 13.229,-18.906 13.984,-22.891c0.781,-4.01 -2.956,-7.07 -8.281,-6.849c-5.339,0.196 -10.299,3.62 -11.068,7.617Z" style="fill:#effbcb;fill-rule:nonzero;"/><path d="M159.642,148.023c-0.898,-2.878 0.208,-5.091 3.307,-6.615c5.651,-2.799 16.003,-3.593 53.099,9.584c19.961,7.083 41.042,16.015 48.19,19.895c6.146,3.295 10.248,7.474 11.576,11.758c1.771,5.795 -1.537,11.25 -9.089,14.974c-13.75,6.797 -36.367,5.703 -51.51,-2.5c-11.914,-6.445 -51.888,-35.143 -55.573,-47.083l0,-0.013Z" style="fill:#fcfff2;fill-rule:nonzero;"/><path d="M260.046,172.958c-13.047,-7.07 -82.526,-35.274 -93.737,-29.74c-11.211,5.547 40.065,42.761 53.112,49.831c13.046,7.057 32.721,8.294 43.945,2.76c11.211,-5.56 9.726,-15.781 -3.32,-22.851Z" style="fill:#c8de6f;fill-rule:nonzero;"/><path d="M210.71,159.377c-5.508,-2.995 -34.87,-14.922 -39.61,-12.565c-4.739,2.357 16.927,18.06 22.435,21.042c5.521,3.007 13.828,3.528 18.568,1.172c4.726,-2.357 4.101,-6.667 -1.393,-9.649Z" style="fill:#effbcb;fill-rule:nonzero;"/><path d="M140.632,173.986c-5.873,-18.984 -1.159,-23.098 4.83,-24.713c20.86,-5.625 64.076,41.849 64.44,42.344c1.159,1.549 2.006,3.164 2.526,4.804c2.631,8.542 -4.14,16.81 -16.471,20.144c-15.234,4.114 -32.969,-0.417 -40.378,-10.3c-3.528,-4.687 -10.924,-19.245 -14.947,-32.279Z" style="fill:#fcfff2;fill-rule:nonzero;"/><path d="M204.824,192.997c-6.302,-8.412 -45.351,-44.596 -57.552,-41.315c-12.187,3.268 7.084,44.83 13.373,53.229c6.302,8.398 21.302,12.552 33.515,9.245c12.188,-3.295 16.966,-12.774 10.664,-21.159Z" style="fill:#c8de6f;fill-rule:nonzero;"/><path d="M173.34,173.101c-2.669,-3.542 -19.193,-18.841 -24.336,-17.435c-5.156,1.38 2.982,18.945 5.651,22.487c2.669,3.555 9.01,5.287 14.167,3.893c5.143,-1.38 7.174,-5.39 4.518,-8.945Z" style="fill:#effbcb;fill-rule:nonzero;"/><path d="M179.225,135.275c-0.521,-1.718 0.521,-2.994 1.485,-3.749c13.086,-10.417 108.19,11.21 109.114,11.471c10.586,2.89 17.865,7.708 19.479,12.877c1.029,3.399 -0.312,6.693 -3.919,9.558c-9.57,7.591 -31.38,9.648 -49.648,4.687c-11.263,-3.06 -73.477,-25.052 -76.511,-34.844Z" style="fill:#fcfff2;fill-rule:nonzero;"/><path d="M286.699,145.497c-15.599,-4.232 -93.932,-18.893 -101.614,-12.787c-7.67,6.107 58.216,30.678 73.789,34.922c15.599,4.219 34.44,2.709 42.135,-3.411c7.669,-6.107 1.263,-14.492 -14.31,-18.724Z" style="fill:#c8de6f;fill-rule:nonzero;"/><path d="M234.238,140.497c-6.601,-1.784 -39.7,-7.982 -42.942,-5.417c-3.243,2.604 24.596,12.982 31.184,14.766c6.576,1.797 14.545,1.133 17.787,-1.432c3.255,-2.579 0.547,-6.133 -6.029,-7.917Z" style="fill:#effbcb;fill-rule:nonzero;"/><path d="M877.012,333.218c-70.716,-110.794 -385.235,-175.833 -522.11,-85.989c-28.841,18.919 -44.166,41.549 -48.385,65.625c-2.227,12.643 -4.987,39.323 -6.419,50.13c-11.094,83.372 108.242,182.513 259.179,204.687c158.373,23.269 316.563,-50.52 325.118,-136.445c1.041,-10.339 4.856,-35.091 5.989,-47.448c1.497,-16.601 -2.604,-33.672 -13.372,-50.56Z" style="fill:#3d8603;fill-rule:nonzero;"/><path d="M890.384,383.778c1.497,-16.601 -2.604,-33.672 -13.372,-50.56c-50.287,-78.802 -223.907,-134.401 -369.258,-127.643c5.117,10.117 8.776,20.625 10.781,29.883c9.87,45.312 8.542,94.765 0.495,140.325c-7.37,41.524 -23.685,115.365 -55.82,166.198c29.674,11.758 62.044,20.677 96.067,25.69c158.373,23.269 316.563,-50.52 325.118,-136.445c1.041,-10.339 4.856,-35.091 5.989,-47.448Z" style="fill:#265f01;fill-rule:nonzero;"/><path d="M354.902,247.229c-129.596,85.065 13.542,244.778 210.3,273.671c189.388,27.839 378.489,-83.138 311.81,-187.682c-70.716,-110.794 -385.235,-175.833 -522.11,-85.989Z" style="fill:#528a1b;fill-rule:nonzero;"/><path d="M363.756,250.471c-124.7,80.677 13.412,232.721 202.956,260.534c181.901,26.666 364.271,-78.711 300.026,-177.917c-68.255,-105.482 -371.328,-167.799 -502.982,-82.617Z" style="fill:#95ca34;fill-rule:nonzero;"/><path d="M378.9,256.604c-116.38,74.192 12.89,214.609 190.039,240.534c169.01,24.752 339.87,-72.448 280.039,-163.568c-63.971,-97.37 -347.201,-155.274 -470.078,-76.966Z" style="fill:#d8f299;fill-rule:nonzero;"/><path d="M408.275,267.124c-100.287,61.316 12.018,178.79 165.221,201.094c144.115,20.977 292.826,-59.909 241.341,-135.104c-55.651,-81.328 -300.677,-130.729 -406.562,-65.99Z" style="fill:#effbcb;fill-rule:nonzero;"/><path d="M465.944,294.403c-56.875,34.792 40.625,118.919 105.482,128.346c66.015,9.623 178.841,-50 154.049,-86.224c-23.489,-34.335 -205.716,-75.013 -259.531,-42.122Z" style="fill:#fcfff2;fill-rule:nonzero;"/><path d="M478.509,268.869c12.904,5.886 10.586,18.451 -5.143,28.086c-15.742,9.61 -38.945,12.643 -51.836,6.745c-12.891,-5.885 -10.573,-18.464 5.169,-28.099c15.716,-9.609 38.919,-12.63 51.81,-6.732Z" style="fill:#fcfff2;fill-rule:nonzero;"/><path d="M743.548,299.156c14.453,-1.94 35.195,7.409 46.328,20.924c11.159,13.503 8.477,26.042 -5.976,27.982c-14.44,1.94 -35.195,-7.435 -46.328,-20.938c-11.133,-13.515 -8.451,-26.028 5.976,-27.968Z" style="fill:#fcfff2;fill-rule:nonzero;"/><path d="M535.879,438.583c1.562,-7.826 24.622,-11.055 51.484,-7.162c26.875,3.881 47.422,13.399 45.847,21.237c-1.55,7.826 -24.61,11.055 -51.485,7.162c-26.875,-3.893 -47.396,-13.386 -45.846,-21.237Z" style="fill:#fcfff2;fill-rule:nonzero;"/><path d="M581.777,347.203c-10.013,6.093 -32.903,4.023 -52.122,-4.766c-0.964,-0.43 -93.086,-46.992 -79.388,-55.378c13.724,-8.385 114.141,33.086 115.091,33.555c19.232,8.763 26.419,20.456 16.419,26.589Z" style="fill:#fcfff2;fill-rule:nonzero;"/><path d="M562.246,322.515c-16.51,-7.552 -99.466,-38.424 -107.604,-33.45c-8.125,4.96 61.641,43.932 78.138,51.471c16.523,7.526 36.484,9.622 44.622,4.648c8.125,-4.961 1.341,-15.117 -15.156,-22.669Z" style="fill:#c8de6f;fill-rule:nonzero;"/><path d="M506.673,306.942c-6.966,-3.177 -42.005,-16.224 -45.442,-14.14c-3.451,2.109 26.041,18.567 33.007,21.757c6.98,3.19 15.404,4.063 18.841,1.953c3.451,-2.096 0.56,-6.367 -6.406,-9.57Z" style="fill:#effbcb;fill-rule:nonzero;"/><path d="M527.129,360.666c-1.419,0.846 -3.112,1.563 -5.052,2.07c-12.917,3.399 -32.787,-1.862 -45.261,-11.966c-0.56,-0.455 -53.333,-48.737 -41.562,-55.937l1.966,-0.808c18.021,-4.739 84.961,44.128 85.586,44.623c10.208,8.281 11.992,17.331 4.323,22.018Z" style="fill:#fcfff2;fill-rule:nonzero;"/><path d="M518.431,339.82c-10.586,-8.568 -67.812,-45.99 -78.099,-43.281c-10.273,2.721 30.326,44.518 40.885,53.086c10.56,8.567 27.461,13.294 37.735,10.598c10.26,-2.721 10.026,-11.848 -0.521,-20.403Z" style="fill:#c8de6f;fill-rule:nonzero;"/><path d="M477.103,318.843c-4.466,-3.633 -28.659,-19.44 -32.995,-18.307c-4.323,1.159 12.813,18.828 17.292,22.435c4.453,3.62 11.588,5.638 15.937,4.479c4.323,-1.146 4.232,-5 -0.234,-8.607Z" style="fill:#effbcb;fill-rule:nonzero;"/><path d="M600.241,319.533c-8.099,4.935 -26.081,4.948 -43.737,0.052c-9.662,-2.669 -33.815,-10.885 -54.427,-18.815c-38.607,-14.87 -41.797,-19.674 -39.505,-22.643l1.054,-0.924c11.993,-7.318 111.38,16.783 112.331,17.044c20.625,5.729 32.5,15.781 27.057,22.904l-2.773,2.382Z" style="fill:#fcfff2;fill-rule:nonzero;"/><path d="M574.121,296.63c-17.513,-4.857 -102.135,-22.774 -106.497,-17.11c-4.362,5.69 73.177,32.826 90.69,37.683c17.526,4.882 35.273,4.205 39.622,-1.459c4.375,-5.677 -6.289,-14.245 -23.815,-19.114Z" style="fill:#c8de6f;fill-rule:nonzero;"/><path d="M519.98,289.39c-7.421,-2.07 -43.164,-9.622 -44.999,-7.24c-1.849,2.409 30.911,13.868 38.294,15.912c7.422,2.07 14.909,1.784 16.758,-0.612c1.849,-2.396 -2.67,-6.016 -10.053,-8.06Z" style="fill:#effbcb;fill-rule:nonzero;"/><path d="M762.689,332.932c-13.802,8.45 -76.159,21.523 -92.917,23.789c-9.857,1.315 -20.39,1.107 -29.687,-0.625c-10.026,-1.849 -17.487,-5.222 -21.003,-9.479c-3.867,-4.714 -2.24,-9.74 4.492,-13.868c4.948,-3.007 12.435,-5.325 21.081,-6.497c1.081,-0.143 111.068,-11.029 120.703,0.664c1.602,1.94 0.703,3.971 -2.656,6.016l-0.013,0Z" style="fill:#fcfff2;fill-rule:nonzero;"/><path d="M667.559,354.026c18.346,-2.487 98.606,-19.532 92.89,-26.459c-5.703,-6.901 -95.234,-1.081 -113.581,1.393c-18.346,2.461 -28.593,10.066 -22.877,17.006c5.703,6.914 25.221,10.52 43.568,8.06Z" style="fill:#c8de6f;fill-rule:nonzero;"/><path d="M712.637,339.247c7.76,-1.042 41.666,-8.255 39.258,-11.159c-2.422,-2.93 -40.235,-0.482 -47.995,0.56c-7.761,1.055 -12.084,4.284 -9.675,7.187c2.422,2.943 10.677,4.441 18.412,3.412Z" style="fill:#effbcb;fill-rule:nonzero;"/><path d="M756.074,319.429c-10.859,6.628 -89.231,6.914 -102.695,6.276c-21.341,-1.028 -39.219,-8.112 -40.664,-16.159c-0.482,-2.76 1.068,-5.351 4.518,-7.435c6.237,-3.815 17.826,-5.729 31.016,-5.091c1.08,0.052 107.643,8.242 109.674,19.466c0.117,0.756 -0.091,1.875 -1.823,2.943l-0.026,0Z" style="fill:#fcfff2;fill-rule:nonzero;"/><path d="M652.884,322.945c18.099,0.859 100.82,-0.3 99.675,-6.706c-1.159,-6.406 -85.743,-15.599 -103.815,-16.458c-18.073,-0.86 -31.81,3.633 -30.665,10.013c1.159,6.406 16.732,12.304 34.805,13.151Z" style="fill:#c8de6f;fill-rule:nonzero;"/><path d="M702.389,318.14c7.618,0.352 42.591,-0.143 42.097,-2.838c-0.495,-2.709 -36.224,-6.602 -43.841,-6.954c-7.657,-0.364 -13.464,1.524 -12.956,4.232c0.469,2.696 7.057,5.195 14.7,5.56Z" style="fill:#effbcb;fill-rule:nonzero;"/><path d="M766.569,352.723c-15.99,9.792 -45.625,22.735 -55.586,26.042c-16.667,5.534 -37.76,4.258 -48.008,-2.838c-7.773,-5.443 -6.758,-12.917 2.578,-18.62c2.487,-1.511 5.469,-2.852 8.868,-3.985c0.82,-0.26 87.981,-24.765 101.979,-15c4.57,3.164 1.718,7.344 -9.831,14.401Z" style="fill:#fcfff2;fill-rule:nonzero;"/><path d="M707.52,376.369c14.14,-4.713 72.929,-31.002 64.765,-36.692c-8.164,-5.691 -80.26,11.38 -94.414,16.067c-14.128,4.675 -18.945,13.099 -10.781,18.789c8.19,5.703 26.263,6.511 40.43,1.836Z" style="fill:#c8de6f;fill-rule:nonzero;"/><path d="M737.975,356.76c6.003,-1.992 30.847,-13.099 27.383,-15.521c-3.45,-2.396 -33.919,4.831 -39.883,6.797c-6.002,1.979 -8.021,5.547 -4.557,7.943c3.451,2.408 11.107,2.76 17.057,0.781Z" style="fill:#effbcb;fill-rule:nonzero;"/><path d="M596.27,441.473c-3.425,2.11 -7.149,2.865 -11.094,2.305c-7.188,-1.042 -14.388,-5.469 -18.125,-30.768c-2.005,-13.607 -2.162,-28.815 -1.016,-34.479c0.951,-4.844 4.31,-9.245 9.401,-12.357c6.94,-4.245 16.432,-5.872 26.042,-4.466c17.513,2.513 29.375,13.88 26.992,25.846c-1.862,9.427 -17.89,45.182 -32.2,53.919Z" style="fill:#fcfff2;fill-rule:nonzero;"/><path d="M571.374,379.312c-2.044,10.312 0.052,59.74 14.336,61.797c14.296,2.096 35.351,-44.011 37.409,-54.323c2.044,-10.313 -7.878,-20.365 -22.162,-22.435c-14.284,-2.07 -27.526,4.622 -29.583,14.961Z" style="fill:#c8de6f;fill-rule:nonzero;"/><path d="M581.777,410.64c-0.859,4.362 0.013,25.234 6.055,26.12c6.029,0.859 14.935,-18.594 15.794,-22.956c0.873,-4.375 -3.32,-8.607 -9.349,-9.479c-6.041,-0.872 -11.64,1.953 -12.5,6.315Z" style="fill:#effbcb;fill-rule:nonzero;"/><path d="M643.34,435.262c-22.735,13.933 -31.198,14.089 -36.966,12.188c-20.092,-6.563 19.935,-54.844 20.39,-55.325c1.459,-1.459 3.177,-2.8 5.157,-4.011c10.195,-6.237 25.638,-7.865 37.5,-3.997c14.687,4.817 18.945,15.859 9.674,25.156c-4.401,4.427 -20.143,16.458 -35.755,25.989Z" style="fill:#fcfff2;fill-rule:nonzero;"/><path d="M631.66,393.726c-7.903,7.904 -34.792,47.63 -23.034,51.484c11.745,3.829 57.709,-29.635 65.586,-37.539c7.878,-7.89 4.727,-17.435 -7.044,-21.302c-11.732,-3.841 -27.643,-0.547 -35.508,7.357Z" style="fill:#c8de6f;fill-rule:nonzero;"/><path d="M622.819,420.289c-3.333,3.359 -14.687,20.13 -9.727,21.77c4.948,1.615 24.375,-12.526 27.709,-15.872c3.333,-3.333 1.992,-7.37 -2.969,-8.997c-4.948,-1.628 -11.693,-0.235 -15.013,3.099Z" style="fill:#effbcb;fill-rule:nonzero;"/><path d="M567.103,439.651c-2.057,1.263 -4.427,1.523 -6.068,1.51c-22.083,-0.091 -48.398,-57.826 -48.607,-58.412c-2.278,-6.718 0.078,-12.981 6.315,-16.783c4.011,-2.474 9.375,-3.75 15.443,-3.724c16.159,0.091 31.901,9.205 35.82,20.768c2.422,7.109 8.816,49.492 -2.903,56.641Z" style="fill:#fcfff2;fill-rule:nonzero;"/><path d="M517.741,382.763c3.359,9.882 29.401,55.585 42.37,55.624c12.942,0.066 7.929,-45.546 4.596,-55.403c-3.346,-9.87 -16.575,-17.904 -29.57,-17.969c-12.969,-0.052 -20.769,7.878 -17.396,17.748Z" style="fill:#c8de6f;fill-rule:nonzero;"/><path d="M541.83,410.549c1.419,4.167 12.421,23.463 17.903,23.49c5.469,0.026 3.346,-19.245 1.94,-23.386c-1.419,-4.18 -7.018,-7.565 -12.487,-7.604c-5.482,-0.039 -8.776,3.333 -7.356,7.5Z" style="fill:#effbcb;fill-rule:nonzero;"/></g></svg>