<?xml version="1.0" encoding="UTF-8" standalone="no"?><!DOCTYPE svg PUBLIC "-//W3C//DTD SVG 1.1//EN" "http://www.w3.org/Graphics/SVG/1.1/DTD/svg11.dtd"><svg width="100%" height="100%" viewBox="0 0 1228 606" version="1.1" xmlns="http://www.w3.org/2000/svg" xmlns:xlink="http://www.w3.org/1999/xlink" xml:space="preserve" xmlns:serif="http://www.serif.com/" style="fill-rule:evenodd;clip-rule:evenodd;stroke-linejoin:round;stroke-miterlimit:2;"><g><path d="M1215.56,307.982c0,138.372 -269.336,250.521 -601.563,250.521c-332.239,0 -601.536,-112.149 -601.536,-250.521c0,-138.347 269.297,-250.521 601.536,-250.521c332.227,0 601.563,112.174 601.563,250.521Z" style="fill:#b5894c;fill-rule:nonzero;"/><path d="M1146.3,417.617c0,103.998 -175.664,188.281 -392.331,188.281c-216.666,0 -392.317,-84.283 -392.317,-188.281c0,-103.971 175.651,-188.294 392.317,-188.294c216.667,0 392.331,84.323 392.331,188.294Z" style="fill:#b5894c;fill-rule:nonzero;"/><path d="M1227.98,291.25c0,142.5 -274.909,257.995 -613.985,257.995c-339.114,0 -613.997,-115.495 -613.997,-257.995c0,-142.461 274.883,-257.956 613.997,-257.956c339.076,0 613.985,115.495 613.985,257.956Z" style="fill:#f2e6c1;fill-rule:nonzero;"/><path d="M1146.3,404.141c0,107.083 -175.664,193.945 -392.331,193.945c-216.666,0 -392.317,-86.862 -392.317,-193.945c0,-107.058 175.651,-193.881 392.317,-193.881c216.667,0 392.331,86.823 392.331,193.881Z" style="fill:#f2e6c1;fill-rule:nonzero;"/><path d="M1215.56,267.057c0,142.5 -272.123,257.995 -607.761,257.995c-335.689,0 -607.799,-115.495 -607.799,-257.995c0,-142.461 272.11,-257.955 607.799,-257.955c335.638,0 607.761,115.494 607.761,257.955Z" style="fill:#f7f7ed;fill-rule:nonzero;"/><path d="M1134.7,379.974c0,107.083 -173.88,193.893 -388.359,193.893c-214.505,0 -388.372,-86.81 -388.372,-193.893c0,-107.07 173.867,-193.893 388.372,-193.893c214.479,0 388.359,86.823 388.359,193.893Z" style="fill:#f7f7ed;fill-rule:nonzero;"/><path d="M709.349,150.195c0,82.956 -134.674,150.209 -300.833,150.209c-166.172,0 -300.834,-67.253 -300.834,-150.209c0,-82.916 134.662,-150.195 300.834,-150.195c166.159,0 300.833,67.279 300.833,150.195Z" style="fill:#f7f7ed;fill-rule:nonzero;"/><path d="M1033.4,261.51c0,115.586 -220.716,209.245 -492.968,209.245c-272.266,0 -492.969,-93.659 -492.969,-209.245c0,-115.559 220.703,-209.231 492.969,-209.231c272.252,0 492.968,93.672 492.968,209.231Z" style="fill:#fff;fill-rule:nonzero;"/><path d="M1042.24,380c0,81.562 -132.461,147.708 -295.899,147.708c-163.437,0 -295.924,-66.146 -295.924,-147.708c0,-81.601 132.487,-147.773 295.924,-147.773c163.438,0 295.899,66.172 295.899,147.773Z" style="fill:#fff;fill-rule:nonzero;"/><path d="M1181.2,261.51c0,12.8 -20.82,23.217 -46.498,23.217c-25.69,0 -46.523,-10.417 -46.523,-23.217c0,-12.812 20.833,-23.229 46.523,-23.229c25.678,0 46.498,10.417 46.498,23.229Z" style="fill:#fff;fill-rule:nonzero;"/><path d="M1108.62,198.008c0,8.242 -13.373,14.922 -29.857,14.922c-16.497,0 -29.87,-6.68 -29.87,-14.922c0,-8.229 13.373,-14.922 29.87,-14.922c16.484,0 29.857,6.693 29.857,14.922Z" style="fill:#fff;fill-rule:nonzero;"/><path d="M1030.13,129.232c0,6.627 -10.755,12.018 -24.049,12.018c-13.295,0 -24.05,-5.391 -24.05,-12.018c0,-6.628 10.755,-12.031 24.05,-12.031c13.294,0 24.049,5.403 24.049,12.031Z" style="fill:#fff;fill-rule:nonzero;"/><path d="M1132.69,333.125c0,6.628 -10.768,12.018 -24.075,12.018c-13.256,0 -24.024,-5.39 -24.024,-12.018c0,-6.615 10.768,-12.018 24.024,-12.018c13.307,0 24.075,5.403 24.075,12.018Z" style="fill:#fff;fill-rule:nonzero;"/><path d="M612.617,134.388c0,63.19 -102.63,114.44 -229.245,114.44c-126.588,0 -229.231,-51.25 -229.231,-114.44c0,-63.19 102.643,-114.453 229.231,-114.453c126.615,0 229.245,51.263 229.245,114.453Z" style="fill:#fff;fill-rule:nonzero;"/><path d="M981.94,257.487c4.089,85.404 -139.336,161.719 -320.325,170.312c-181.029,8.698 -331.042,-53.489 -335.169,-138.893c-4.102,-85.442 139.322,-161.77 320.338,-170.416c180.989,-8.698 331.068,53.554 335.156,138.997Z" style="fill:#f7f7ed;fill-rule:nonzero;"/><path d="M923.203,243.633c0,-92.63 -141.198,-167.682 -315.404,-167.682c-174.231,0 -315.442,75.052 -315.442,167.682c0,92.565 141.211,144.909 315.442,144.909c174.206,0 315.404,-52.344 315.404,-144.909Z" style="fill:#ffbf00;fill-rule:nonzero;"/><path d="M824.466,204.818c0,-56.888 -63.919,-128.867 -216.667,-128.867c-174.231,0 -315.442,75.052 -315.442,167.682c0,70.859 180.755,89.492 252.838,89.492c154.245,0 279.271,-46.315 279.271,-128.307Z" style="fill:#ffd500;fill-rule:nonzero;"/><path d="M657.969,163.333c7.344,46.198 -60.899,95.469 -152.448,110.013c-91.563,14.558 -171.693,-11.08 -179.075,-57.304c-7.331,-46.198 60.885,-95.443 152.421,-110c91.576,-14.558 171.732,11.067 179.102,57.291Z" style="fill:#ffe83d;fill-rule:nonzero;"/><path d="M475.794,147.175c-4.388,-13.959 -27.63,-19.128 -51.914,-11.576c-24.284,7.63 -40.429,25.117 -36.145,39.076c4.427,13.932 27.656,19.101 51.926,11.51c24.271,-7.578 40.482,-25.026 36.133,-39.01Z" style="fill:#fff;fill-rule:nonzero;"/><path d="M518.555,211.745c-3.321,-10.456 -17.774,-15.261 -32.253,-10.729c-14.57,4.518 -23.711,16.731 -20.442,27.213c3.294,10.443 17.76,15.261 32.265,10.729c14.57,-4.531 23.672,-16.718 20.43,-27.213Z" style="fill:#fff;fill-rule:nonzero;"/><path d="M817.031,477.669c0,12.8 -20.82,23.242 -46.523,23.242c-25.677,0 -46.484,-10.442 -46.484,-23.242c0,-12.812 20.807,-23.229 46.484,-23.229c25.703,0 46.523,10.417 46.523,23.229Z" style="fill:#f7f7ed;fill-rule:nonzero;"/><path d="M149.831,267.083c0,7.227 -11.771,13.125 -26.289,13.125c-14.506,0 -26.289,-5.898 -26.289,-13.125c0,-7.239 11.783,-13.112 26.289,-13.112c14.518,0 26.289,5.873 26.289,13.112Z" style="fill:#f7f7ed;fill-rule:nonzero;"/><path d="M268.672,366.849c0,7.227 -11.771,13.125 -26.302,13.125c-14.505,0 -26.289,-5.898 -26.289,-13.125c0,-7.24 11.784,-13.125 26.289,-13.125c14.531,0 26.302,5.885 26.302,13.125Z" style="fill:#f7f7ed;fill-rule:nonzero;"/><path d="M393.164,89.088c0,7.214 -11.758,13.1 -26.289,13.1c-14.505,0 -26.276,-5.886 -26.276,-13.1c0,-7.265 11.771,-13.137 26.276,-13.137c14.531,0 26.289,5.872 26.289,13.137Z" style="fill:#f7f7ed;fill-rule:nonzero;"/><path d="M304.948,70.599c0,5.247 -8.568,9.557 -19.141,9.557c-10.56,0 -19.088,-4.31 -19.088,-9.557c0,-5.274 8.528,-9.557 19.088,-9.557c10.573,0 19.141,4.283 19.141,9.557Z" style="fill:#f7f7ed;fill-rule:nonzero;"/><path d="M203.099,325.677c0,10.352 -16.875,18.763 -37.63,18.763c-20.768,0 -37.631,-8.411 -37.631,-18.763c0,-10.39 16.863,-18.789 37.631,-18.789c20.755,0 37.63,8.399 37.63,18.789Z" style="fill:#f7f7ed;fill-rule:nonzero;"/><path d="M340.599,129.323c0,15.065 -24.505,27.305 -54.792,27.305c-30.247,0 -54.752,-12.24 -54.752,-27.305c0,-15.13 24.505,-27.37 54.752,-27.37c30.287,0 54.792,12.24 54.792,27.37Z" style="fill:#f7f7ed;fill-rule:nonzero;"/></g></svg>