<?xml version="1.0" encoding="UTF-8" standalone="no"?><!DOCTYPE svg PUBLIC "-//W3C//DTD SVG 1.1//EN" "http://www.w3.org/Graphics/SVG/1.1/DTD/svg11.dtd"><svg width="100%" height="100%" viewBox="0 0 1779 811" version="1.1" xmlns="http://www.w3.org/2000/svg" xmlns:xlink="http://www.w3.org/1999/xlink" xml:space="preserve" xmlns:serif="http://www.serif.com/" style="fill-rule:evenodd;clip-rule:evenodd;stroke-linejoin:round;stroke-miterlimit:2;"><rect id="Artboard1" x="0" y="0" width="1778.29" height="810.639" style="fill:none;"/><g><path d="M1592.47,59.662c-69.41,13.872 -126.128,5.434 -151.771,-1.25c-58.194,-15.156 -123.576,-10.59 -194.792,-19.201c-58.749,-7.119 -104.34,10.26 -169.808,7.065c-60.001,-2.933 -139.376,-26.684 -203.456,-26.684c-71.354,0 -91.996,41.129 -153.854,46.112c-71.614,5.781 -182.899,-23.82 -242.083,-12.066c-64.896,12.899 -115.903,87.778 -166.268,106.857c-55.347,20.99 -108.558,-13.177 -146.909,14.063c-45.99,32.708 -44.479,75.208 -66.979,114.774c-22.5,39.566 -68.959,76.198 -68.959,120.347c0,54.462 40.435,55.174 66.528,95.99c29.184,45.59 46.84,129.653 99.531,160.625c52.014,30.538 90.018,-16.51 155.712,2.24c67.518,19.288 163.021,103.975 235.226,113.385c62.17,8.055 104.636,-40.625 163.368,-38.056c104.114,4.549 180.017,55.4 228.472,50.851c57.795,-5.399 101.927,-65.677 163.663,-80.035c88.733,-20.625 195.504,-0.225 276.702,-40.451c80.469,-39.931 84.913,-136.372 160.034,-168.559c51.025,-21.875 133.768,-101.354 148.247,-175c3.767,-19.063 -23.333,-81.181 46.198,-133.698c-65.347,-117.622 -87.5,-128.819 -178.802,-137.309Z" style="fill:#aae614;fill-rule:nonzero;"/><path d="M653.89,593.863c35.225,-71.336 77.031,-137.812 118.368,-186.579c-170.243,26.024 -336.389,164.843 -426.615,260.381l3.715,0.869c66.806,19.01 160.938,102.031 232.882,112.899c22.188,-84.74 56.337,-115.33 190.018,-252.24c-54.897,23.82 -82.101,45.903 -118.368,64.67Z" style="fill:#8ccc00;fill-rule:nonzero;"/><path d="M1344.76,695.721c22.327,-3.524 43.82,-9.097 63.924,-17.917c-42.1,-53.593 -81.059,-137.673 -112.743,-214.271c-6.423,84.48 16.823,163.976 48.819,232.188Z" style="fill:#8ccc00;fill-rule:nonzero;"/><path d="M1249.38,39.558c56.128,41.25 122.83,75.972 199.167,87.587c-35.365,-25.209 -72.275,-52.848 -105.591,-81.077c-29.878,-1.58 -61.094,-2.743 -93.576,-6.51Z" style="fill:#8ccc00;fill-rule:nonzero;"/><path d="M1491.72,330.669c-17.032,55.903 19.426,158.003 49.93,198.524l0.035,-0.034c9.948,-9.462 21.337,-17.587 35.138,-23.49c15.973,-6.858 35.07,-19.375 54.219,-35.573c-42.986,-21.007 -105.312,-95.677 -139.322,-139.427Z" style="fill:#8ccc00;fill-rule:nonzero;"/><path d="M1083.39,199.402c-17.049,-41.302 -36.475,-70.469 -43.767,-102.066c17.014,21.857 77.968,53.472 98.524,60.764c-15.885,-29.167 -49.896,-70.521 -62.048,-111.824c-60.001,-2.933 -139.376,-26.684 -203.456,-26.684c50.313,53.438 111.077,136.077 210.747,179.81Z" style="fill:#8ccc00;fill-rule:nonzero;"/><path d="M335.834,488.047c-29.896,-0.798 -58.906,2.188 -86.997,7.761c28.49,-28.108 57.188,-53.039 84.566,-73.143c-89.6,-7.43 -185.208,15.348 -271.857,48.993c10.92,9.011 22.743,18.681 32.569,34.011c18.056,28.229 31.736,71.215 52.032,107.205c26.319,-34.323 23.663,-46.476 189.687,-124.827Z" style="fill:#8ccc00;fill-rule:nonzero;"/><path d="M1241.36,372.006c-106.962,97.205 -106.927,226.041 -101.268,342.673c56.945,-13.212 121.32,-9.635 181.58,-15.937c-67.934,-108.333 -77.864,-244.115 -80.312,-326.736Z" style="fill:#8ccc00;fill-rule:nonzero;"/><path d="M1011.7,486.172c-23.108,25 -41.892,52.414 -57.344,80.972c-0.278,-59.878 9.149,-121.753 41.528,-185.434c-80.225,46.199 -216.32,245.487 -247.934,362.153c104.114,4.549 180.017,55.4 228.472,50.851c-4.6,-79.288 -6.632,-116.441 35.278,-308.542Z" style="fill:#8ccc00;fill-rule:nonzero;"/><path d="M772.258,260.2c-34.063,-41.337 -104.532,-102.1 -123.993,-141.007c36.492,26.754 97.256,75.382 123.993,87.5c-12.17,-31.58 -38.872,-63.229 -53.473,-140.989c-71.614,5.781 -182.899,-23.82 -242.083,-12.066c57.326,80.139 144.861,177.395 295.556,206.562Z" style="fill:#8ccc00;fill-rule:nonzero;"/><path d="M526.754,303.95c-87.517,-38.906 -184.792,-87.76 -233.386,-138.68c-46.024,9.097 -89.6,-12.067 -123.229,5.312l0,0.035c81.962,60.416 210.782,140.625 356.615,133.333Z" style="fill:#8ccc00;fill-rule:nonzero;"/><path d="M196.094,667.544c15.278,8.316 29.392,10.191 43.403,9.01c13.177,-38.212 28.924,-77.239 44.653,-113.941c-36.424,30.521 -65.121,66.65 -88.056,104.931Z" style="fill:#9bd90a;fill-rule:nonzero;"/><path d="M611.685,216.902c-60.608,-46.493 -125.695,-100.608 -167.483,-151.511c-18.594,9.462 -36.076,22.795 -52.847,36.702c59.114,51.579 132.795,98.316 220.33,114.809Z" style="fill:#9bd90a;fill-rule:nonzero;"/><path d="M116.199,242.388c-5.73,15.59 -10.886,31.51 -19.653,46.944c-2.309,4.063 -4.896,8.073 -7.604,12.066c75.138,25.382 162.343,40.694 250.677,21.858c-78.421,-20.712 -164.722,-47.362 -223.42,-80.868Z" style="fill:#9bd90a;fill-rule:nonzero;"/><path d="M618.265,781.068c22.083,-3.837 42.221,-13.229 62.517,-21.666c13.958,-42.396 31.545,-86.302 49.114,-127.223c-50.173,42.014 -85.798,94.601 -111.631,148.889Z" style="fill:#9bd90a;fill-rule:nonzero;"/><path d="M1426.89,423.499c-26.667,84.375 -20.59,170.746 -3.316,246.857c21.319,-12.1 37.24,-28.246 50.538,-46.041c-21.215,-58.594 -36.111,-132.778 -47.222,-200.816Z" style="fill:#9bd90a;fill-rule:nonzero;"/><path d="M1566.44,109.506c-17.709,-13.594 -35.834,-27.882 -53.664,-42.518c-31.944,-0.399 -57.291,-4.739 -72.083,-8.576c-3.576,-0.92 -7.24,-1.562 -10.868,-2.361c40.955,24.531 86.476,43.993 136.615,53.455Z" style="fill:#9bd90a;fill-rule:nonzero;"/><path d="M1042.87,543.325c-24.548,77.656 -21.388,157.066 -7.292,228.524c17.275,-10.59 34.289,-23.159 52.206,-34.131c-20.035,-57.518 -34.202,-128.803 -44.914,-194.393Z" style="fill:#9bd90a;fill-rule:nonzero;"/><path d="M488.768,742.648c43.559,-74.774 93.108,-150.347 141.615,-220.764c-85.417,46.667 -158.212,107.101 -220.365,174.288c25.417,14.323 52.187,31.285 78.75,46.476Z" style="fill:#aae614;fill-rule:nonzero;"/><path d="M815.14,753.186c35.243,7.882 66.354,19.132 93.264,28.004c-9.289,-71.771 -15.678,-145.07 -10.417,-215.33c-36.302,60.191 -63.16,123.281 -82.847,187.326Z" style="fill:#9bd90a;fill-rule:nonzero;"/><path d="M1174.53,708.759c23.75,-3.038 48.281,-4.375 72.934,-5.434c-18.75,-49.548 -34.896,-99.948 -44.531,-150.469c-14.879,51.962 -23.959,104.15 -28.403,155.903Z" style="fill:#aae614;fill-rule:nonzero;"/><path d="M214.271,473.968c-38.906,13.072 -76.007,29.027 -111.423,47.17c8.75,16.84 16.892,36.545 25.781,56.302c26.441,-36.858 54.688,-72.101 85.642,-103.472Z" style="fill:#aae614;fill-rule:nonzero;"/><path d="M575.365,55.391c-26.736,-2.969 -52.344,-5.156 -74.097,-4.392c41.059,41.597 85.781,79.878 134.514,113.003c-22.17,-34.114 -41.927,-70.885 -60.417,-108.611Z" style="fill:#9bd90a;fill-rule:nonzero;"/><path d="M972.379,31.242c-21.406,-3.802 -42.812,-7.24 -63.524,-9.41c33.802,31.823 69.878,61.406 108.524,87.674c-16.163,-24.879 -30.903,-51.302 -45,-78.264Z" style="fill:#9bd90a;fill-rule:nonzero;"/><path d="M1122.59,45.461c56.268,46.163 124.688,86.423 204.653,101.51c-43.906,-33.663 -90.139,-71.337 -128.194,-108.854c-25.209,1.423 -49.618,5.312 -76.459,7.344Z" style="fill:#9bd90a;fill-rule:nonzero;"/><path d="M743.264,61.467c67.344,49.653 151.528,94.237 248.039,101.598c-64.601,-39.08 -134.341,-85.087 -181.528,-130.556c-22.587,9.636 -41.302,22.205 -66.511,28.958Z" style="fill:#9bd90a;fill-rule:nonzero;"/><path d="M1656.89,445.756c11.094,-11.459 21.632,-23.906 31.094,-36.962c-35.052,-31.719 -70.226,-68.386 -102.274,-103.576c14.704,52.934 40.451,99.67 71.18,140.538Z" style="fill:#9bd90a;fill-rule:nonzero;"/><path d="M1576.82,501.589c-75.121,30.851 -79.565,123.368 -160.034,161.615c-81.198,38.593 -187.969,18.993 -276.702,38.767c-61.736,13.75 -105.868,71.545 -163.663,76.736c-48.455,4.34 -124.358,-44.375 -228.472,-48.75c-58.732,-2.465 -101.198,44.202 -163.368,36.459c-72.205,-8.976 -167.708,-90.192 -235.226,-108.716c-65.694,-17.934 -103.698,27.17 -155.712,-2.118c-52.691,-29.687 -70.347,-110.295 -99.531,-153.993c-26.059,-39.097 -66.51,-39.809 -66.528,-91.944l0,0.034c0,54.462 40.435,55.174 66.528,95.99c29.184,45.59 46.84,129.653 99.531,160.625c52.014,30.538 90.018,-16.51 155.712,2.24c67.518,19.288 163.021,103.975 235.226,113.385c62.17,8.055 104.636,-40.625 163.368,-38.056c104.114,4.549 180.017,55.4 228.472,50.851c57.795,-5.399 101.927,-65.677 163.663,-80.035c88.733,-20.625 195.504,-0.225 276.702,-40.451c80.469,-39.931 84.913,-136.372 160.034,-168.559c33.16,-14.236 79.688,-52.865 112.205,-98.351c-32.517,43.611 -79.045,80.643 -112.205,94.271Z" style="fill:#aae614;fill-rule:nonzero;"/><path d="M1650.64,68.412c-205.278,55.573 -965.486,260.312 -1196.82,286.562c561.476,29.185 1225.05,-121.527 1317.45,-158.003c-48.681,-87.639 -73.438,-116.163 -120.625,-128.559Z" style="fill:#bbf230;fill-rule:nonzero;"/><path d="M1760.07,177.231c-29.809,-51.84 -50.868,-79.479 -76.423,-95.104c-198.698,54.705 -692.987,193.108 -840.903,223.091c292.187,-0.712 748.246,-86.546 917.326,-127.987Z" style="fill:#dbff80;fill-rule:nonzero;"/><path d="M560.157,441.902c80.833,-9.271 -23.195,-54.324 -73.49,-60.192c-30.677,-3.559 -58.229,-11.666 -74.392,14.48c-27.361,44.184 -54.028,115.486 -28.577,133.003c25.469,17.483 98.438,-78.368 176.459,-87.291Z" style="fill:#9bd90a;fill-rule:nonzero;"/><path d="M811.737,429.922c5.173,-27.309 9.01,-48.819 55.573,-48.212c46.527,0.591 58.732,-0.763 12.517,48.212c-46.198,49.011 -80.833,67.674 -68.09,0Z" style="fill:#9bd90a;fill-rule:nonzero;"/><path d="M1122.59,372.006c39.167,-4.48 41.007,10.173 8.195,55.816c-32.83,45.642 -54.687,56.892 -61.997,-4.323c-7.291,-61.25 16.407,-47.257 53.802,-51.493Z" style="fill:#9bd90a;fill-rule:nonzero;"/><path d="M1348.96,338.551c30.451,-3.125 98.871,-17.587 59.722,43.159c-39.097,60.764 -65.642,55.278 -87.014,15.191c-21.354,-40.121 -21.979,-53.246 27.292,-58.35Z" style="fill:#9bd90a;fill-rule:nonzero;"/><path d="M536.493,252.874c16.424,23.698 30.469,56.51 81.772,41.927c51.284,-14.583 41.302,-20.052 -6.58,-41.927c-47.848,-21.875 -92.118,-24.341 -75.192,0Z" style="fill:#9bd90a;fill-rule:nonzero;"/><path d="M831.806,193.655c21.528,32.674 29.514,50.504 67.621,40.278c38.126,-10.226 58.508,-21.146 0,-48.507c-58.506,-27.344 -91.18,-27.466 -67.621,8.229Z" style="fill:#9bd90a;fill-rule:nonzero;"/></g></svg>