<?xml version="1.0" encoding="UTF-8" standalone="no"?><!DOCTYPE svg PUBLIC "-//W3C//DTD SVG 1.1//EN" "http://www.w3.org/Graphics/SVG/1.1/DTD/svg11.dtd"><svg width="100%" height="100%" viewBox="0 0 898 398" version="1.1" xmlns="http://www.w3.org/2000/svg" xmlns:xlink="http://www.w3.org/1999/xlink" xml:space="preserve" xmlns:serif="http://www.serif.com/" style="fill-rule:evenodd;clip-rule:evenodd;stroke-linejoin:round;stroke-miterlimit:2;"><g><path d="M869.441,206.447c-22.252,-3.75 -40.977,-0.208 -59.075,13.62c-16.251,12.422 -28.959,27.37 -25.391,48.828c4.713,28.216 48.568,7.773 61.588,11.953c22.787,7.005 44.493,-6.341 50.052,-26.549c5.196,-18.842 -6.223,-44.349 -27.174,-47.852Zm-275.208,131.393c0.481,-0.286 37.682,-15.416 62.252,-34.375c64.284,-49.648 75.912,22.005 55.339,30.104c-68.945,27.136 -129.61,102.006 -165.534,40.664c-16.341,-27.89 -1.497,-80.533 12.201,-105.924c15.377,-28.425 37.096,-56.445 55.963,-85.443c-51.823,-15.442 -94.935,64.518 -170.872,130.586c-192.279,167.37 -326.224,63.555 -144.258,-116.146c24.87,-24.557 51.588,-48.138 73.528,-74.765c-56.796,31.588 -110.703,74.817 -165.677,103.281c-45.221,23.398 -128.58,72.5 -180.559,40.104c-51.563,-32.122 -20.209,-83.021 26.315,-125.794c37.903,-34.87 36.328,-98.711 104.687,-93.828c14.948,1.067 33.607,26.979 24.531,41.901c-24.895,40.963 -78.151,82.656 -102.044,113.554c45.521,-13.723 147.305,-72.747 197.005,-107.695c42.266,-29.752 73.698,-71.64 118.138,-87.083c49.336,-17.136 109.115,-3.711 98.177,51.25c-24.231,121.706 -154.374,174.258 -204.075,276.588c83.203,-9.739 153.633,-101.797 208.711,-156.054c174.687,-172.175 255.169,-97.409 243.464,-43.672c-13.868,63.633 -134.271,192.331 -147.292,202.747Z" style="fill:#e6bb00;fill-rule:nonzero;"/><path d="M871.043,237.827c1.874,-6.81 0.325,-15.534 -3.959,-22.239c-2.343,-3.672 -6.458,-8.256 -12.812,-9.323c-3.06,-0.508 -5.821,-0.586 -8.659,-0.782c-12.461,1.368 -23.985,5.964 -35.247,14.584c-12.448,9.518 -22.761,20.547 -25.313,34.817c0.508,1.875 1.875,3.204 8.946,3.204c5.442,0 11.848,-1.016 18.02,-2.006c6.029,-0.95 11.732,-1.862 16.771,-1.862c3.333,0 6.198,0.404 8.581,1.159c2.825,0.886 5.69,1.315 8.502,1.315c11.758,0 22.123,-7.76 25.17,-18.867Z" style="fill:#ffe366;fill-rule:nonzero;"/><path d="M568.464,371.72c16.485,0 39.141,-14.218 63.139,-29.283c19.804,-12.422 40.273,-25.287 61.796,-33.633c1.303,-1.328 2.943,-8.308 0.066,-15.183c-1.576,-3.776 -3.763,-5.599 -5.964,-6.536c-8.555,1.94 -18.828,6.966 -31.016,16.38c-24.57,18.959 -61.771,34.089 -62.252,34.375c1.588,-1.263 4.831,-4.362 9.244,-8.841c-6.354,3.034 -12.187,5.664 -16.849,7.656c13.62,-7.148 -35.208,4.063 14.896,-51.341c39.48,-43.62 105.039,-123.711 114.258,-166.015c2.344,-10.756 -0.468,-22.396 -7.5,-31.133c-5.456,-6.771 -15.768,-14.636 -34.154,-16.055c-40.559,2.956 -99.179,30.859 -176.067,106.654c-54.206,53.385 -123.32,143.242 -204.805,155.351c-50.26,17.422 -51.406,-20.286 67.044,-134.661c48.451,-46.771 94.232,-90.977 107.331,-156.797c2.396,-11.992 0.729,-21.576 -4.961,-28.49c-6.653,-8.112 -19.375,-12.877 -35.065,-13.802c-10.729,0.768 -21.771,2.943 -32.357,6.615c-44.44,15.443 -75.872,57.331 -118.138,87.083c-129.739,91.224 -193.398,109.688 -222.838,113.373c-25.573,3.19 -17.474,-5.808 42.773,-69.519c21.211,-22.448 46.862,-46.302 60.964,-69.492c0.885,-1.471 0.703,-5.247 -1.784,-10.091c-3.815,-7.37 -9.805,-11.549 -12.253,-11.953c-54.596,4.193 -55.872,61.393 -91.041,93.75c-26.732,24.583 -48.373,51.836 -52.214,76.68c1.719,9.505 8.073,17.76 19.753,25.039c9.466,5.885 20.612,8.763 34.075,8.763c61.068,-0.026 169.531,-69.076 219.961,-102.735c88.438,-59.062 195.873,-114.479 93.268,-19.609c-20.937,24.271 -45.403,46.276 -68.45,69.036c-56.81,56.12 -82.826,104.831 -85.899,140.196c0.495,4.31 1.446,8.19 2.839,11.601c7.735,18.815 27.969,22.774 43.581,22.774l0.013,0c43.724,-0.013 102.838,-29.636 162.161,-81.263c23.75,-20.677 44.675,-43.217 63.138,-63.099c39.662,-42.748 196.524,-156.12 128.477,-44.805l0.82,0.156c-18.867,28.998 -40.586,57.018 -55.963,85.443c-8.868,16.445 -18.086,44.297 -19.128,69.479c0.951,6.445 2.5,12.344 5.13,16.836c8.88,15.156 17.474,17.096 23.971,17.096Z" style="fill:#ffe366;fill-rule:nonzero;"/><path d="M125.379,79.142c-6.941,8.112 -15.691,12.019 -19.532,8.737c-3.841,-3.294 -1.328,-12.539 5.612,-20.638c6.953,-8.112 15.69,-12.018 19.519,-8.737c3.841,3.295 1.341,12.539 -5.599,20.638Z" style="fill:#fff;fill-rule:nonzero;"/><path d="M392.918,46.108c-9.714,6.237 -19.987,7.539 -22.93,2.956c-2.956,-4.609 2.526,-13.398 12.253,-19.622c9.7,-6.237 19.987,-7.539 22.929,-2.956c2.956,4.622 -2.526,13.398 -12.252,19.622Z" style="fill:#fff;fill-rule:nonzero;"/><path d="M655.665,103.049c-10.898,3.789 -21.185,2.669 -22.982,-2.474c-1.783,-5.17 5.586,-12.435 16.498,-16.224c10.885,-3.789 21.172,-2.683 22.981,2.474c1.797,5.169 -5.585,12.447 -16.497,16.224Z" style="fill:#fff;fill-rule:nonzero;"/><path d="M839.584,234.676c-10.898,3.789 -21.185,2.682 -22.981,-2.474c-1.784,-5.156 5.585,-12.435 16.497,-16.224c10.885,-3.789 21.172,-2.669 22.982,2.474c1.796,5.182 -5.586,12.448 -16.498,16.224Z" style="fill:#fff;fill-rule:nonzero;"/><path d="M683.23,311.968c-7.825,2.721 -15.195,1.914 -16.497,-1.784c-1.276,-3.698 4.01,-8.906 11.836,-11.628c7.812,-2.708 15.182,-1.914 16.484,1.771c1.276,3.724 -4.023,8.932 -11.823,11.641Z" style="fill:#fff;fill-rule:nonzero;"/><path d="M577.397,281.629c-4.154,5.508 -9.623,8.373 -12.24,6.42c-2.604,-1.954 -1.367,-8.021 2.774,-13.542c4.14,-5.495 9.622,-8.373 12.239,-6.406c2.617,1.966 1.367,8.02 -2.773,13.528Z" style="fill:#fff;fill-rule:nonzero;"/><path d="M562.839,316.278c-2.07,5.403 -6.888,8.58 -10.768,7.109c-3.867,-1.471 -5.325,-7.096 -3.255,-12.513c2.083,-5.391 6.914,-8.568 10.768,-7.083c3.894,1.484 5.352,7.07 3.255,12.487Z" style="fill:#fff;fill-rule:nonzero;"/><path d="M251.095,288.569c-4.141,5.508 -9.61,8.386 -12.227,6.42c-2.617,-1.954 -1.38,-8.021 2.774,-13.542c4.14,-5.495 9.622,-8.359 12.226,-6.406c2.617,1.966 1.367,8.021 -2.773,13.528Z" style="fill:#fff;fill-rule:nonzero;"/><path d="M236.55,323.218c-2.07,5.403 -6.887,8.581 -10.768,7.109c-3.867,-1.471 -5.325,-7.096 -3.255,-12.513c2.083,-5.39 6.901,-8.568 10.768,-7.083c3.894,1.497 5.339,7.07 3.255,12.487Z" style="fill:#fff;fill-rule:nonzero;"/><path d="M39.207,177.111c-4.154,5.495 -9.623,8.372 -12.24,6.419c-2.604,-1.966 -1.367,-8.021 2.774,-13.541c4.14,-5.495 9.622,-8.373 12.239,-6.407c2.617,1.967 1.367,8.021 -2.773,13.529Z" style="fill:#fff;fill-rule:nonzero;"/><path d="M24.65,211.759c-2.071,5.404 -6.889,8.581 -10.769,7.11c-3.867,-1.485 -5.325,-7.097 -3.255,-12.513c2.083,-5.391 6.914,-8.581 10.768,-7.084c3.893,1.485 5.352,7.071 3.256,12.487Z" style="fill:#fff;fill-rule:nonzero;"/></g></svg>