<?xml version="1.0" encoding="UTF-8" standalone="no"?><!DOCTYPE svg PUBLIC "-//W3C//DTD SVG 1.1//EN" "http://www.w3.org/Graphics/SVG/1.1/DTD/svg11.dtd"><svg width="100%" height="100%" viewBox="0 0 1063 539" version="1.1" xmlns="http://www.w3.org/2000/svg" xmlns:xlink="http://www.w3.org/1999/xlink" xml:space="preserve" xmlns:serif="http://www.serif.com/" style="fill-rule:evenodd;clip-rule:evenodd;stroke-linejoin:round;stroke-miterlimit:2;"><g><path d="M314.271,276.503c-89.076,-2.76 -162.956,-29.101 -181.758,-64.232c21.224,-33.698 96.406,-55.234 185.169,-52.487c89.076,2.774 162.943,29.102 181.732,64.219c-21.211,33.724 -96.38,55.261 -185.143,52.5Zm317.643,-67.226c2.266,-73.698 -137.018,-137.813 -311.107,-143.23c-174.127,-5.39 -317.135,49.974 -319.427,123.646c-0.208,7.123 -1.172,31.888 -1.328,37.318c-2.669,85.976 97.748,172.396 309.232,178.958c211.367,6.55 318.62,-73.047 321.289,-159.388c0.156,-5.208 1.094,-29.948 1.341,-37.304Z" style="fill:#d22d96;fill-rule:nonzero;"/><path d="M283.399,348.639c4.023,-24.284 6.809,-48.79 8.893,-73.334c-79.05,-6.029 -142.566,-30.833 -159.779,-63.034c19.61,-31.172 85.378,-51.901 165.352,-52.669c0,-14.948 -0.43,-29.883 -1.472,-44.779c-1.029,-14.609 -1.914,-32.473 -5.729,-49.075c-160.195,1.445 -287.122,54.57 -289.284,123.945c-0.208,7.123 -1.172,31.888 -1.328,37.318c-2.513,80.69 85.912,161.667 271.55,176.745c4.557,-18.295 8.737,-36.628 11.797,-55.117Z" style="fill:#ff39be;fill-rule:nonzero;"/><path d="M122.838,371.178c-4.14,-1.706 -8.163,-3.438 -12.083,-5.222l0,-0.039c3.92,1.784 7.943,3.516 12.083,5.195l0,0.066Z" style="fill:#ad0858;fill-rule:nonzero;"/><path d="M122.838,371.112c-4.14,-1.679 -8.163,-3.411 -12.083,-5.195l1.341,-37.2c3.92,1.784 7.956,3.515 12.084,5.208l-1.342,37.187Zm3.607,-100.039c-4.231,-2.565 -8.229,-5.208 -11.979,-7.903l0.013,-0.378c3.75,2.708 7.747,5.365 11.979,7.943l-0.013,0.338Z" style="fill:#d20a70;fill-rule:nonzero;"/><path d="M51.758,329.485c-2.865,-2.435 -5.625,-4.883 -8.216,-7.396l1.341,-37.213c2.617,2.5 5.351,4.96 8.216,7.382l-1.341,37.227Z" style="fill:#d20a70;fill-rule:nonzero;"/><path d="M9.414,274.732c-0.391,-0.885 -0.755,-1.771 -1.12,-2.656c0.365,0.885 0.729,1.758 1.12,2.643l0,0.013Z" style="fill:#ad0858;fill-rule:nonzero;"/><path d="M9.414,274.719c-0.391,-0.885 -0.755,-1.758 -1.12,-2.643c-0.846,-2.096 -1.614,-4.206 -2.33,-6.341l1.341,-37.201c1.015,2.982 2.161,5.951 3.45,8.893l-1.341,37.292Z" style="fill:#d20a70;fill-rule:nonzero;"/><path d="M507.669,379.472l1.342,-37.253c4.075,-1.497 8.033,-3.047 11.901,-4.648l-1.341,37.252c-3.881,1.602 -7.826,3.138 -11.902,4.649Z" style="fill:#ad0858;fill-rule:nonzero;"/><path d="M420.547,266.959l0,-0.013c2.682,-0.638 5.325,-1.302 7.904,-1.992l0.013,0c-2.592,0.703 -5.235,1.367 -7.917,2.005Zm10.521,-2.735c1.445,-0.403 2.865,-0.807 4.27,-1.236l0,0.012c-1.405,0.417 -2.825,0.834 -4.27,1.224Z" style="fill:#d22d96;fill-rule:nonzero;"/><path d="M415.703,401.256l1.341,-37.292c4.987,-0.651 9.909,-1.354 14.727,-2.122l-1.341,37.265c-4.831,0.781 -9.727,1.498 -14.727,2.149Zm3.32,-92.097l0,-0.234c5.053,-0.898 9.974,-1.875 14.753,-2.93l0,0.248c-4.791,1.054 -9.714,2.018 -14.753,2.916Zm1.524,-42.187l0,-0.013c2.682,-0.638 5.325,-1.302 7.917,-2.005l0.013,0.013c-2.591,0.69 -5.235,1.367 -7.93,2.005Z" style="fill:#ad0858;fill-rule:nonzero;"/><path d="M329.466,276.738c-4.323,0 -8.698,-0.053 -13.099,-0.17c4.532,0.117 8.998,0.17 13.464,0.17l-0.365,0Zm-15.195,-0.235c-0.326,-0.013 -0.651,-0.013 -0.977,-0.026l0,-0.013l0.977,0.039Z" style="fill:#d22d96;fill-rule:nonzero;"/><path d="M325.169,406.269c-5.247,-0.078 -10.52,-0.143 -15.885,-0.3l-0.651,-0.039l1.341,-37.292c0.221,0 0.43,0.013 0.651,0.013c5.365,0.17 10.651,0.287 15.886,0.339l-1.342,37.279Zm3.243,-90.013c-5.261,-0.026 -10.599,-0.131 -16.029,-0.287c-0.169,-0.013 -0.339,-0.013 -0.508,-0.026l0.013,-0.195c0.169,0 0.326,0.013 0.495,0.013c5.43,0.169 10.768,0.26 16.029,0.299l0,0.196Zm1.054,-39.518c-4.349,0 -8.737,-0.053 -13.177,-0.17l0.078,0c4.401,0.117 8.776,0.17 13.099,0.17l0.365,0l-0.365,0Zm-13.281,-0.17c0,0 -0.013,0 -0.013,-0.013c0,0.013 0.013,0.013 0.013,0.013Zm-1.914,-0.065c-0.326,-0.013 -0.651,-0.013 -0.977,-0.026c0.326,0.013 0.651,0.013 0.977,0.026Z" style="fill:#ad0858;fill-rule:nonzero;"/><path d="M320.807,66.047c-87.76,-2.708 -167.539,10 -225.469,32.709l-4.27,118.724l45.924,1.666c-1.718,-2.252 -3.242,-4.531 -4.479,-6.875c21.224,-33.698 96.406,-55.234 185.169,-52.487c89.076,2.774 162.943,29.102 181.732,64.219c-1.731,2.76 -3.867,5.417 -6.289,7.995l79.909,2.891l3.75,-104.193c-56.016,-36.029 -149.453,-61.341 -255.977,-64.649Z" style="fill:#ffe7fd;fill-rule:nonzero;"/><path d="M136.992,219.146l-0.065,0c-3.529,-4.635 -6.094,-9.44 -7.565,-14.401c-1.08,-3.646 -1.588,-7.357 -1.471,-11.106c0.104,-3.477 0.742,-6.889 1.875,-10.209c12.461,-36.458 84.947,-61.185 174.114,-61.185c5,0 10.053,0.078 15.157,0.235c18.372,0.573 36.093,2.148 52.825,4.583c0.026,9.766 1.823,20.091 5.274,30.768c-7.696,1.407 -15.248,2.904 -22.683,4.505c-11.875,-1.289 -24.167,-2.148 -36.771,-2.552c-5.091,-0.156 -10.143,-0.234 -15.143,-0.234c-82.07,0 -150.026,20.95 -170.026,52.721c1.237,2.344 2.761,4.623 4.479,6.875Zm-43.515,-68.646l0.026,-0.52c37.122,-32.917 115.885,-54.844 208.098,-54.844c6.042,0 12.149,0.091 18.282,0.286c19.57,0.612 38.581,2.162 56.771,4.558c-0.013,0.078 -0.039,0.143 -0.052,0.208c-18.191,-2.396 -37.175,-3.958 -56.745,-4.557c-6.107,-0.196 -12.162,-0.287 -18.177,-0.287c-92.435,0 -171.341,22.058 -208.203,55.156Zm423.242,-6.119c-5,-3.112 -10.378,-6.107 -16.094,-8.998c0.039,-0.091 0.078,-0.169 0.117,-0.26c5.886,2.969 11.407,6.054 16.55,9.245c-0.066,0 -0.143,0.013 -0.222,0.013l-0.351,0Zm-131.328,-73.503c-20.821,-2.5 -42.422,-4.141 -64.584,-4.831c22.162,0.69 43.763,2.331 64.584,4.818l0,0.013Z" style="fill:#f2c6ee;fill-rule:nonzero;"/><path d="M320.261,83.808c-150.964,-4.675 -274.923,43.333 -276.915,107.2c-2.356,76.12 80.04,140.052 268.321,145.886c188.216,5.846 275.898,-52.409 278.281,-128.92c1.966,-63.893 -118.776,-119.466 -269.687,-124.166Zm311.653,125.469c-2.669,86.341 -109.935,165.911 -321.289,159.374c-211.484,-6.549 -311.901,-92.968 -309.245,-178.958c2.292,-73.672 145.3,-129.036 319.427,-123.646c174.089,5.417 313.373,69.532 311.107,143.23Z" style="fill:#cb2e97;fill-rule:nonzero;"/><path d="M319.883,95.422c-135.808,-4.218 -247.344,38.959 -249.128,96.433c-1.784,57.356 80.964,119.127 241.628,124.114c160.677,4.974 248.359,-51.224 250.13,-108.854c1.81,-57.474 -106.862,-107.487 -242.63,-111.693Zm304.701,113.633c-2.605,84.609 -106.381,158.255 -313.685,151.836c-207.461,-6.419 -304.818,-86.706 -302.201,-170.937c2.239,-71.993 141.927,-126.081 311.992,-120.808c170.052,5.274 306.133,67.904 303.894,139.909Z" style="fill:#ffe7fd;fill-rule:nonzero;"/><path d="M320.482,76.451c-160.573,-4.987 -292.461,46.055 -294.558,114.024c-2.474,80.221 87.592,147.669 285.521,153.789c197.839,6.132 293.399,-55.157 295.912,-135.743c2.122,-67.968 -126.328,-127.096 -286.875,-132.07Zm304.102,132.604c-2.605,84.609 -106.381,158.255 -313.685,151.836c-207.461,-6.419 -304.818,-86.706 -302.201,-170.937c2.239,-71.993 141.927,-126.081 311.992,-120.808c170.052,5.274 306.133,67.904 303.894,139.909Z" style="fill:#ffd9f0;fill-rule:nonzero;"/><path d="M319.362,112.336c-117.487,-3.632 -213.893,30.834 -215.456,80.56c-1.51,49.597 66.875,95.912 209.232,100.326c142.383,4.401 214.675,-37.279 216.224,-87.123c1.523,-49.713 -92.513,-90.13 -210,-93.763Zm242.669,94.766c-1.758,57.461 -89.245,113.633 -249.648,108.659c-160.391,-4.974 -242.878,-66.628 -241.12,-123.88c1.771,-57.37 113.073,-100.456 248.594,-96.25c135.534,4.205 243.958,54.114 242.174,111.471Z" style="fill:#cb2e97;fill-rule:nonzero;"/><path d="M319.037,122.48c-104.245,-3.229 -189.766,27.031 -191.146,71.159c-1.367,44.127 82.122,79.648 186.38,82.864c104.231,3.242 189.792,-27.031 191.133,-71.146c1.38,-44.14 -82.11,-79.648 -186.367,-82.877Zm234.01,84.362c-1.706,55.364 -84.974,108.112 -240.404,103.294c-155.442,-4.805 -234.114,-62.813 -232.396,-117.982c1.719,-55.247 108.933,-96.784 239.506,-92.721c130.56,4.049 235,52.148 233.294,107.409Z" style="fill:#fff2fe;fill-rule:nonzero;"/><path d="M319.922,119.862c-104.245,-3.229 -190.651,29.649 -192.031,73.777c-1.367,44.127 83.19,83.242 187.448,86.471c104.244,3.242 195.859,-29.662 196.81,-73.802c1.093,-48.998 -87.969,-83.19 -192.227,-86.446Zm233.125,86.98c-1.706,55.364 -84.974,108.112 -240.404,103.294c-155.442,-4.805 -234.114,-62.813 -232.396,-117.982c1.719,-55.247 108.933,-96.784 239.506,-92.721c130.56,4.049 235,52.148 233.294,107.409Z" style="fill:#ffe7fd;fill-rule:nonzero;"/><path d="M319.492,107.909c-123.268,-3.841 -224.401,32.474 -226.028,84.662c-1.602,52.057 71.406,100.495 219.557,105.052c148.125,4.609 225.195,-38.906 226.81,-91.211c1.628,-52.162 -97.084,-94.688 -220.339,-98.503Zm233.555,98.933c-1.706,55.364 -84.974,108.112 -240.404,103.294c-155.442,-4.805 -234.114,-62.813 -232.396,-117.982c1.719,-55.247 108.933,-96.784 239.506,-92.721c130.56,4.049 235,52.148 233.294,107.409Z" style="fill:#ffd9f0;fill-rule:nonzero;"/><path d="M275.052,401.542c-0.859,-0.43 -1.719,-0.859 -2.578,-1.302c0.456,-1.862 0.911,-3.737 1.367,-5.599c0.378,2.305 0.781,4.596 1.211,6.901Z" style="fill:#c7278d;fill-rule:nonzero;"/><path d="M272.474,400.24c-23.281,-11.927 -41.94,-25.547 -54.844,-40.365l0.013,-0.169c16.758,2.865 34.505,5.117 53.268,6.693c0.391,9.31 1.394,18.763 2.93,28.242c-0.456,1.862 -0.911,3.737 -1.367,5.599Z" style="fill:#f231b3;fill-rule:nonzero;"/><path d="M217.63,359.875c-0.052,-0.065 -0.117,-0.13 -0.182,-0.195c0.065,0 0.13,0.013 0.195,0.026l-0.013,0.169Z" style="fill:#c70969;fill-rule:nonzero;"/><path d="M272.591,313.443c-18.971,-1.836 -36.64,-4.544 -52.995,-7.968l0.013,-0.222c16.342,3.438 34.024,6.146 53.008,7.995c-0.013,0.065 -0.026,0.13 -0.026,0.195Z" style="fill:#f231b3;fill-rule:nonzero;"/><path d="M219.596,305.475c-1.757,-0.365 -3.489,-0.743 -5.221,-1.133c0.052,-0.066 0.091,-0.118 0.143,-0.183c1.68,0.378 3.373,0.743 5.091,1.094l-0.013,0.222Z" style="fill:#c70969;fill-rule:nonzero;"/><path d="M270.911,366.399c-18.763,-1.576 -36.51,-3.828 -53.268,-6.693c-0.065,-0.013 -0.13,-0.026 -0.195,-0.026c-2.513,-2.903 -4.792,-5.846 -6.862,-8.841c18.698,3.385 38.75,6.016 60.13,7.786c0,0.482 0.013,0.964 0.013,1.433c0.026,2.109 0.091,4.218 0.182,6.341Z" style="fill:#c1288e;fill-rule:nonzero;"/><path d="M270.716,342.037c-25.195,-2.018 -48.346,-5.143 -69.518,-9.232c-0.312,-0.859 -0.612,-1.732 -0.899,-2.604c1.42,-4.466 3.334,-8.88 5.717,-13.19l0,-0.104c2.344,-4.258 5.13,-8.451 8.359,-12.565c1.732,0.39 3.464,0.768 5.221,1.133c16.355,3.424 34.024,6.132 52.995,7.968c-1.25,9.727 -1.732,19.558 -1.875,28.594Z" style="fill:#f2c6ee;fill-rule:nonzero;"/><path d="M270.716,358.625c-21.38,-1.77 -41.432,-4.401 -60.13,-7.786c-1.667,-2.422 -3.203,-4.883 -4.57,-7.37l0,-0.091c-1.185,-2.148 -2.266,-4.323 -3.216,-6.51c-0.573,-1.355 -1.107,-2.709 -1.602,-4.063c21.172,4.089 44.323,7.214 69.518,9.232c-0.104,5.95 -0.052,11.562 0,16.588Z" style="fill:#f2bae2;fill-rule:nonzero;"/><path d="M272.617,313.248c-18.984,-1.849 -36.666,-4.557 -53.008,-7.995c-1.718,-0.351 -3.411,-0.716 -5.091,-1.094c1.302,-1.64 2.657,-3.268 4.089,-4.883c16.771,3.633 35.039,6.485 54.817,8.399c-0.299,1.849 -0.572,3.711 -0.807,5.573Z" style="fill:#c1288e;fill-rule:nonzero;"/><path d="M284.18,274.641c-10.651,-1.003 -21.003,-2.344 -30.951,-3.997c0,-0.013 0.013,-0.013 0.013,-0.013c9.961,1.653 20.287,2.994 30.938,4.01Z" style="fill:#f231b3;fill-rule:nonzero;"/><path d="M282.435,277.857c-11.328,-1.211 -22.305,-2.851 -32.825,-4.856c1.184,-0.795 2.395,-1.576 3.619,-2.357c9.948,1.653 20.3,2.994 30.951,3.997c-0.612,1.042 -1.185,2.123 -1.745,3.216Z" style="fill:#f2d0ef;fill-rule:nonzero;"/><path d="M275.977,295.461c-16.953,-1.497 -32.722,-3.632 -47.305,-6.315c6.172,-5.586 13.164,-10.976 20.938,-16.145c10.52,2.005 21.497,3.645 32.825,4.856c-2.734,5.391 -4.844,11.354 -6.458,17.604Z" style="fill:#f2c6ee;fill-rule:nonzero;"/><path d="M273.424,307.675c-19.778,-1.914 -38.046,-4.766 -54.817,-8.399c3.06,-3.437 6.419,-6.822 10.065,-10.13c14.583,2.683 30.352,4.818 47.305,6.315c-1.042,3.972 -1.875,8.073 -2.553,12.214Z" style="fill:#f2bae2;fill-rule:nonzero;"/><path d="M500.625,135.383c-13.034,-6.588 -27.839,-12.552 -44.063,-17.747c-0.012,-0.091 -0.012,-0.169 -0.025,-0.261c16.276,5.196 31.119,11.159 44.205,17.748c-0.039,0.091 -0.078,0.169 -0.117,0.26Z" style="fill:#e6aae0;fill-rule:nonzero;"/><path d="M520.573,106.92c-12.865,-5.144 -26.719,-9.883 -41.38,-14.115c1.367,-0.82 2.773,-1.614 4.219,-2.396c14.218,4.141 27.669,8.711 40.26,13.685c-1.055,0.912 -2.083,1.862 -3.099,2.826Z" style="fill:#c1288e;fill-rule:nonzero;"/><path d="M500.742,135.123c-13.086,-6.589 -27.929,-12.552 -44.205,-17.748c-0.027,-0.247 -0.052,-0.507 -0.079,-0.768l0.066,0.026l-0.274,-3.216c2.539,-3.646 5.56,-7.122 9.05,-10.364c1.575,-1.459 3.255,-2.865 5.012,-4.219c15.599,4.518 30.209,9.622 43.647,15.221c-5.3,6.354 -9.779,13.516 -13.217,21.068Z" style="fill:#f2c6ee;fill-rule:nonzero;"/><path d="M513.959,114.055c-13.438,-5.599 -28.048,-10.703 -43.647,-15.221c2.748,-2.123 5.717,-4.141 8.881,-6.029c14.661,4.232 28.515,8.971 41.38,14.115c-2.318,2.239 -4.531,4.622 -6.614,7.135Z" style="fill:#f2bae2;fill-rule:nonzero;"/><path d="M498.62,140.201c-12.149,-6.51 -26.003,-12.422 -41.302,-17.617c-0.326,-1.667 -0.573,-3.307 -0.756,-4.948c16.224,5.195 31.029,11.159 44.063,17.747c-0.716,1.589 -1.38,3.19 -2.005,4.818Z" style="fill:#c1288e;fill-rule:nonzero;"/><path d="M466.419,146.62c-2.643,-4.765 -4.791,-9.518 -6.432,-14.218c10.729,3.919 20.599,8.216 29.466,12.851c-7.747,0.365 -15.43,0.82 -23.034,1.367Z" style="fill:#f2c6ee;fill-rule:nonzero;"/><path d="M489.453,145.253c-8.867,-4.635 -18.737,-8.932 -29.466,-12.851c-1.146,-3.295 -2.044,-6.576 -2.669,-9.818c15.299,5.195 29.153,11.107 41.302,17.617c-0.599,1.562 -1.159,3.138 -1.68,4.74c-2.513,0.091 -5,0.195 -7.487,0.312Z" style="fill:#f2bae2;fill-rule:nonzero;"/><path d="M552.474,358.586c-1.068,-11.471 -3.151,-22.63 -7.383,-32.382c0.287,-0.157 0.586,-0.313 0.872,-0.469c10.17,5.495 20.691,10.768 31.55,15.794c-7.552,6.003 -15.898,11.706 -25.039,17.057Z" style="fill:#c7278d;fill-rule:nonzero;"/><path d="M545.091,326.204c-0.182,-0.417 -0.365,-0.821 -0.547,-1.224c0.469,0.247 0.951,0.507 1.419,0.755c-0.286,0.156 -0.585,0.312 -0.872,0.469Z" style="fill:#c1288e;fill-rule:nonzero;"/><path d="M475.99,294.016c-0.13,-0.052 -0.261,-0.104 -0.391,-0.156c4.088,-1.524 8.034,-3.099 11.836,-4.753c0.091,0.065 0.182,0.13 0.273,0.209c-3.763,1.627 -7.669,3.19 -11.718,4.7Z" style="fill:#c7278d;fill-rule:nonzero;"/><path d="M502.747,299.758c-5.416,-0.625 -10.624,-1.185 -14.987,-2.174c-4.049,-0.912 -7.955,-2.123 -11.77,-3.568c4.049,-1.51 7.955,-3.073 11.718,-4.7c4.883,3.528 9.896,7.005 15.039,10.442Z" style="fill:#f2c6ee;fill-rule:nonzero;"/><path d="M475.599,293.86c-2.656,-1.016 -5.26,-2.162 -7.825,-3.398c4.895,-1.732 9.57,-3.555 14.049,-5.469c1.849,1.38 3.724,2.747 5.612,4.114c-3.802,1.654 -7.748,3.229 -11.836,4.753Z" style="fill:#c1288e;fill-rule:nonzero;"/><path d="M428.451,264.954c0.885,-0.248 1.757,-0.482 2.617,-0.73c-0.86,0.248 -1.732,0.495 -2.617,0.73Zm6.875,-1.94l0.012,-0.014c4.871,-1.458 9.558,-3.02 14.011,-4.687l0.013,0.013c-4.466,1.667 -9.141,3.229 -14.036,4.688Z" style="fill:#f2dbf0;fill-rule:nonzero;"/><path d="M435.326,263.026l0,-0.012c4.895,-1.459 9.57,-3.021 14.036,-4.688l0.013,0.013c-4.466,1.667 -9.154,3.229 -14.049,4.687Z" style="fill:#c7278d;fill-rule:nonzero;"/><path d="M428.464,264.954l-0.013,0c0.885,-0.235 1.757,-0.482 2.617,-0.73c1.445,-0.39 2.865,-0.807 4.27,-1.224l-0.012,0.014c-2.24,0.677 -4.532,1.315 -6.862,1.94Z" style="fill:#c7278d;fill-rule:nonzero;"/><path d="M428.477,264.967l-0.013,-0.013c2.33,-0.625 4.622,-1.263 6.862,-1.94l0,0.012c-2.24,0.665 -4.519,1.316 -6.849,1.941Z" style="fill:#a40753;fill-rule:nonzero;"/><path d="M432.005,267.532c-1.185,-0.86 -2.356,-1.719 -3.528,-2.565c2.33,-0.625 4.609,-1.276 6.849,-1.941c4.895,-1.458 9.583,-3.02 14.049,-4.687c0.99,0.898 1.979,1.784 2.982,2.682c-6.393,2.357 -13.19,4.532 -20.352,6.511Z" style="fill:#f2d0ef;fill-rule:nonzero;"/><path d="M454.544,283.131c-7.721,-4.805 -15.143,-10.222 -22.539,-15.599c7.162,-1.979 13.959,-4.154 20.352,-6.511c6.185,5.495 12.669,10.925 19.453,16.276c-5.43,2.084 -11.185,4.024 -17.266,5.834Z" style="fill:#f2c6ee;fill-rule:nonzero;"/><path d="M467.774,290.462c-4.532,-2.175 -8.92,-4.662 -13.23,-7.331c6.081,-1.81 11.836,-3.75 17.266,-5.834c3.268,2.591 6.602,5.144 10.013,7.696c-4.479,1.914 -9.154,3.737 -14.049,5.469Z" style="fill:#f2bae2;fill-rule:nonzero;"/><path d="M630.495,248.326l0,-0.026l0,0.026Zm0.013,-0.208l0,-0.065l0,0.065Zm0.013,-0.196l0,-0.117l0,0.117Zm0,-0.182c0.026,-0.378 0.039,-0.768 0.052,-1.159c0.143,-4.453 0.833,-23.242 1.198,-33.164c-0.365,9.922 -1.055,28.711 -1.198,33.164c-0.013,0.391 -0.026,0.781 -0.052,1.159Z" style="fill:#f2dbf0;fill-rule:nonzero;"/><path d="M628.659,263.626c-1.992,-0.808 -3.984,-1.615 -5.964,-2.435l0.456,-12.592c4.87,-11.432 7.722,-23.229 8.555,-35.182l0.065,0c-0.365,9.922 -1.055,28.711 -1.198,33.164c-0.013,0.391 -0.026,0.781 -0.052,1.159l0,0.182c0,0.039 0,0.091 -0.013,0.131l0,0.065c0,0.065 0,0.13 -0.013,0.182l0,0.026c-0.235,5.13 -0.847,10.234 -1.836,15.3Zm-8.802,-3.607c-0.625,-0.274 -1.25,-0.534 -1.862,-0.795c0.703,-1.289 1.38,-2.578 2.031,-3.88l-0.169,4.675Z" style="fill:#c7278d;fill-rule:nonzero;"/><path d="M622.695,261.191c-0.95,-0.391 -1.888,-0.782 -2.838,-1.172l0.169,-4.675c1.12,-2.226 2.161,-4.479 3.125,-6.745l-0.456,12.592Z" style="fill:#a40753;fill-rule:nonzero;"/><path d="M557.63,229.055c-0.13,-0.078 -0.26,-0.156 -0.39,-0.234c2.903,-6.979 4.505,-14.115 4.778,-21.263c0.157,0 0.326,0 0.482,0.013c-0.273,7.226 -1.914,14.427 -4.87,21.484Z" style="fill:#e6aae0;fill-rule:nonzero;"/><path d="M617.995,259.224c-2.136,-0.898 -4.245,-1.809 -6.341,-2.721c7.552,-14.023 11.797,-28.828 12.76,-44.023c2.448,0.299 4.87,0.612 7.292,0.937c-0.833,11.953 -3.685,23.75 -8.555,35.182c-0.964,2.266 -2.005,4.519 -3.125,6.745c-0.651,1.302 -1.328,2.591 -2.031,3.88Z" style="fill:#c1288e;fill-rule:nonzero;"/><path d="M596.94,249.81c-1.328,-0.638 -2.656,-1.263 -3.984,-1.901l0.013,-0.026c-2.891,-1.393 -5.756,-2.799 -8.581,-4.218c-3.112,-1.576 -6.185,-3.165 -9.219,-4.766c0.013,-0.013 0.027,-0.013 0.039,-0.013c-6.041,-3.216 -11.901,-6.498 -17.578,-9.831c2.956,-7.057 4.597,-14.258 4.87,-21.484c15.247,0.573 30.209,1.601 44.779,3.021c-0.704,13.737 -4.128,26.875 -10.339,39.218Z" style="fill:#f2c6ee;fill-rule:nonzero;"/><path d="M611.654,256.503c-5,-2.187 -9.896,-4.427 -14.714,-6.693c6.211,-12.343 9.635,-25.481 10.339,-39.218c5.768,0.572 11.484,1.198 17.135,1.888c-0.963,15.195 -5.208,30 -12.76,44.023Z" style="fill:#f2bae2;fill-rule:nonzero;"/><path d="M557.24,228.821c-2.539,-1.485 -5.04,-2.995 -7.487,-4.505c1.953,-5.612 3.047,-11.316 3.268,-17.045c3.021,0.078 6.003,0.17 8.997,0.287c-0.273,7.148 -1.875,14.284 -4.778,21.263Z" style="fill:#c1288e;fill-rule:nonzero;"/><path d="M538.425,217.076c-4.975,-3.307 -9.766,-6.654 -14.35,-10.026c1.485,-0.013 2.97,-0.026 4.467,-0.039l4.036,0c2.409,0 4.831,0 7.227,0.026c-0.143,3.385 -0.599,6.732 -1.38,10.039Z" style="fill:#f2c6ee;fill-rule:nonzero;"/><path d="M549.753,224.316c-3.881,-2.396 -7.657,-4.805 -11.328,-7.24c0.781,-3.307 1.237,-6.654 1.38,-10.039c4.427,0.039 8.841,0.117 13.216,0.234c-0.221,5.729 -1.315,11.433 -3.268,17.045Z" style="fill:#f2bae2;fill-rule:nonzero;"/><path d="M689.792,284.55c-133.269,-38.229 -231.368,-111.693 -233.542,-171.133c2.539,-3.646 5.56,-7.122 9.05,-10.364c43.099,-39.714 156.536,-45.651 279.388,-10.417c133.294,38.242 231.406,111.68 233.58,171.146c-33.841,48.828 -155.612,58.88 -288.476,20.768Zm370.195,-14.622c22.656,-79.037 -110.326,-186.563 -297.07,-240.144c-186.758,-53.567 -356.55,-32.903 -379.193,46.12c-1.497,5.182 -7.643,26.016 -9.193,31.367c-22.695,79.037 101.953,212.526 288.698,266.12c186.758,53.581 364.922,6.953 387.591,-72.096c1.472,-5.169 7.617,-26.016 9.167,-31.367Z" style="fill:#d22d96;fill-rule:nonzero;"/><path d="M648.789,285.774c2.149,-4.05 4.245,-8.138 6.38,-12.227c-115.286,-40.182 -196.927,-105.963 -198.919,-160.13c2.539,-3.646 5.56,-7.122 9.05,-10.364c41.132,-37.891 146.328,-45.013 262.63,-14.948c5.677,-21.094 10.794,-42.305 15.56,-63.607c-178.972,-46.745 -337.904,-24.87 -359.766,51.406c-1.497,5.182 -7.643,26.016 -9.193,31.367c-20.351,70.912 77.93,185.625 233.204,247.175c14.44,-22.331 28.45,-44.974 41.054,-68.672Z" style="fill:#ff39be;fill-rule:nonzero;"/><path d="M1034.08,330.631l9.193,-31.459c1.901,-2.122 3.672,-4.297 5.3,-6.51l-9.154,31.341c-1.64,2.24 -3.424,4.44 -5.339,6.628Z" style="fill:#ad0858;fill-rule:nonzero;"/><path d="M1038.57,189.771c-0.182,-0.26 -0.365,-0.507 -0.56,-0.768c0.195,0.261 0.378,0.508 0.573,0.755l-0.013,0.013Z" style="fill:#d22d96;fill-rule:nonzero;"/><path d="M977.005,369.094l9.531,-32.591c3.607,-1.484 7.097,-3.021 10.482,-4.622l-9.466,32.395c-3.411,1.654 -6.94,3.269 -10.547,4.818Z" style="fill:#ad0858;fill-rule:nonzero;"/><path d="M374.935,149.927c-0.729,-2.955 -1.328,-5.911 -1.81,-8.776l9.193,-31.458c0.482,2.852 1.106,5.742 1.849,8.659l-9.232,31.575Z" style="fill:#d20a70;fill-rule:nonzero;"/><path d="M567.044,336.542c-5.195,-2.539 -10.312,-5.117 -15.325,-7.747l0.013,-0.039c5.013,2.643 10.13,5.234 15.312,7.76l0,0.026Z" style="fill:#ad0858;fill-rule:nonzero;"/><path d="M592.956,247.909c-2.878,-1.406 -5.755,-2.812 -8.568,-4.244c2.825,1.419 5.69,2.825 8.581,4.218l-0.013,0.026Z" style="fill:#c7238c;fill-rule:nonzero;"/><path d="M567.044,336.516c-5.182,-2.526 -10.299,-5.117 -15.312,-7.76l10.299,-35.248c5.039,2.592 10.17,5.13 15.365,7.618l-10.352,35.39Zm25.912,-88.581c-5.235,-2.526 -10.365,-5.104 -15.365,-7.734c2.24,1.172 4.506,2.318 6.797,3.464c2.813,1.432 5.69,2.838 8.568,4.244l0,0.026Z" style="fill:#d20a70;fill-rule:nonzero;"/><path d="M791.12,395.422c-1.927,-0.117 -3.854,-0.247 -5.794,-0.377c1.94,0.13 3.867,0.26 5.794,0.364l0,0.013Zm34.492,-87.994c-5.521,-0.222 -11.146,-0.534 -16.849,-0.964l0,-0.013c5.729,0.43 11.315,0.716 16.862,0.951l-0.013,0.026Z" style="fill:#d22d96;fill-rule:nonzero;"/><path d="M791.12,395.409c-1.927,-0.104 -3.854,-0.234 -5.794,-0.364c-0.795,-0.065 -1.589,-0.117 -2.383,-0.183l10.299,-35.273c5.638,0.456 11.237,0.846 16.771,1.146l-8.359,28.594c-3.386,2.07 -6.901,4.101 -10.534,6.08Zm34.492,-87.969c-5.521,-0.221 -11.146,-0.546 -16.849,-0.976c5.703,0.43 11.328,0.742 16.849,0.964l0,0.012Z" style="fill:#ad0858;fill-rule:nonzero;"/><path d="M473.75,278.795c-3.958,-3.086 -7.825,-6.224 -11.601,-9.349l0.013,-0.039c3.763,3.151 7.63,6.276 11.588,9.362l0,0.026Z" style="fill:#ad0858;fill-rule:nonzero;"/><path d="M473.75,278.769c-3.958,-3.086 -7.825,-6.211 -11.588,-9.362l0.012,-0.052c3.763,3.151 7.631,6.289 11.589,9.388l-0.013,0.026Z" style="fill:#d20a70;fill-rule:nonzero;"/><path d="M708.255,289.563c-5.69,-1.458 -11.419,-3.008 -17.174,-4.635c-0.039,-0.014 -0.078,-0.026 -0.117,-0.04c-0.17,-0.052 -0.339,-0.091 -0.521,-0.143c-0.026,-0.013 -0.065,-0.026 -0.091,-0.026l0,-0.013c6.002,1.706 11.979,3.308 17.916,4.805l-0.013,0.052Z" style="fill:#d22d96;fill-rule:nonzero;"/><path d="M682.253,378.495c-5.964,-1.51 -11.927,-3.099 -17.904,-4.804l10.469,-35.821c5.989,1.706 11.953,3.308 17.904,4.818l-10.469,35.807Z" style="fill:#ad0858;fill-rule:nonzero;"/><path d="M1010.82,278.691l26.498,-90.573c-45.195,-60.43 -147.318,-121.862 -274.401,-158.334c-127.93,-36.679 -247.865,-38.554 -318.021,-10.69l-25.378,86.706l37.006,10.833l-0.274,-3.216c2.539,-3.646 5.56,-7.122 9.05,-10.364c43.099,-39.714 156.536,-45.651 279.388,-10.417c133.294,38.242 231.406,111.68 233.58,171.146c-1.028,1.471 -2.2,2.968 -3.385,4.414l35.937,10.495Z" style="fill:#ffe7fd;fill-rule:nonzero;"/><path d="M974.922,268.196l-0.039,0c1.185,-1.446 2.357,-2.943 3.385,-4.414c-2.174,-59.466 -100.286,-132.904 -233.58,-171.146c-5.6,-1.602 -11.185,-3.125 -16.745,-4.57c-48.776,-12.591 -95.573,-18.659 -136.537,-18.659c-56.719,0 -102.226,11.64 -126.106,33.646c-3.49,3.242 -6.511,6.718 -9.05,10.364l0.274,3.216l-0.066,-0.026l-0.052,-0.013c-0.156,-1.706 -0.234,-3.398 -0.247,-5.078c0,-4.87 0.638,-9.622 1.966,-14.258c0.026,-0.078 0.052,-0.156 0.078,-0.234c2.67,-9.154 7.917,-17.344 15.391,-24.505c23.633,-22.539 69.557,-34.479 126.992,-34.479c45.625,0 98.516,7.539 153.268,23.255c145.677,41.784 249.427,125.638 231.706,187.291c-2.044,7.162 -5.651,13.698 -10.638,19.61Zm-211.25,-238.19c-0.013,0 -0.013,0 -0.026,-0.013c0.013,0 0.013,0.013 0.026,0.013Z" style="fill:#f2c6ee;fill-rule:nonzero;"/><path d="M757.448,48.834c-161.901,-46.446 -309.076,-28.529 -328.737,39.974c-19.648,68.528 93.008,170.703 254.922,217.148c161.901,46.419 311.68,19.584 331.328,-48.945c19.662,-68.516 -95.612,-161.719 -257.513,-208.177Zm302.539,221.094c-22.669,79.049 -199.518,121.211 -386.276,67.63c-186.758,-53.568 -312.708,-182.604 -289.987,-261.654c22.643,-79.023 192.435,-99.687 379.193,-46.12c186.744,53.581 319.726,161.107 297.07,240.144Z" style="fill:#cb2e97;fill-rule:nonzero;"/><path d="M753.854,61.295c-145.638,-41.81 -278.06,-25.69 -295.729,35.963c-17.695,61.654 86.029,145.508 231.667,187.292c145.677,41.784 278.099,25.69 295.768,-35.964c17.721,-61.653 -86.029,-145.507 -231.706,-187.291Zm298.282,206.393c-22.136,77.214 -193.229,115.286 -375.665,62.943c-182.408,-52.318 -307.096,-175.261 -284.921,-252.461c22.135,-77.227 187.994,-97.396 370.403,-45.065c182.409,52.343 312.357,157.37 290.183,234.583Z" style="fill:#fff2fe;fill-rule:nonzero;"/><path d="M755.547,59.706c-145.664,-41.797 -279.753,-24.101 -297.422,37.552c-17.695,61.654 86.029,145.508 231.667,187.292c145.677,41.784 282.083,27.422 302.187,-33.542c21.042,-63.75 -90.781,-149.505 -236.432,-191.302Zm296.589,207.982c-22.136,77.214 -193.229,115.286 -375.665,62.943c-182.408,-52.318 -307.096,-175.261 -284.921,-252.461c22.135,-77.227 187.994,-97.396 370.403,-45.065c182.409,52.343 312.357,157.37 290.183,234.583Z" style="fill:#ffe7fd;fill-rule:nonzero;"/><path d="M759.714,40.93c-172.214,-49.401 -328.789,-30.377 -349.714,42.539c-20.885,72.891 97.826,185.469 270.039,234.883c172.214,49.388 332.721,16.914 353.646,-55.977c20.885,-72.877 -101.758,-172.031 -273.971,-221.445Zm292.422,226.758c-22.136,77.214 -193.229,115.286 -375.665,62.943c-182.408,-52.318 -307.096,-175.261 -284.921,-252.461c22.135,-77.227 187.994,-97.396 370.403,-45.065c182.409,52.343 312.357,157.37 290.183,234.583Z" style="fill:#ffd9f0;fill-rule:nonzero;"/><path d="M913.724,387.961c3.984,-10.599 6.419,-21.64 7.24,-33.112c20.325,-3.554 39.049,-8.463 55.781,-14.544c-0.612,9.935 -1.406,19.857 -2.266,29.792c-17.916,7.435 -38.359,13.463 -60.755,17.864Z" style="fill:#c7278d;fill-rule:nonzero;"/><path d="M920.586,298.6c-0.013,-0.014 -0.013,-0.04 -0.013,-0.053c8.815,-2.421 16.914,-5.299 24.18,-8.672c0,0.014 0.013,0.026 0.026,0.04c-3.932,1.822 -8.112,3.502 -12.5,5.052l0.013,-0.04c-3.75,1.329 -7.657,2.553 -11.706,3.673Z" style="fill:#f2dbf0;fill-rule:nonzero;"/><path d="M932.266,295.006l0.013,-0.039c4.388,-1.55 8.568,-3.23 12.5,-5.052c0.013,0 0.013,0.013 0.026,0.013c-3.946,1.835 -8.138,3.528 -12.539,5.078Z" style="fill:#c7278d;fill-rule:nonzero;"/><path d="M920.586,298.626l0,-0.026c4.049,-1.12 7.956,-2.344 11.706,-3.673l-0.013,0.04c-3.737,1.328 -7.644,2.539 -11.693,3.659Z" style="fill:#c7278d;fill-rule:nonzero;"/><path d="M920.586,298.652l0,-0.026c4.049,-1.12 7.956,-2.331 11.693,-3.659l-0.013,0.039c-3.737,1.315 -7.631,2.526 -11.68,3.646Z" style="fill:#a40753;fill-rule:nonzero;"/><path d="M920.964,354.849c0.156,-2.161 0.26,-4.349 0.286,-6.536c20.534,-3.607 39.31,-8.672 55.886,-15c-0.118,2.331 -0.248,4.661 -0.391,6.992c-16.732,6.081 -35.456,10.99 -55.781,14.544Z" style="fill:#c1288e;fill-rule:nonzero;"/><path d="M920.846,300.722c-0.078,-0.69 -0.169,-1.38 -0.26,-2.07c4.049,-1.12 7.943,-2.331 11.68,-3.646c4.401,-1.55 8.593,-3.243 12.539,-5.078c0.69,0.833 1.38,1.666 2.083,2.499c-7.878,3.256 -16.601,6.029 -26.042,8.295Z" style="fill:#f2d0ef;fill-rule:nonzero;"/><path d="M921.276,334.81c0.013,-9.375 0.026,-21.731 0,-26.614c-0.013,-2.513 -0.156,-5 -0.43,-7.474c9.441,-2.266 18.164,-5.039 26.042,-8.295c7.904,9.389 16.055,18.568 24.18,27.787c-14.636,6.081 -31.367,10.99 -49.792,14.596Z" style="fill:#f2c6ee;fill-rule:nonzero;"/><path d="M921.25,348.313c0.026,-0.924 0.026,-1.849 0.026,-2.773c-0.013,-1.81 -0.013,-5.873 0,-10.73c18.425,-3.606 35.156,-8.515 49.792,-14.596c2.122,2.409 4.244,4.831 6.354,7.24c-0.078,1.25 -0.13,2.487 -0.182,3.698c-0.039,0.716 -0.078,1.445 -0.104,2.161c-16.576,6.328 -35.352,11.393 -55.886,15Z" style="fill:#f2bae2;fill-rule:nonzero;"/><path d="M521.341,311.581c-5.156,-3.138 -10.195,-6.341 -15.13,-9.583c4.935,3.242 9.974,6.432 15.13,9.57l0,0.013Z" style="fill:#c7278d;fill-rule:nonzero;"/><path d="M521.341,311.568c-5.156,-3.138 -10.195,-6.328 -15.13,-9.57c-11.445,-7.513 -22.278,-15.3 -32.448,-23.255l9.987,-34.167c11.511,8.737 23.841,17.253 36.94,25.456c-0.351,4.192 0.43,8.698 0.716,13.385c0.547,9.375 0.3,18.737 -0.065,28.151Zm-59.167,-42.213c-3.593,-3.008 -7.083,-6.042 -10.494,-9.089c0.065,-14.779 -0.404,-29.7 -1.745,-44.206c6.927,6.524 14.323,12.995 22.174,19.362l-9.935,33.933Z" style="fill:#f231b3;fill-rule:nonzero;"/><path d="M473.763,278.743c-3.958,-3.099 -7.826,-6.237 -11.589,-9.388l9.935,-33.933c3.776,3.073 7.657,6.133 11.641,9.154l-9.987,34.167Z" style="fill:#c70969;fill-rule:nonzero;"/><path d="M557.63,229.081c-0.143,-0.078 -0.273,-0.156 -0.403,-0.234c0,0 0,-0.013 0.013,-0.026c0.13,0.078 0.26,0.156 0.39,0.234l0,0.026Z" style="fill:#da92d3;fill-rule:nonzero;"/><path d="M575.169,238.899c-6.028,-3.216 -11.888,-6.484 -17.539,-9.818l0,-0.026c5.677,3.333 11.537,6.615 17.578,9.831c-0.012,0 -0.026,0 -0.039,0.013Z" style="fill:#e6aae0;fill-rule:nonzero;"/><path d="M557.227,228.847c-2.539,-1.485 -5.027,-2.995 -7.487,-4.505c0,-0.013 0.013,-0.026 0.013,-0.026c2.447,1.51 4.948,3.02 7.487,4.505c-0.013,0.013 -0.013,0.026 -0.013,0.026Z" style="fill:#b72286;fill-rule:nonzero;"/><path d="M538.425,217.089c-4.987,-3.307 -9.779,-6.654 -14.375,-10.039l0.025,0c4.584,3.372 9.375,6.719 14.35,10.026l0,0.013Z" style="fill:#e6aae0;fill-rule:nonzero;"/><path d="M549.74,224.342c-3.868,-2.396 -7.644,-4.805 -11.315,-7.253l0,-0.013c3.671,2.435 7.447,4.844 11.328,7.24c0,0 -0.013,0.013 -0.013,0.026Z" style="fill:#e6a0d5;fill-rule:nonzero;"/><path d="M575.13,238.912c-18.945,-10.078 -36.12,-20.794 -51.146,-31.862l0.066,0c4.596,3.385 9.388,6.732 14.375,10.039c3.671,2.448 7.447,4.857 11.315,7.253c2.46,1.51 4.948,3.02 7.487,4.505c0.13,0.078 0.26,0.156 0.403,0.234c5.651,3.334 11.511,6.602 17.539,9.818c-0.013,0 -0.025,0 -0.039,0.013Z" style="fill:#f231b3;fill-rule:nonzero;"/><path d="M520.69,270.032c-13.099,-8.203 -25.429,-16.719 -36.94,-25.456c-3.984,-3.021 -7.865,-6.081 -11.641,-9.154c-7.851,-6.367 -15.247,-12.838 -22.174,-19.362c-0.143,-1.549 -0.299,-3.086 -0.469,-4.635c1.602,-0.169 3.19,-0.339 4.805,-0.508c19.258,18.073 42.318,35.703 68.555,52.109c-1.329,2.214 -1.927,4.558 -2.136,7.006Z" style="fill:#c1288e;fill-rule:nonzero;"/><path d="M533.49,254.589c-23.242,-14.31 -43.855,-29.596 -61.329,-45.273c3.295,-0.248 6.602,-0.482 9.923,-0.704c13.723,-0.885 27.695,-1.406 41.9,-1.562c15.026,11.068 32.201,21.784 51.146,31.862c-5.638,2.305 -11.224,4.726 -16.758,6.94c-6.705,2.695 -16.875,4.961 -24.882,8.737Z" style="fill:#f2c6ee;fill-rule:nonzero;"/><path d="M522.826,263.026c-26.237,-16.406 -49.297,-34.036 -68.555,-52.109c5.911,-0.599 11.875,-1.133 17.89,-1.601c17.474,15.677 38.087,30.963 61.329,45.273c-3.334,1.576 -6.289,3.399 -8.477,5.625c-0.886,0.911 -1.602,1.849 -2.187,2.812Z" style="fill:#f2bae2;fill-rule:nonzero;"/><path d="M858.203,327.506c-21.562,68.724 -160.13,122.343 -328.242,123.19c-168.633,0.846 -308.06,-51.693 -329.662,-120.495c21.563,-68.737 160.118,-122.344 328.243,-123.19c168.619,-0.847 308.06,51.68 329.661,120.495Zm63.073,-19.31c-0.456,-91.628 -176.354,-165.039 -392.878,-163.945c-216.497,1.093 -391.627,76.262 -391.171,167.903c0.039,6.771 -0.026,31.524 0,37.344c0.507,103.971 150.56,190.182 392.018,188.971c228.854,-1.146 392.63,-76.341 392.031,-192.929c-0.026,-5.287 0.052,-29.935 0,-37.344Z" style="fill:#d22d96;fill-rule:nonzero;"/><path d="M476.641,530.683c4.466,-26.836 8.164,-53.841 10.885,-80.951c-149.102,-7.304 -267.448,-56.601 -287.227,-119.531c19.558,-62.279 135.157,-112.162 281.785,-121.589c-1.485,-13.698 -3.034,-27.395 -4.61,-41.093c-0.833,-7.123 -1.992,-14.245 -3.346,-21.367c-190.729,12.135 -337.318,82.174 -336.901,166.002c0.039,6.771 -0.026,31.524 0,37.344c0.482,96.015 128.528,176.836 338.268,187.695c0.404,-2.161 0.781,-4.336 1.146,-6.51Z" style="fill:#ff39be;fill-rule:nonzero;"/><path d="M529.245,538.469c3.62,-0.013 7.227,-0.052 10.807,-0.104c-3.58,0.065 -7.174,0.104 -10.807,0.104Zm-1.029,-87.76l0,-0.039l1.745,0.026c-0.573,0 -1.159,0.013 -1.745,0.013Zm1.745,-0.013c6.302,-0.052 12.565,-0.17 18.776,-0.352l0,0.039c-6.211,0.183 -12.474,0.287 -18.776,0.313Z" style="fill:#d22d96;fill-rule:nonzero;"/><path d="M529.245,538.469l-1.029,0l0,-87.76c0.586,0 1.172,-0.013 1.745,-0.013c6.302,-0.026 12.565,-0.13 18.776,-0.313l0,87.8c-2.878,0.065 -5.781,0.13 -8.685,0.182c-3.58,0.052 -7.187,0.091 -10.807,0.104Zm-131.771,-9.01c-0.989,-0.143 -1.979,-0.3 -2.969,-0.443l0,-0.013c0.977,0.156 1.98,0.313 2.969,0.456Z" style="fill:#ad0858;fill-rule:nonzero;"/><path d="M660.886,438.665l0,-0.027c6.158,-1.132 12.2,-2.369 18.164,-3.684l0,0.026c-5.951,1.302 -12.019,2.539 -18.164,3.685Z" style="fill:#d22d96;fill-rule:nonzero;"/><path d="M660.886,528.678l0,-90.013c6.145,-1.146 12.213,-2.383 18.164,-3.685l0,90.69c-5.964,1.054 -12.019,2.057 -18.164,3.008Zm-364.805,-23.152c-5.183,-1.77 -10.26,-3.58 -15.222,-5.468c4.948,1.875 10.039,3.698 15.222,5.455l0,0.013Z" style="fill:#ad0858;fill-rule:nonzero;"/><path d="M774.024,404.042l0,-0.052c5.025,-2.344 9.921,-4.739 14.557,-7.226l0,0.026c-4.661,2.487 -9.518,4.908 -14.557,7.252Z" style="fill:#d22d96;fill-rule:nonzero;"/><path d="M774.024,500.852l0,-96.81c5.039,-2.344 9.896,-4.765 14.557,-7.252l0,98.463c-4.727,1.927 -9.571,3.789 -14.557,5.599Zm85.182,-44.401l0,-119.271l9.687,0l0,111.485c-3.112,2.643 -6.328,5.247 -9.687,7.786Z" style="fill:#ad0858;fill-rule:nonzero;"/><path d="M296.081,411.099c-5.078,-2.096 -9.987,-4.27 -14.74,-6.497l0.052,0c4.727,2.24 9.649,4.388 14.688,6.471l0,0.026Z" style="fill:#d22d96;fill-rule:nonzero;"/><path d="M281.393,404.602l-0.052,0c-0.156,-0.078 -0.312,-0.156 -0.482,-0.234l0,-0.013c0.183,0.078 0.352,0.156 0.534,0.247Z" style="fill:#ad0858;fill-rule:nonzero;"/><path d="M907.891,400.852l0,-135.273c1.328,2.096 2.5,4.166 3.619,6.263l0,121.328c-1.119,2.578 -2.304,5.143 -3.619,7.682Z" style="fill:#ad0858;fill-rule:nonzero;"/><path d="M206.016,343.469c-1.146,-2.083 -2.175,-4.166 -3.099,-6.289l0.026,0c-0.052,-0.104 -0.091,-0.208 -0.143,-0.312c0.95,2.187 2.031,4.362 3.216,6.51l0,0.091Z" style="fill:#c72185;fill-rule:nonzero;"/><path d="M200.299,330.201c1.407,-4.492 3.334,-8.932 5.717,-13.294l0,0.104c-2.383,4.31 -4.297,8.724 -5.717,13.19Z" style="fill:#c7238c;fill-rule:nonzero;"/><path d="M413.229,531.646c-5.312,-0.677 -10.573,-1.419 -15.755,-2.187c-0.989,-0.143 -1.992,-0.3 -2.969,-0.456l0,-89.844c6.146,1.146 12.396,2.175 18.724,3.164l0,89.323Zm-117.148,-26.133c-5.183,-1.757 -10.274,-3.58 -15.222,-5.455l0,-95.69c0.17,0.078 0.326,0.156 0.482,0.234c4.753,2.227 9.662,4.401 14.74,6.497l0,94.414Zm-90.065,-44.231c-3.659,-2.578 -7.188,-5.235 -10.56,-7.917l0,-116.185l7.461,0c0.924,2.123 1.953,4.206 3.099,6.289l0,117.813Zm-55.026,-59.31c-1.719,-3.203 -3.282,-6.459 -4.675,-9.74l0,-115.963c1.393,-2.722 2.969,-5.404 4.675,-8.073l0,133.776Zm49.309,-71.771c1.407,-4.505 3.321,-8.932 5.717,-13.307l0,0.013c-2.383,4.362 -4.31,8.802 -5.717,13.294Zm-4.843,-105.599l0,-0.065c3.372,-2.331 6.901,-4.596 10.56,-6.862l0,0.013c-3.646,2.266 -7.175,4.57 -10.56,6.914Z" style="fill:#d20a70;fill-rule:nonzero;"/><path d="M528.398,144.251c-146.223,0.742 -273.476,35.299 -340.612,85.885l0,107.044l15.157,0c-0.99,-2.304 -1.888,-4.635 -2.644,-6.979c21.563,-68.737 160.118,-122.344 328.243,-123.19c168.619,-0.847 308.06,51.68 329.661,120.495c-1.029,3.255 -2.409,6.471 -3.945,9.674l33.581,0l0,-95.547c-61.003,-58.086 -199.024,-98.19 -359.441,-97.382Z" style="fill:#ffe7fd;fill-rule:nonzero;"/><path d="M887.839,337.18l-33.581,0c1.536,-3.203 2.916,-6.419 3.945,-9.674c-17.33,-55.209 -110.521,-99.948 -233.789,-115.026c-5.651,-0.69 -11.367,-1.316 -17.135,-1.888c-17.578,-1.719 -35.717,-2.852 -54.258,-3.321c-4.375,-0.117 -8.789,-0.195 -13.216,-0.234c-2.396,-0.026 -4.818,-0.026 -7.227,-0.026l-4.036,0c-168.125,0.846 -306.68,54.453 -328.243,123.19c0.756,2.344 1.654,4.675 2.644,6.979l-15.157,0l0,-107.044c67.136,-50.586 194.389,-85.143 340.612,-85.885c1.602,-0.014 3.191,-0.014 4.792,-0.014c158.359,0 294.258,39.883 354.649,97.396l0,95.547Z" style="fill:#f2c6ee;fill-rule:nonzero;"/><path d="M528.516,166.334c-187.656,0.963 -339.506,66.107 -339.102,145.56c0.456,91.836 140.365,152.487 340.56,151.471c200.065,-1.016 339.557,-62.943 339.101,-154.909c-0.377,-79.427 -152.864,-143.047 -340.559,-142.122Zm392.76,141.862c0.599,116.601 -163.177,191.784 -392.031,192.942c-241.458,1.211 -391.511,-85.013 -392.018,-188.984c-0.456,-91.641 174.674,-166.81 391.171,-167.903c216.524,-1.094 392.422,72.317 392.878,163.945Z" style="fill:#cb2e97;fill-rule:nonzero;"/><path d="M528.542,169.667c-183.321,0.925 -331.628,64.584 -331.25,142.188c0.404,77.604 149.336,139.765 332.669,138.841c183.32,-0.938 331.628,-64.597 331.263,-142.188c-0.404,-77.617 -149.336,-139.752 -332.682,-138.841Zm383.632,138.568c0.573,114.492 -158.294,181.575 -382.096,182.695c-236.432,1.198 -383.242,-77.005 -383.763,-178.802c-0.443,-89.518 170.651,-162.956 382.11,-164.036c211.484,-1.055 383.307,70.651 383.749,160.143Z" style="fill:#ffe7fd;fill-rule:nonzero;"/><path d="M528.49,157.141c-199.662,1.016 -361.172,70.352 -360.743,154.883c0.482,96.875 150.105,161.588 362.279,160.521c212.031,-1.068 361.224,-67.162 360.755,-164.18c-0.443,-84.518 -162.656,-152.213 -362.291,-151.224Zm383.684,151.094c0.573,114.492 -158.294,181.575 -382.096,182.695c-236.432,1.198 -383.242,-77.005 -383.763,-178.802c-0.443,-89.518 170.651,-162.956 382.11,-164.036c211.484,-1.055 383.307,70.651 383.749,160.143Z" style="fill:#ffd9f0;fill-rule:nonzero;"/></g></svg>