<?xml version="1.0" encoding="UTF-8" standalone="no"?><!DOCTYPE svg PUBLIC "-//W3C//DTD SVG 1.1//EN" "http://www.w3.org/Graphics/SVG/1.1/DTD/svg11.dtd"><svg width="100%" height="100%" viewBox="0 0 868 469" version="1.1" xmlns="http://www.w3.org/2000/svg" xmlns:xlink="http://www.w3.org/1999/xlink" xml:space="preserve" xmlns:serif="http://www.serif.com/" style="fill-rule:evenodd;clip-rule:evenodd;stroke-linejoin:round;stroke-miterlimit:2;"><rect id="Artboard1" x="0" y="0" width="867.464" height="468.77" style="fill:none;"/><clipPath id="_clip1"><rect x="0" y="0" width="867.464" height="468.77"/></clipPath><g clip-path="url(#_clip1)"><g><path d="M787.173,184.238c-2.943,3.946 -15.221,-12.265 -20.378,-11.38c-6.536,-3.333 -13.372,-6.614 -20.52,-9.752c-78.334,-34.688 -190.495,-56.433 -315,-56.433c-148.217,0 -278.854,30.782 -355.912,77.565l-73.073,0c0,0 -0.351,5.065 -0.521,13.164c-0.156,8.164 3.672,28.034 0.274,31.25c-6.107,-2.89 3.437,29.284 3.294,36.211c-4.453,-2.903 9.818,33.242 10.182,31.433c11.628,22.669 16.094,26.302 22.683,31.51c3.034,2.005 2.434,-5 13.932,14.648c10,16.146 6.94,1.875 16.393,15.196c7.136,8.008 12.24,10.625 18.125,14.049c4.623,1.341 12.188,8.724 17.93,11.094c2.031,-5.938 17.5,17.747 20.69,12.747c6.484,2.578 12.253,2.67 21.94,10.847c1.94,-8.073 18.242,15.768 20.977,8.164c8.789,6.172 6.341,-13.763 23.203,9.218c9.635,6.732 17.864,9.506 24.232,7.279c14.049,15.3 17.226,5.117 26.028,7.031c9.948,4.44 18.073,4.037 27.539,5.834c-1.12,-18.776 23.333,19.713 23.724,3.281c5.781,-4.297 16.224,1.419 25.677,4.349c11.38,7.318 20.235,8.398 26.276,2.435c10.404,3.997 12.331,-11.784 27.722,2.318c9.388,0.533 26.354,17.721 28.737,1.224c7.877,-4.05 23.32,8.528 29.948,0.416c6.705,-0.898 14.361,0.547 21.041,-0.182c10.417,7.825 12.995,-2.031 20.456,-0.703c2.018,-11.003 15.755,4.674 19.974,-1.042c6.588,-0.417 10.976,-5.599 19.466,-1.458c5.183,-3.282 12.513,-1.602 18.919,-1.849c3.425,-7.031 12.956,0 18.386,-2.227c14.805,2.162 27.5,0.13 38.099,-6.041c6.484,-0.378 12.526,-1.537 18.398,-2.956c5.873,-1.459 13.685,1.706 17.201,-4.805c10.898,10.326 17.161,10.3 16.888,-4.375c7.578,3.073 8.437,-8.841 16.302,-4.778c5.052,-4.037 10.547,-6.797 16.341,-8.685c5.755,-1.927 11.823,-3.021 17.891,-3.802c13.541,1.497 18.919,-14.571 31.732,-12.943c13.723,3.75 14.947,-19.961 28.762,-14.206c4.193,-16.055 20.404,-3.945 25.209,-16.745c8.489,-4.362 13.815,-15.052 22.396,-17.395c4.101,-12.422 14.114,-10.521 19.739,-17.696c8.008,-1.666 12.474,-10.338 16.68,-18.646c-2.864,-24.31 12.383,-6.627 13.828,-19.166c5.846,-8.581 10.078,-18.633 10.755,-34.297c3.321,-9.662 -1.054,-34.271 3.451,-36.12c-1.003,-14.206 2.604,-15.247 -1.497,-30.781c-1.107,-8.789 -1.746,-13.529 -1.42,-12.8c-3.021,-6.797 -3.008,3.646 -11.445,0c-1.263,12.683 -16.719,-1.679 -25.131,0c-8.762,0.795 -13.476,10.821 -24.596,1.12c-3.659,7.214 -11.758,-0.677 -11.927,-1.12Z" style="fill:url(#_Radial2);"/><path d="M860.272,184.238c0,50.612 -46.38,83.321 -75.469,102.344c-35.911,23.476 -75.455,36.003 -114.687,45.716c-78.763,19.518 -158.763,27.565 -238.841,27.565c-236.915,0 -428.985,-78.646 -428.985,-175.625c0,-96.979 192.07,-175.638 428.985,-175.638c236.927,0 428.971,78.659 428.997,175.638Z" style="fill:#873827;fill-rule:nonzero;"/><path d="M754.973,160.084c-1.966,1.381 -3.985,2.865 -6.029,4.298l0.729,0.025c4.961,0.183 9.779,-0.703 14.453,-2.708c0.782,-9.531 -2.279,-10.078 -9.153,-1.615Z" style="fill:#9d5237;fill-rule:nonzero;"/><path d="M406.899,288.952l-1.328,-0.716c1.003,1.263 2.045,2.5 3.061,3.776l0.768,1.106l2.656,-0.716c2.643,-0.429 5.091,-0.963 7.5,-1.51c-4.154,-0.065 -9.544,-0.274 -12.657,-1.94Z" style="fill:#9d5237;fill-rule:nonzero;"/><path d="M171.04,83.913l2.123,0.443c6.406,2.526 13.645,2.994 20.716,1.627c-2.865,-5.755 -12.526,-4.935 -22.839,-2.07Z" style="fill:#9d5237;fill-rule:nonzero;"/><path d="M190.298,185.866c-1.367,2.63 -2.617,5.364 -3.984,8.034c-0.821,1.601 0.026,0.807 -2.227,-0.756c-6.706,-4.648 -12.852,-5.689 -20.273,-3.841c-15.365,3.841 -19.037,25.248 -13.633,41.446c5.612,16.718 23.841,3.112 19.609,-13.321c1.381,-0.599 1.68,-0.026 3.034,0.886c4.831,3.307 9.675,6.081 15.26,5.234c10.886,-1.654 15.847,-12.174 21.459,-22.956c8.164,-15.559 -11.159,-30.117 -19.245,-14.726Z" style="fill:#873827;fill-rule:nonzero;"/><path d="M547.642,337.103c-10.664,3.919 -19.623,0.833 -25.899,-6.784c9.948,-0.065 19.831,-0.417 29.649,-1.393l3.476,-0.43c-1.015,3.88 -3.307,7.161 -7.226,8.607Zm-268.92,0c-5.625,-1.484 -9.778,-10.847 -7.799,-17.943l0.339,-1.107c9.466,8.894 21.093,16.341 32.851,19.31c-8.307,1.667 -16.705,2.019 -25.391,-0.26Zm352.995,-308.164c-0.065,8.632 -0.963,16.549 -2.734,25.247c-0.755,3.932 -2.396,6.589 -4.401,8.255c9.427,1.615 18.19,4.662 25.299,12.761c9.532,-2.11 20.339,-2.122 30.977,-0.169c1.784,-1.368 3.542,-2.657 5.338,-3.777c4.193,-2.603 8.946,-1.901 12.344,1.224l2.93,0.209l0.377,0.104c4.753,1.016 7.878,7.435 8.138,13.698c4.454,2.956 8.516,6.419 11.993,10.378c4.974,5.716 4.206,19.309 -2.253,22.903c-2.747,1.563 -4.713,3.724 -5.872,6.107l-2.214,-0.951c-0.599,2.266 -1.237,4.545 -1.927,6.719c8.203,-7.253 16.081,-16.38 24.388,-21.003c11.784,-6.562 25.156,-8.515 37.761,-6.484c18.294,2.956 43.463,23.672 43.697,50.391c0.066,6.94 -2.474,12.552 -6.392,17.2c2.395,7.083 5.742,14.375 9.14,18.034c0.508,0.56 20.495,-15.325 23.255,-16.445c13.737,-5.599 19.57,22.565 5.899,28.125c-15.222,6.211 -25.938,29.323 -43.177,10.82c-5.821,-6.237 -11.25,-16.549 -15.013,-27.083c-7.956,3.463 -15.899,5.677 -20.925,7.526c-15.573,5.664 -28.932,3.594 -41.472,-3.086c0.717,3.45 1.042,10.794 5.053,10.469l0.43,-0.026l1.015,-0.209c-0.065,1.25 -0.169,2.487 -0.286,3.763c6.653,1.016 11.471,6.667 17.187,10.756c3.75,2.682 20.86,-8.321 26.615,-10.443l0.976,-0.156c2.136,3.372 4.531,6.263 6.94,7.942c9.258,6.485 3.529,10.013 -4.375,15.873c-10.612,7.903 -22.135,7.239 -33.828,7.096c-11.263,-0.143 -18.515,-5.885 -26.914,-10.846l-0.416,1.523c-2.292,3.646 -3.269,7.149 -2.995,10.547c4.192,2.669 7.252,8.646 6.354,16.601c-0.651,5.678 6.12,11.55 5.56,18.269c-0.521,6.185 -1.381,10.234 -5.091,14.414c-9.18,10.351 -21.915,-2.878 -18.92,-14.597l-0.559,-1.692c-0.834,-2.383 -1.628,-4.792 -2.397,-7.201l-1.237,-0.455c-3.723,-1.915 -7.408,-3.959 -11.132,-5.834c-4.792,-2.435 -7.5,-7.331 -7.865,-12.747c-7.096,-6.107 -14.505,-11.55 -21.159,-18.36c-4.791,-3.242 -8.45,-7.5 -11.028,-13.359c-0.417,5.977 -3.789,11.901 -8.268,13.828c-5.014,2.162 -9.063,3.581 -12.565,5.248c0.416,1.185 0.754,2.421 1.015,3.75c1.471,7.408 0.39,15.481 -1.784,23.033c10.391,5.808 19.323,13.438 26.315,26.758c5.261,10.091 -0.989,19.675 -8.242,21.068l0.573,2.773l-2.956,-2.643c-3.203,-0.221 -6.354,-2.148 -8.62,-6.484c-6.028,-11.576 -15.976,-15.339 -25.69,-19.544l0,0.026c-0.521,6.002 -2.916,12.942 -8.151,14.088c-17.096,3.685 -42.604,7.214 -54.987,-13.581c-5.286,-8.893 -9.661,-17.083 -10.885,-27.526c-4.635,2.162 -9.453,4.05 -14.375,6.107c-5.586,2.279 -10.872,-2.122 -13.099,-8.307c-2.031,2.63 -3.945,5.82 -5.677,9.909c-3.229,7.461 -2.37,16.666 1.289,23.346l-2.253,0.352c0.066,1.458 0.17,2.955 0.17,4.427l1.549,1.432c4.141,4.088 10.3,3.685 13.841,8.763c3.412,4.909 4.505,9.922 4.18,16.497c-0.86,16.628 -18.672,18.503 -21.797,5.378l-2.604,-1.302c-3.477,-2.448 -6.549,-5.69 -9.766,-8.659c-4.388,-4.036 -8.294,-9.141 -7.851,-16.81c0.26,-4.661 0.143,-9.518 -0.248,-14.31c-0.963,-1.484 -1.315,-1.315 -3.75,2.8c-0.742,1.185 -1.458,2.448 -2.226,3.724c-4.141,-0.065 -8.307,-0.196 -12.448,-0.482c-5.287,-0.352 -26.445,-4.258 -26.602,-4.857c-2.721,-11.419 -15.82,-15.325 -20.442,-3.502c-4.011,10.208 -6.316,20.872 -17.605,18.697c-6.08,-1.171 -12.812,-4.075 -17.682,-8.997c-10.82,-10.989 -11.81,-13.763 -9.714,-30.065c3.477,-26.94 -9.492,-39.935 -28.997,-35.039c-2.89,0.729 -4.961,2.617 -6.419,5.078c4.31,4.583 9.44,8.399 13.268,13.711c6.485,9.154 7.461,20.977 -0.638,29.089c-5,5.052 -13.19,4.361 -19.167,4.348c-3.711,-0.026 -7.422,-0.143 -11.145,0.157c-1.485,0.104 -2.266,0.104 -3.178,0.351c-1.354,2.422 -3.203,4.102 -5.234,5.052l-1.016,-1.81l-1.913,0.704l0.611,1.836l-3.19,-0.118c-2.096,1.901 -4.179,3.907 -6.302,5.782l-1.549,-1.198c-0.86,-3.19 -1.615,-5.769 -3.099,-9.102c-1.667,-3.724 -4.375,-4.961 -7.24,-6.771l-2.461,-1.679c-1.055,-5.599 -3.437,-9.792 -6.614,-13.06c-0.261,-2.396 -0.456,-5.287 -0.782,-8.959c-0.651,-7.539 -5.781,-11.849 -11.197,-8.411c-0.873,0.573 -3.946,3.542 -7.474,7.122l-1.68,-0.599c0.143,-3.724 0.221,-7.461 0.143,-11.224c-0.208,-10.846 -10.182,-16.588 -16.263,-8.841c-4.609,5.912 -9.115,11.901 -13.607,17.943l-0.976,1.198c6.549,0.755 11.562,9.505 9.791,18.372c-1.328,6.485 -4.153,12.591 -4.062,19.453c0.26,18.815 -22.018,18.763 -22.318,0c-0.013,-3.112 0.274,-5.976 0.703,-8.776c-7.773,-2.955 -13.112,-10.898 -9.974,-25.573c0.69,-3.281 1.628,-6.471 2.708,-9.583l-0.442,-0.273c-0.078,-2.735 -0.638,-4.271 -1.888,-3.06l-0.794,0.911c-1.459,-1.172 -2.956,-2.344 -4.388,-3.646c-0.157,-6.588 -4.349,-11.692 -9.31,-11.823l-1.107,-0.065c-0.104,-10.429 -0.377,-20.599 -1.836,-31.093c-0.872,-6.511 -6.875,-8.295 -10.781,-5.756c-2.526,1.498 -5.065,2.995 -7.591,4.48c-1.849,-1.016 -4.089,-0.691 -6.107,1.497c-3.529,3.88 -6.029,8.45 -8.151,13.346c-1.641,-0.104 -3.711,-0.169 -6.211,-0.403l-0.938,0.533c-8.737,3.633 -17.356,8.933 -26.275,11.771c0.755,-5.638 -1.29,-11.341 -4.948,-14.218l0.195,-0.339c-7.708,-7.578 -22.448,-6.107 -31.758,-9.128c-1.927,-0.612 -3.62,-1.432 -5.247,-2.369c-5.717,-1.094 -8.269,0.143 -8.49,11.875c-0.182,10.182 -9.583,19.336 -16.771,12.617l-2.344,-2.318c-3.632,0.404 -7.265,-1.588 -9.466,-7.305l-2.226,-5.833c-4.857,-12.695 3.919,-24.023 12.591,-21.041c1.64,-4.323 3.815,-8.074 6.562,-11.003c2.396,-4.636 6.289,-7.552 10.638,-5.938c1.94,-0.377 4.037,-0.599 6.315,-0.364c10.404,0.976 27.891,7.552 43.542,9.14c5.078,-9.557 15.456,-16.106 23.529,-15.976l2.369,0.143c0.443,-1.628 1.12,-3.203 2.097,-4.7c0.964,-1.472 1.823,-2.982 2.643,-4.545c-1.523,0.834 -3.086,1.524 -4.674,1.836c-5.743,1.211 -10.586,0.274 -14.401,-2.734c-5.769,5.312 -11.928,9.44 -18.047,9.948c-2.24,8.685 -11.667,15.104 -19.024,7.344c-10.924,-11.511 -5.338,-26.42 2.201,-38.112c1.263,-1.928 2.994,-3.152 4.896,-3.75c0.95,6.224 5.729,11.913 10.872,9.505c7.083,-3.295 12.422,-7.683 18.672,-11.927c2.187,1.432 4.713,1.822 7.552,0.508l0.391,-0.144l1.523,1.836c3.685,-1.432 7.305,-2.89 10.716,-4.193l2.058,-0.846c1.692,-0.547 3.333,-1.289 4.843,-2.5l1.237,-1.654l0.495,-0.312c12.383,-4.453 29.284,-2.734 41.003,3.672c5.546,2.995 11.315,6.25 17.213,8.151c-3.502,-9.284 -3.047,-21.432 2.826,-29.154l-0.157,-0.221c-4.127,-4.232 -9.7,-6.328 -15.351,-7.904c-4.805,4.831 -12.565,5.391 -16.914,-3.19c-1.185,-2.383 -2.122,-4.896 -3.307,-7.292c-5.495,-10.924 3.502,-24.752 12.578,-21.432c13.385,4.896 30.781,6.563 40.481,21.38c1.263,1.941 2.435,3.946 3.516,6.016c9.206,-1.914 19.076,-0.625 27.917,3.62c3.815,-0.417 7.278,-0.287 8.633,1.523c3.932,5.156 9.387,7.253 14.739,8.698c0.521,3.477 1.979,6.12 4.388,7.227c3.321,6.901 9.922,12.278 16.484,16.471c4.766,-1.458 9.675,-1.016 14.493,1.745c0.065,-1.172 -0.183,-2.357 -0.834,-3.242c-7.526,-10.3 -27.356,-31.992 -8.411,-41.954l2.682,-1.08c6.641,0.56 13.099,-0.703 20.117,-1.602c12.005,-1.549 18.92,10.495 29.441,14.506c9.335,3.554 19.817,-2.917 28.125,-7.618c3.19,-1.784 6.406,-3.737 9.661,-5.507c-0.313,-3.724 -0.17,-7.474 0.846,-10.821l-0.182,-0.208c-2.123,-1.875 -3.763,-3.919 -6.016,-5.326c-7.369,-2.148 -13.086,-15.156 -6.289,-24.87l0.157,-0.208c2.552,-3.62 7.239,-5.325 10.846,-3.75c11.341,4.961 34.101,23.399 24.726,41.576c3.881,1.367 7.579,3.359 11.654,4.049c9.597,1.55 17.487,-1.719 26.38,-6.367c10.938,-5.703 22.904,-0.404 33.842,-7.24c11.888,-7.408 24.374,-5.078 36.927,-4.856c3.867,-5.769 6.549,-12.019 6.979,-18.724c10.586,4.361 15.69,14.088 27.266,0.065c3.906,-4.753 7.656,-8.75 12.174,-12.032c-46.211,-6.965 -96.133,-10.781 -148.255,-10.781c-236.915,0 -428.985,78.659 -428.985,175.638c0,96.979 192.07,175.625 428.985,175.625c80.078,0 160.078,-8.047 238.841,-27.565c6.003,-1.497 12.018,-3.073 18.034,-4.713c-6.993,-3.92 -14.284,-6.381 -21.446,-9.115c3.425,-2.266 6.667,-4.687 9.896,-7.292c1.693,0.352 3.503,0.378 5.495,-0.052c6.641,-1.419 12.708,-4.609 18.802,-7.864c6.927,4.192 6.836,13.268 3.294,19.648c27.774,-8.555 55.117,-19.648 80.612,-36.328c29.089,-19.023 75.469,-51.732 75.469,-102.344c-0.026,-67.357 -92.63,-125.833 -228.555,-155.299Z" style="fill:#9d5237;fill-rule:nonzero;"/><path d="M860.272,183.835c-0.534,13.945 -6.914,18.203 -13.906,22.916c-4.87,9.688 -15.091,8.933 -19.922,20.755c-6.003,9.063 -17.239,6.459 -21.667,17.839c3.75,29.844 -7.864,23.333 -19.974,12.487c-1.693,13.32 -11.562,7.943 -18.229,9.805c1.81,21.159 -16.862,-4.245 -18.75,8.385c-1.041,-1.628 -1.966,-3.021 -2.864,-4.323l-1.459,1.198c-3.489,2.162 -7.213,3.425 -10.716,2.448c-0.169,5.339 -0.69,9.831 -4.063,7.826c-8.333,-2.136 -2.786,27.174 -19.427,6.067c-16.145,-20.052 -0.026,33.073 -19.557,5.261c3.021,23.268 -23.359,-20.105 -19.622,4.622c-13.932,-11.94 -21.81,-10.299 -23.646,5c-9.115,-1.185 -18.386,-2.799 -23.763,4.349c-17.969,-21.471 -18.972,-4.479 -23.789,3.75c-7.943,1.25 -9.024,17.865 -23.841,3.281c-11.498,-7.057 -8.477,18.724 -24.31,1.732c-8.646,-0.781 -9.284,16.615 -23.503,3.099c-8.594,-0.768 -18.932,-5.534 -24.154,1.276c-13.736,-12.591 -4.713,26.341 -23.814,1.484c-2.318,13.204 -12.188,9.219 -24.128,0.417c-8.802,-1.614 -15.964,0.365 -23.893,0.521c-9.61,-6.719 -6.81,14.739 -16.472,7.682c-3.138,7.735 -15.442,-5.338 -22.578,-6.914c-14.635,-18.62 -12.812,-0.052 -19.935,-1.862c-0.664,12.761 -17.435,-11.094 -19.518,-1.849c-6.185,0 -12.656,-0.794 -18.971,-1.458l-1.576,-1.55c-2.2,0.118 -4.401,0.053 -6.601,-0.546c-1.25,0.234 -2.448,0.377 -3.659,0.286c-1.888,1.055 -3.971,1.68 -6.211,1.849c2.109,17.93 -3.529,18.164 -19.102,-4.31c-5.937,-0.469 -8.776,5.912 -18.099,-2.591c-0.755,-1.198 -1.471,-2.253 -2.213,-3.307l-1.237,0.638c-4.558,1.836 -8.907,1.679 -13.203,-0.157c0.273,1.368 0.586,2.826 0.898,4.362c-3.724,3.776 -3.685,15.912 -18.984,-6.927c5.859,25.157 -19.167,-19.948 -17.097,-3.828c6.328,25.846 2.227,27.761 -16.627,-3.932c-7.123,-2.37 -15.612,-8.112 -19.193,-3.125c-5.86,-0.195 -10.846,1.25 -19.206,-5.248c-1.419,9.167 -26.211,-35 -19.049,-7.031c4.674,22.305 -20.899,-24.375 -17.969,-6.797c-22.24,-39.479 -2.031,16.94 -16.81,-6.419c4.349,19.987 -15.442,-15.13 -15.885,-6.758c2.89,14.323 -9.193,-5.521 -16.315,-14.479c-3.972,-1.719 -12.461,-14.01 -7.565,3.75c-9.61,-8.568 -6.511,10.508 -22.019,-13.763c-19.648,-33.724 -13.528,-10.273 -18.763,-13.919c-17.474,-35.456 -16.497,-29.44 -16.575,-26.172c-5.872,-9.792 -5.899,-6.706 1.601,13.047c-3.437,-2.24 -13.658,-21.146 -17.617,-27.318l-0.377,-0.573c0.377,1.055 0.052,1.237 -2.058,-0.976c-3.789,1.679 10.105,37.63 7.643,31.211c7.514,16.497 14.727,31.054 11.823,21.328c2.852,3.333 -4.869,-18.633 10.261,10.026c8.099,10.677 1.497,-14.193 22.044,20.364c-6.185,-20 1.784,-8.476 14.596,13.464c10.521,16.771 4.675,-4.115 12.617,5.807c-11.705,-34.674 8.881,3.334 16.095,10.612c4.127,0.195 16.627,18.88 16.34,8.164c12.019,17.044 10.899,3.92 17.839,8.62c4.453,4.531 11.185,14.115 15.781,18.815c4.649,4.688 7.123,4.453 3.099,-10.677c9.466,9.44 4.61,-14.049 18.776,5.156c12.018,14.31 12.904,2.956 22.227,10.248c8.463,8.151 11.38,3.45 17.175,5.013c5.338,0.56 9.244,-2.474 17.604,4.323c3.124,5.794 5.729,10.351 7.877,13.984c3.477,-1.354 7.201,-0.612 10.182,2.734c-0.299,-4.987 -0.521,-9.83 2.279,-7.825c3.542,-4.636 5.573,-12.904 17.747,1.458c9.154,7.565 8.985,-6.198 18.047,0.703c10.755,10.742 7.592,-10.351 20.834,5.508c1.849,3.112 3.476,5.664 4.922,7.865c3.528,-0.534 7.33,0.299 10.299,2.708l1.107,1.146c0.286,-5.274 0,-11.888 3.034,-11.055c6.927,1.107 14.895,4.349 22.265,5.951c-1.679,-18.92 10.742,-6.068 21.016,1.692c0.573,-14.166 11.602,-4.909 21.263,0.964c2.487,3.659 4.753,6.745 6.784,9.349c2.747,0.56 4.883,-1.367 7.018,-3.477c3.008,-2.994 6.211,-3.086 9.062,-1.549l-0.143,-1.276c1.927,-12.005 5.482,-20.56 21.472,-1.12c0.416,-5.833 5.755,-0.56 11.549,5.703c1.641,-1.68 3.49,-3.112 5.521,-4.114c2.044,-1.485 4.284,-2.24 6.576,-2.448l-0.274,-1.094c-4.44,-28.49 15.208,-2.539 24.753,0.378c2.669,-12.644 21.784,11.796 23.385,-3.451c5.248,-7.135 23.255,14.648 24.779,-1.029c2.942,-12.487 19.023,4.766 24.088,-3.151c8.62,3.464 12.539,-3.815 19.583,-3.971c9.818,6.055 7.318,-15.794 20.417,-2.409c8.073,2.057 16.107,3.932 20.586,-2.201c16.693,21.55 10.716,-8.333 19.232,-5.351c6.367,-1.927 19.7,11.94 19.818,-4.154c6.94,-0.638 11.536,-6.549 19.726,-4.323c16.289,20.639 14.336,-0.299 19.571,-5.117c16.015,19.584 4.531,-23.294 19.375,-6.68c1.523,1.693 3.086,3.373 4.583,5.027l3.281,-0.951c1.953,-0.43 4.049,-0.156 6.016,0.638c2.526,-0.768 5.104,-1.185 7.812,-1.146c-0.586,-3.177 -1.393,-6.927 -2.552,-11.445c4.935,-6.003 15.86,1.497 18.88,-8.867c0.092,-17.071 23.529,18.737 18.568,-9.753c3.972,-8.216 25.573,23.516 18.125,-10.338c4.206,-4.441 11.758,-3.021 16.107,-10.065c-0.599,-18.282 8.437,-15.769 16.432,-15.938c4.857,-7.279 6.484,-22.227 15.977,-18.724c16.341,18.945 7.044,-19.687 13.932,-20.247c5.625,-3.529 7.5,-14.089 9.57,-22.201c4.506,-2.461 5.209,-11.471 3.581,-22.812Z" style="fill:#b6732f;fill-rule:nonzero;"/><path d="M71.613,178.561c2.969,-12.76 13.164,-23.554 23.685,-19.687c2.969,-5.404 4.922,-11.289 5.104,-17.487c0.313,-10.248 -8.19,-18.88 -15.69,-15.664c-2.239,0.95 -4.336,2.461 -6.328,4.192c-4.87,-5.025 -12.318,-5.911 -17.721,0.651l-0.169,-0.208c-7.201,8.242 -13.621,18.946 -19.922,28.385c-11.303,16.772 5.481,40.951 17.76,28.933c2.018,0.377 4.219,0.156 6.601,-0.938c1.446,-0.638 2.93,-1.445 4.454,-2.292l1.406,0.691c0.091,-2.162 0.286,-4.349 0.82,-6.576Z" style="fill:#773125;fill-rule:nonzero;"/><path d="M771.691,128.418c-3.476,0.677 -22.435,4.544 -34.674,3.464l0.95,-2.631c0.808,-2.135 1.641,-4.257 2.409,-6.367c6.081,-0.794 11.875,-3.138 16.771,-8.45c1.732,-1.862 2.682,-4.167 3.047,-6.576l2.89,-0.521c2.162,-0.794 4.193,-1.836 6.199,-3.164c4.322,-2.838 6.223,-10.234 5.025,-16.068c-1.601,-7.617 -7.669,-11.901 -13.411,-9.973c-4.063,1.367 -7.682,3.997 -10.351,8.242c-1.016,1.588 -1.758,3.333 -2.24,5.169c-4.414,0.221 -8.659,1.341 -13.086,0.195c-7.227,-1.81 -12.383,2.63 -15.091,11.185l-0.547,1.693c-2.565,-5.313 -7.552,-8.776 -12.162,-9.167c-4.101,-0.325 -8.033,-0.117 -11.94,0.404c-0.13,-1.472 -0.325,-2.93 -0.482,-4.466c-0.781,-7.149 -7.526,-13.347 -12.864,-12.8c-10.104,1.042 -17.747,3.034 -26.523,9.805c-6.224,4.818 -5.144,17.812 1.992,20.221c2.956,1.003 5.885,1.784 8.802,2.448c-1.498,4.427 -1.654,9.063 -0.821,13.242c14.727,-7.461 31.42,-14.284 46.667,-6.94c9.701,4.662 19.076,15.599 16.146,29.18l0.208,0.013c14.193,1.641 14.31,30.82 0,29.18c-1.861,-0.169 -3.698,-0.43 -5.507,-0.808l-0.534,-0.117c-5.716,5.495 -16.211,4.688 -17.969,-6.237c-8.281,1.42 -17.162,-0.352 -24.284,-5.026c-6.628,2.826 -11.354,-2.252 -13.034,-8.932l-0.364,0.195c-1.172,0.599 -2.266,0.846 -3.321,0.964c-4.361,2.109 -8.645,4.753 -13.177,7.968c-14.166,10.066 -7.265,38.073 7.956,38.477c10.859,0.274 21.732,-0.612 32.396,-2.969c1.458,0.599 3.06,0.899 4.766,0.769c34.387,-2.748 78.906,-3.529 88.15,-55.899c1.836,-10.247 -4.661,-17.135 -11.992,-15.703Z" style="fill:#773125;fill-rule:nonzero;"/><path d="M645.533,72.025c-2.956,-12.175 -10.456,-17.344 -18.972,-19.037c-2.721,-4.362 -6.797,-7.331 -11.289,-7.304c-2.2,0.026 -4.453,-0.104 -6.641,-0.3c0.534,-12.135 -11.315,-21.028 -19.049,-14.245c-3.268,2.904 -6.823,5.078 -10.339,7.383l-0.156,0.091c-1.992,1.303 -3.958,2.644 -5.872,4.193c-5.651,4.675 -6.967,11.576 -5.651,17.643c-8.776,0.964 -17.552,1.367 -26.315,2.201c-3.295,-12.396 -11.901,-21.745 -23.568,-22.305c-13.646,-0.677 -26.276,6.094 -39.258,9.987c3.268,-8.034 3.542,-18.164 -1.601,-24.961c-4.545,-5.977 -11.185,-5.143 -15.795,0c-1.601,1.797 -2.995,4.284 -3.619,6.992c-8.047,0.534 -13.972,10.443 -11.849,20.886c0.52,2.591 1.21,5.156 2.057,7.591c-2.253,-0.196 -4.61,0.755 -6.784,3.307c-5.456,6.38 -11.615,11.445 -18.242,15.495c1.406,-7.357 -0.873,-15.443 -7.813,-17.695c-9.779,-3.165 -18.086,-0.404 -26.927,3.502c-7.969,-6.966 -17.995,-5.885 -28.359,-4.01c-7.526,-10.703 -22.891,-10.807 -35.534,-3.906l-1.042,-2.448l0.547,-0.769c0.742,-1.237 1.302,-1.718 1.875,-2.226c2.123,-1.875 4.518,-2.448 7.279,-4.271c5.703,-3.724 3.086,-16.341 -3.269,-15.781c-4.518,0.416 -8.398,3.021 -11.888,6.679c-1.575,1.641 -2.721,3.49 -3.893,5.586l-0.299,0.769c-3.737,-0.717 -7.774,2.252 -9.818,6.172c-2.943,5.742 -1.94,11.849 -0.442,17.955c0.299,1.328 0.611,2.696 0.911,4.063l-0.755,1.159l-3.112,3.072l-1.654,2.006l-0.664,0.976c-3.646,-5.898 -7.799,-11.133 -13.412,-14.284c-9.335,-5.234 -20.117,-0.52 -29.413,2.852c-6.732,2.448 -13.282,5.938 -19.805,9.232c-2.396,1.289 -4.792,2.656 -7.175,4.088c-3.971,3.151 -4.635,3.307 -1.901,0.534c-9.023,-4.622 -18.606,4.323 -26.758,12.266c-8.88,-8.802 -22.63,-3.451 -31.354,8.62c0.404,-2.865 0.078,-5.912 -1.237,-8.907c-0.534,-1.172 -1.211,-2.148 -1.914,-3.034c-0.286,-3.164 -1.328,-6.184 -3.255,-8.723c-3.646,-4.805 -9.909,-6.172 -14.375,-2.449c-5.742,4.805 -10.287,11.068 -14.323,18.139c-2.214,0.807 -4.375,1.862 -6.51,2.956c-4.479,-3.113 -9.375,-5.521 -14.271,-7.201c-3.802,-5.365 -9.037,-8.138 -14.935,-7.07c-3.672,0.65 -6.602,2.916 -9.101,6.406c-1.719,0.364 -3.399,0.299 -5.183,-0.326c-11.953,-4.206 -18.75,17.487 -8.307,25.82c6.641,5.313 18.008,5.704 25.26,-0.13l2.917,1.719l1.432,0.443c-3.45,7.252 0.977,16.054 7.396,16.979c5.182,0.729 9.831,-1.081 14.388,-3.464c-1.354,7.357 1.315,14.427 6.159,17.995c8.034,-3.698 16.849,-4.713 25.117,-2.2l2.409,0.885l0.599,0l0,0.3c6.81,3.216 12.682,9.973 14.336,18.775c1.406,-0.351 2.838,-1.015 4.258,-2.161c2.46,-1.94 4.739,-3.997 6.875,-6.354c3.203,-2.005 5.664,-5.208 6.64,-9.57c-4.036,-1.836 -11.471,-6.185 -10.885,-6.576c-3.308,2.24 -7.995,3.073 -11.25,0c-4.219,-4.01 -10.104,-3.45 -15.156,-4.375c-14.18,-2.565 -8.138,-30.664 5.924,-28.112c5.69,1.016 10.937,1.237 15.951,3.972c7.513,-2.565 14.205,-0.157 19.96,6.874c2.774,0.625 5.639,0.756 8.477,0.717c3.424,-2.67 6.667,-5.495 9.987,-8.581c6.927,-6.484 8.529,0.794 15.234,-1.94c1.472,-0.586 2.93,-1.237 4.401,-1.875c7.058,-18.88 26.784,-23.581 40.105,-13.229c1.185,0.612 2.239,1.601 3.216,2.968c1.25,1.329 2.409,2.761 3.463,4.415c2.422,3.815 4.024,8.046 4.974,12.343c4.024,7.813 8.529,10.703 13.985,11.419c4.57,12.318 20.26,16.836 25.247,2.019c0.703,-2.096 1.315,-4.18 1.784,-6.237c-2.878,-3.242 -5.56,-6.862 -8.216,-10.391c-2.461,-3.216 -3.802,-8.476 -3.164,-13.125c-0.026,-1.341 0.039,-2.708 0.299,-3.971c4.896,-23.177 30.821,-24.57 44.896,-17.331c8.333,4.258 15.951,12.943 16.784,25.143c3.021,1.524 6.328,1.914 9.167,0.482c8.671,-4.31 18.073,-7.956 26.08,-14.153c-0.442,7.343 2.748,15.546 7.709,18.88l-3.034,2.2l-1.667,1.12l0.091,0.156l-2.904,2.695c-13.229,13.477 3.581,37.097 16.863,28.646c2.747,-1.744 5.403,-3.75 7.942,-5.937c2.67,1.08 5.56,1.107 8.216,-0.234c0.964,-5.756 2.722,-11.524 4.727,-17.422l0.43,-1.068c1.406,-6.563 3.047,-12.982 5.13,-19.375c1.198,-3.62 3.164,-5.742 5.43,-6.706c0.429,-1.159 0.859,-2.318 1.25,-3.489c1.614,-4.518 5.976,-7.214 9.609,-7.214l2.865,0.313c1.471,-2.5 2.916,-5.053 4.257,-7.683c3.373,-6.211 9.297,-8.007 13.972,-5.833l0.013,-0.026c3.984,-4.479 10.534,-5.182 14.739,-1.393c1.237,-0.183 2.5,-0.287 3.672,-0.326c8.659,-0.247 19.557,2.773 25.508,11.836l0.377,0.664c3.321,2.318 5.626,6.81 5.951,12.643c0.365,6.328 0.169,12.175 -0.468,18.034l0.377,0.69c-0.273,2.175 0,4.519 0.846,6.302l0.313,0.599c1.523,3.086 4.752,5.495 7.63,4.05c1.393,-0.716 2.578,-1.276 3.698,-2.709c0.807,-1.08 1.393,-2.409 1.758,-3.867c2.357,-2.682 3.294,-6.536 2.266,-10.117l-0.092,-0.234l0,-0.065c1.315,-2.162 2.461,-4.714 2.839,-7.435l3.086,-1.433l0.677,-0.976l1.484,-0.052l1.133,-1.432c8.763,-9.141 19.596,-11.524 29.31,-3.008c4.362,3.854 8.06,9.479 10.599,15.911c2.917,3.503 4.635,8.828 3.385,13.724c0.261,2.604 0.417,5.209 0.261,7.787l-0.013,0.195c3.19,2.955 7.565,4.57 13.398,4.062c8.281,-0.768 13.438,-11.51 9.375,-21.445c-2.825,-6.927 -3.568,-3.476 -0.651,-11.081c1.68,-4.283 1.953,-8.671 1.289,-12.669l0.443,-0.169c5.508,-2.969 9.896,-9.792 7.891,-18.151Z" style="fill:#773125;fill-rule:nonzero;"/><path d="M125.389,149.147l-1.185,-2.669l-1.953,0.195c-3.554,-4.323 -10.638,-4.427 -12.956,2.188c-0.794,2.317 -1.158,4.023 -1.38,6.419l-0.963,2.031c-1.224,2.709 -2.201,5.417 -2.722,8.373c3.555,4.635 5.795,10.846 6.745,17.513c1.185,0.508 2.474,0.377 3.568,-0.534c-1.276,-9.375 2.5,-19.336 9.661,-25c0.534,-2.031 0.638,-4.258 0.169,-6.25c-0.52,-1.094 -0.182,-1.875 1.016,-2.266Z" style="fill:#773125;fill-rule:nonzero;"/><path d="M55.78,278.197c-1.211,-0.521 -2.253,-0.808 -3.229,-1.993l-0.677,-0.573c0.091,-4.401 -5.209,-4.322 -5.534,0.261c0.065,-1.237 -0.183,0.286 -0.287,0.664l-0.13,2.526c0.456,1.784 1.393,2.747 2.513,3.828l2.148,0.326c1.159,0.82 2.37,1.393 3.725,1.979c3.424,1.458 4.908,-5.573 1.471,-7.018Z" style="fill:#b6732f;fill-rule:nonzero;"/><path d="M92.668,297.598l-0.026,-0.065l-1.276,-2.448l-2.331,-1.133c-1.537,-0.261 -2.813,1.849 -2.799,3.633c0,2.187 1.406,3.75 2.513,5.169c2.552,3.333 6.484,-1.836 3.919,-5.156Z" style="fill:#b6732f;fill-rule:nonzero;"/><path d="M108.553,323.77l-0.312,-0.092l0,-0.169c1.015,-4.518 -4.362,-6.458 -5.352,-1.94c-1.237,5.612 1.433,9.271 5.664,9.479c3.607,0.196 3.594,-7.109 0,-7.278Z" style="fill:#b6732f;fill-rule:nonzero;"/><path d="M131.483,324.251l-0.091,0.222c-0.026,-3.503 -3.737,-4.779 -5.065,-2.24l-0.196,-0.325c-2.435,-3.503 -6.341,1.666 -3.958,5.156c1.159,1.654 2.031,3.307 3.555,4.466c1.107,0.859 2.656,0.495 3.502,-0.729c2.839,1.328 5.17,-4.271 2.253,-6.55Z" style="fill:#b6732f;fill-rule:nonzero;"/><path d="M167.42,330.423l-0.364,-1.068c-0.065,-4.7 -5.638,-4.726 -5.573,0c0.026,1.771 0.286,3.308 1.146,4.74c0.924,1.589 2.357,2.422 3.776,1.315c1.211,-0.898 1.94,-3.411 1.015,-4.987Z" style="fill:#b6732f;fill-rule:nonzero;"/><path d="M194.1,339.082c-1.276,-2.565 -5.13,-1.979 -5.13,1.94l0,3.88c0,2.005 1.263,3.659 2.8,3.659l1.497,0c1.471,0 2.826,-1.654 2.76,-3.659c-0.052,-2.122 -0.507,-4.726 -1.927,-5.82Z" style="fill:#b6732f;fill-rule:nonzero;"/><path d="M218.71,351.816c-1.758,-3.919 -4.506,-3.75 -6.876,-1.25l-1.25,2.383l0.052,1.498c0.535,4.297 3.36,5.117 6.303,3.333l1.315,-1.719c0.781,-1.042 1.159,-2.604 0.456,-4.245Z" style="fill:#b6732f;fill-rule:nonzero;"/><path d="M295.025,359.863l-1.068,0.313c0.169,-1.576 0.339,-3.112 0.794,-4.584c0.703,-2.174 -1.028,-4.7 -2.669,-4.622l-1.771,0.234l-0.651,0.066l-2.057,-0.17l-1.784,1.276c-1.172,1.459 -0.925,3.685 0,5.183l2.695,1.171c-0.156,1.563 -0.299,3.164 -0.638,4.649c-0.481,2.279 0.899,4.635 2.709,4.635c2.031,0 3.984,-0.351 5.937,-1.106c3.438,-1.368 1.979,-8.412 -1.497,-7.045Z" style="fill:#b6732f;fill-rule:nonzero;"/><path d="M334.882,374.407l-1.485,-2.291c0.534,-3.659 -2.474,-5.951 -4.675,-3.529l-1.744,0.951l-0.573,-2.018l-1.419,-2.175l-0.795,-0.885c-1.822,-4.037 -6.666,-0.378 -4.804,3.698l1.888,2.578c0.625,0.716 0.338,1.901 0.065,3.333c-0.743,3.737 2.591,5.833 4.661,3.542l2.526,-1.198c0.482,1.263 2.071,2.734 2.435,3.164c2.695,3.099 6.641,-2.044 3.92,-5.17Z" style="fill:#b6732f;fill-rule:nonzero;"/><path d="M389.413,367.52l-0.391,0l0.208,-1.225c0.183,-2.252 -1.953,-4.283 -3.541,-3.528l-2.448,0.495c-0.091,-4.558 -5.56,-4.558 -5.521,0.117c0.013,2.344 0.234,4.505 1.354,6.38c0.833,1.367 2.422,1.276 3.49,0.729l0.481,-0.091l-0.156,0.768c-0.13,1.967 1.393,3.646 2.8,3.646l3.724,0c3.567,0 3.567,-7.291 0,-7.291Z" style="fill:#b6732f;fill-rule:nonzero;"/><path d="M419.035,379.668c-1.641,-1.576 -3.477,-2.526 -3.164,-5.599c0.234,-2.044 -0.69,-4.961 -2.669,-4.596c-1.341,0.221 -1.953,0.247 -2.865,-0.951c-0.912,-1.276 -1.836,-2.161 -3.099,-2.812c-3.346,-1.758 -4.766,5.299 -1.458,7.018l2.226,2.76l2.409,1.237c0.118,1.367 0.43,2.67 1.068,3.972c1.185,2.265 3.099,3.685 4.766,5.273c2.903,2.8 5.677,-3.542 2.786,-6.302Z" style="fill:#b6732f;fill-rule:nonzero;"/><path d="M439.959,382.103l-1.015,0.091c-2.735,-2.995 -6.719,2.122 -3.958,5.169c1.523,1.654 2.994,2.019 4.973,2.019c3.568,0.026 3.568,-7.253 0,-7.279Z" style="fill:#b6732f;fill-rule:nonzero;"/><path d="M460.246,387.051l0.495,-0.091c-3.568,0.13 -3.62,7.408 0,7.278c1.471,-0.026 2.409,-0.703 3.437,-2.031c2.604,-3.255 -1.341,-8.425 -3.932,-5.156Z" style="fill:#b6732f;fill-rule:nonzero;"/><path d="M488.41,387.689l0,1.94c0,4.7 5.586,4.7 5.586,0l0,-1.94c0,-4.701 -5.586,-4.701 -5.586,0Z" style="fill:#b6732f;fill-rule:nonzero;"/><path d="M282.746,375.71c0.365,-2.136 -0.456,-4.545 -2.565,-4.31c-4.258,0.521 -5.039,5.911 -1.393,8.763c2.447,1.888 4.674,-1.693 3.958,-4.453Z" style="fill:#b6732f;fill-rule:nonzero;"/><path d="M258.827,368.34l-0.378,-3.008c-0.039,-4.701 -5.599,-4.727 -5.573,0c0,2.461 0.326,4.466 1.133,6.693c1.471,4.271 6.289,0.573 4.818,-3.685Z" style="fill:#b6732f;fill-rule:nonzero;"/><path d="M234.673,369.681l0,-0.469c0,-4.7 -5.573,-4.7 -5.573,0l0,4.857c0,1.992 1.263,3.659 2.787,3.646c1.953,0 3.437,-0.391 4.935,-2.018c2.174,-2.409 0.156,-6.081 -2.149,-6.016Z" style="fill:#b6732f;fill-rule:nonzero;"/><path d="M363.736,385.241c-0.352,-2.682 -2.865,-4.714 -4.519,-2.096c-2.422,3.815 -0.937,7.76 2.696,8.203c2.773,0.312 3.346,-3.92 1.823,-6.107Z" style="fill:#b6732f;fill-rule:nonzero;"/><path d="M397.303,388.991l0.105,0.638c-0.105,-4.701 -5.678,-4.701 -5.587,0c0.053,1.94 0.56,3.151 1.563,4.518c2.513,3.385 6.445,-1.784 3.919,-5.156Z" style="fill:#b6732f;fill-rule:nonzero;"/><path d="M402.212,399.355l0,0.977c0,4.688 5.599,4.688 5.599,0l0,-0.977c0,-4.7 -5.599,-4.7 -5.599,0Z" style="fill:#b6732f;fill-rule:nonzero;"/><path d="M410.415,391.608l0,0.951c0,4.7 5.56,4.7 5.56,0l0,-0.951c0,-4.74 -5.56,-4.74 -5.56,0Z" style="fill:#b6732f;fill-rule:nonzero;"/><path d="M371.014,382.832l0,1.94c0,4.701 5.573,4.701 5.573,0l0,-1.94c0,-4.714 -5.573,-4.714 -5.573,0Z" style="fill:#b6732f;fill-rule:nonzero;"/><path d="M513.332,383.913c-1.081,3.021 -1.927,6.328 -1.055,9.609c1.237,4.375 6.602,2.5 5.404,-1.914c-0.417,-1.432 -0.026,-2.708 0.43,-4.01c1.536,-4.258 -3.256,-7.943 -4.779,-3.685Z" style="fill:#b6732f;fill-rule:nonzero;"/><path d="M529.348,388.014l-1.967,1.771c-0.937,1.498 -1.211,3.75 0,5.182l2.435,1.237c1.394,0.131 2.214,-0.833 2.539,-2.122l0.938,-0.885c2.786,-3.008 -1.198,-8.138 -3.945,-5.183Z" style="fill:#b6732f;fill-rule:nonzero;"/><path d="M546.444,391.921l-2.213,2.916c-2.54,3.334 1.38,8.49 3.931,5.157l2.227,-2.93c2.565,-3.295 -1.38,-8.464 -3.945,-5.143Z" style="fill:#b6732f;fill-rule:nonzero;"/><path d="M556.835,381.244c-0.782,1.015 -1.368,1.966 -1.745,3.359c-0.365,1.393 0.195,3.516 1.276,4.127l0.312,0.17c1.394,0.768 2.956,0.573 3.815,-1.302l0.274,-1.185l0.052,-0.026c2.5,-3.373 -1.445,-8.516 -3.984,-5.143Z" style="fill:#b6732f;fill-rule:nonzero;"/><path d="M571.691,383.145c-0.989,1.367 -1.862,2.669 -2.2,4.544c-0.782,4.583 4.609,6.523 5.378,1.94l0.781,-1.315c2.526,-3.359 -1.433,-8.503 -3.959,-5.169Z" style="fill:#b6732f;fill-rule:nonzero;"/><path d="M580.168,383.913c-0.912,1.653 -1.094,3.711 -1.094,5.716c-0.026,4.7 5.547,4.7 5.573,0l0.338,-2.031c2.149,-3.816 -2.721,-7.435 -4.817,-3.685Z" style="fill:#b6732f;fill-rule:nonzero;"/><path d="M589.452,373.106l0,3.88c0,4.7 5.586,4.7 5.586,0l0,-3.88c0,-4.714 -5.586,-4.714 -5.586,0Z" style="fill:#b6732f;fill-rule:nonzero;"/><path d="M602.394,378.691c1.029,-4.218 -4.14,-5.976 -5.403,-1.679c-1.263,4.349 0.859,7.929 4.166,8.489c1.55,0.248 2.813,-1.862 2.813,-3.646c0,-1.536 -0.664,-2.578 -1.576,-3.164Z" style="fill:#b6732f;fill-rule:nonzero;"/><path d="M607.29,381.582l0,1.25c0,4.701 5.56,4.701 5.56,0l0,-1.25c0,-4.713 -5.56,-4.713 -5.56,0Z" style="fill:#b6732f;fill-rule:nonzero;"/><path d="M627.915,367.22c-1.367,-2.5 -5.091,-1.875 -5.013,1.992c0.052,2.865 1.328,4.531 3.529,4.623c2.995,0.091 3.45,-4.831 1.484,-6.615Z" style="fill:#b6732f;fill-rule:nonzero;"/><path d="M643.775,382.194l-0.756,0.951c-2.538,3.333 1.42,8.515 3.959,5.169l0.755,-0.951c2.539,-3.333 -1.406,-8.502 -3.958,-5.169Z" style="fill:#b6732f;fill-rule:nonzero;"/><path d="M630.142,391.83l-1.745,-0.899l-2.174,-0.951l-1.941,0.378l-0.807,0.482c-3.633,0.091 -3.633,7.409 0,7.305l2.344,-0.625c1.263,1.08 2.604,1.588 4.323,1.601c3.594,0.013 3.594,-7.265 0,-7.291Z" style="fill:#b6732f;fill-rule:nonzero;"/><path d="M651.157,370.176l0,0.989c0,4.701 5.56,4.701 5.56,0l0,-0.989c0,-4.701 -5.56,-4.701 -5.56,0Z" style="fill:#b6732f;fill-rule:nonzero;"/><path d="M659.413,356.569c-0.717,3.19 -0.821,6.419 -0.847,9.726c0,4.714 5.586,4.714 5.586,0c0,-2.669 0.052,-5.208 0.625,-7.786c1.029,-4.518 -4.349,-6.419 -5.364,-1.94Z" style="fill:#b6732f;fill-rule:nonzero;"/><path d="M675.467,376.27l-0.273,-0.027c-1.589,-2.122 -5.208,-0.169 -4.623,3.659c0.456,3.177 2.839,3.633 4.896,3.633c3.594,0.039 3.594,-7.239 0,-7.265Z" style="fill:#b6732f;fill-rule:nonzero;"/><path d="M690.519,367.376l-0.377,-1.081c-0.052,-4.7 -5.664,-4.7 -5.573,0c0.026,1.784 0.286,3.321 1.133,4.753c0.924,1.576 2.357,2.435 3.802,1.315c1.211,-0.911 1.927,-3.398 1.015,-4.987Z" style="fill:#b6732f;fill-rule:nonzero;"/><path d="M694.217,351.712l0,1.966c0,4.675 5.573,4.675 5.573,0l0,-1.966c0,-4.7 -5.573,-4.7 -5.573,0Z" style="fill:#b6732f;fill-rule:nonzero;"/><path d="M708.084,344.681c-1.158,-1.146 -1.549,-2.8 -1.588,-4.635c-0.117,-4.675 -5.69,-4.714 -5.599,0c0.143,4.635 1.51,8.164 4.375,10.924c2.903,2.8 5.677,-3.529 2.812,-6.289Z" style="fill:#b6732f;fill-rule:nonzero;"/><path d="M726.3,347.48c-0.546,-1.692 -1.939,-2.382 -3.202,-2.083l1.861,-2.435c0.873,-2.76 0.873,-5.989 0,-8.737c-0.56,-1.849 -1.822,-3.138 -3.411,-2.552c-1.341,0.482 -2.539,2.63 -1.953,4.466c0.534,1.758 0.534,3.138 0,4.883c-0.586,1.849 0.612,4.011 1.953,4.479l0.95,0.105c-0.872,0.468 -1.588,1.523 -1.523,3.19c0.195,6.341 3.959,8.346 7.904,5.091c2.969,-2.435 0.364,-8.412 -2.579,-6.407Z" style="fill:#b6732f;fill-rule:nonzero;"/><path d="M740.767,339.798c-1.706,-1.224 -2.357,-2.461 -1.211,-4.713c2.005,-3.92 -2.852,-7.566 -4.831,-3.685c-2.825,5.521 -1.016,11.64 3.242,14.713c3.125,2.292 5.977,-4.036 2.8,-6.315Z" style="fill:#b6732f;fill-rule:nonzero;"/><path d="M745.48,329.355l0,2.93c0,4.688 5.586,4.688 5.586,0l0,-2.93c0,-4.7 -5.586,-4.7 -5.586,0Z" style="fill:#b6732f;fill-rule:nonzero;"/><path d="M756.131,318.132c-0.742,-1.263 -1.979,-1.901 -3.294,-0.691l-1.979,2.383l0,3.685c0.977,2.318 3.099,1.81 4.115,1.693c3.125,-0.287 3.515,-5.912 1.158,-7.07Z" style="fill:#b6732f;fill-rule:nonzero;"/><path d="M766.184,323.288c-1.967,1.458 -3.568,3.554 -4.701,6.172c-1.745,4.114 3.073,7.786 4.818,3.685c0.69,-1.576 1.497,-2.696 2.695,-3.568c3.151,-2.305 0.351,-8.607 -2.812,-6.289Z" style="fill:#b6732f;fill-rule:nonzero;"/><path d="M781.236,319.967l-0.756,0.964c-2.526,3.346 1.433,8.49 3.946,5.156l0.755,-0.95c2.539,-3.347 -1.393,-8.49 -3.945,-5.17Z" style="fill:#b6732f;fill-rule:nonzero;"/><path d="M795.298,308.066c-0.625,-1.354 -2.149,-2.161 -3.32,-1.588c-1.849,-0.391 -3.985,1.393 -3.308,4.388c0.834,3.398 3.49,4.297 5.613,2.187c1.197,-1.211 1.836,-3.099 1.015,-4.987Z" style="fill:#b6732f;fill-rule:nonzero;"/><path d="M804.504,294.694l-0.808,-1.315c-0.767,-4.583 -6.145,-2.63 -5.338,1.94c0.312,1.875 1.198,3.177 2.201,4.518c2.525,3.36 6.458,-1.797 3.945,-5.143Z" style="fill:#b6732f;fill-rule:nonzero;"/><path d="M803.514,279.134c-2.343,2.734 -3.008,5.951 -0.143,8.646c2.044,1.966 4.037,-0.664 3.945,-3.333l0.131,-0.17c2.721,-3.138 -1.25,-8.255 -3.933,-5.143Z" style="fill:#b6732f;fill-rule:nonzero;"/><path d="M811.522,274.668l-0.716,0.586c-2.317,1.172 -2.956,6.237 0,7.005l1.367,0.182l2.253,-1.562c2.682,-2.852 -0.053,-9.011 -2.904,-6.211Z" style="fill:#b6732f;fill-rule:nonzero;"/><path d="M821.014,279.525c-1.432,-1.094 -2.89,-0.261 -3.802,1.328c-0.872,1.406 -1.12,2.956 -1.12,4.739c-0.065,4.714 5.495,4.701 5.56,0l0.365,-1.093c0.924,-1.55 0.182,-4.05 -1.003,-4.974Z" style="fill:#b6732f;fill-rule:nonzero;"/><path d="M832.655,256.087l-0.417,-2.448c1.771,-3.372 -1.862,-7.916 -4.206,-4.661c-1.146,1.601 -2.174,3.359 -2.174,5.677c0.013,3.06 2.174,4.258 4.18,4.453l0.807,-0.065c-0.573,2.031 -1.536,3.724 -2.682,5.286c-0.534,-2.369 -2.878,-4.01 -4.583,-1.731c-1.407,1.914 -2.123,3.802 -2.292,6.458c-0.3,4.544 4.856,4.609 5.455,0.43c0.782,2.031 2.917,3.268 4.532,1.185c2.278,-3.021 4.218,-6.224 5.156,-10.352c0.755,-3.307 -1.914,-5.156 -3.776,-4.232Z" style="fill:#b6732f;fill-rule:nonzero;"/><path d="M315.116,374.303l-0.274,0c-1.601,-2.122 -5.247,-0.182 -4.648,3.659c0.455,3.177 2.825,3.62 4.922,3.659c3.567,0 3.567,-7.278 0,-7.318Z" style="fill:#b6732f;fill-rule:nonzero;"/><path d="M341.379,387.051c-1.263,1.627 -2.487,3.229 -3.711,4.87l-0.13,0.117c-2.474,3.385 1.406,8.463 3.997,5.156c1.237,-1.654 2.5,-3.32 3.776,-4.987c2.539,-3.333 -1.393,-8.489 -3.932,-5.156Z" style="fill:#b6732f;fill-rule:nonzero;"/><path d="M65.48,297.507l-4.492,0c-3.62,0 -3.62,7.291 0,7.291l4.492,0c3.568,0 3.568,-7.291 0,-7.291Z" style="fill:#b6732f;fill-rule:nonzero;"/><path d="M75.103,313.066c-2.162,0.079 -3.451,1.771 -3.503,4.623c-0.104,3.88 3.646,4.492 5.013,1.979c1.927,-1.81 1.471,-6.719 -1.51,-6.602Z" style="fill:#b6732f;fill-rule:nonzero;"/><path d="M93.67,313.066l-1.106,0c-2.162,0 -2.982,2.657 -2.54,4.753c-0.989,-0.872 -2.382,-1.094 -3.502,0.221l-3.164,2.318c-3.216,2.135 -0.378,8.412 2.826,6.328c1.523,-1.028 2.968,-2.031 4.257,-3.489l0.768,-3.308l1.355,0.469l1.106,0c3.607,0 3.607,-7.292 0,-7.292Z" style="fill:#b6732f;fill-rule:nonzero;"/><path d="M163.54,349.03l-2.864,0c-3.62,0 -3.62,7.318 0,7.318l2.864,0c3.581,0 3.581,-7.318 0,-7.318Z" style="fill:#b6732f;fill-rule:nonzero;"/><path d="M180.871,362.754l-0.247,-0.117c-3.62,0.117 -3.62,7.395 0,7.291c1.719,-0.013 2.864,-0.677 4.192,-2.005c2.839,-2.891 -1.132,-8.021 -3.945,-5.169Z" style="fill:#b6732f;fill-rule:nonzero;"/><path d="M196.704,365.032c0.742,-4.27 -4.362,-5.976 -5.403,-1.653c-1.146,4.7 0.169,8.32 4.192,8.516c3.099,0.13 3.477,-5.326 1.211,-6.863Z" style="fill:#b6732f;fill-rule:nonzero;"/><path d="M217.017,365.71c-2.683,0.794 -5.404,0.846 -8.164,0.846c-3.607,0 -3.607,7.292 0,7.279c3.268,0 6.484,-0.144 9.661,-1.107c3.516,-1.042 1.993,-8.086 -1.497,-7.018Z" style="fill:#b6732f;fill-rule:nonzero;"/><path d="M21.04,258.47l-0.43,-1.393c2.37,-3.529 -1.536,-8.685 -3.945,-5.183c-2.2,3.269 -1.771,6.576 -0.43,10.261c1.524,4.258 6.342,0.547 4.805,-3.685Z" style="fill:#b6732f;fill-rule:nonzero;"/><path d="M33.983,266.478c-1.302,-1.68 -2.708,-3.464 -4.571,-3.841c-3.515,-0.73 -5.025,6.289 -1.497,7.018l2.123,1.979c2.552,3.32 6.51,-1.836 3.945,-5.156Z" style="fill:#b6732f;fill-rule:nonzero;"/><path d="M297.538,387.533c-1.237,1.666 -1.928,3.138 -1.94,5.494c-0.027,4.714 5.52,4.714 5.585,0l0.274,-0.325c2.539,-3.36 -1.393,-8.503 -3.919,-5.169Z" style="fill:#b6732f;fill-rule:nonzero;"/><path d="M291.144,374.069l0,5.833c0,4.701 5.573,4.701 5.573,0l0,-5.833c0,-4.687 -5.573,-4.687 -5.573,0Z" style="fill:#b6732f;fill-rule:nonzero;"/><path d="M502.707,366.178l-1.471,0.756l-0.756,0.729c-3.502,0.794 -2.031,7.825 1.485,7.018l1.51,-0.755l0.716,-0.716c3.555,-0.795 2.045,-7.813 -1.484,-7.032Z" style="fill:#b6732f;fill-rule:nonzero;"/><path d="M465.585,373.353l-6.68,0c-3.607,0 -3.607,7.279 0,7.279l6.68,0c3.567,0 3.567,-7.279 0,-7.279Z" style="fill:#b6732f;fill-rule:nonzero;"/><path d="M547.173,368.587l-1.276,2.005c-0.534,1.524 -0.469,3.151 0.482,4.428l2.799,1.25c1.914,0.026 2.787,-2.058 2.643,-3.998c0.743,-3.151 -2.447,-6.575 -4.648,-3.685Z" style="fill:#b6732f;fill-rule:nonzero;"/><path d="M447.173,406.048c-0.13,-4.57 -5.612,-4.557 -5.573,0.117c0.013,2.891 0.69,5.808 3.177,6.42c3.125,0.755 4.609,-4.753 2.396,-6.537Z" style="fill:#b6732f;fill-rule:nonzero;"/><path d="M477.277,398.887l0,2.903c0,4.688 5.586,4.688 5.586,0l0,-2.903c0,-4.714 -5.586,-4.714 -5.586,0Z" style="fill:#b6732f;fill-rule:nonzero;"/><path d="M503.475,403.991c-3.607,0 -3.607,7.291 0,7.291c3.555,0 3.555,-7.291 0,-7.291Z" style="fill:#b6732f;fill-rule:nonzero;"/><path d="M850.077,233.353c-3.568,0 -3.568,7.279 0,7.279c3.581,0 3.581,-7.279 0,-7.279Z" style="fill:#b6732f;fill-rule:nonzero;"/><path d="M53.215,243.561l-1.12,0c-3.62,0 -3.62,7.279 0,7.279l1.12,0c3.568,0 3.568,-7.279 0,-7.279Z" style="fill:#d79e6a;fill-rule:nonzero;"/><path d="M90.545,277.832l0,1.458c0,4.675 5.56,4.675 5.56,0l0,-1.458c0,-4.713 -5.56,-4.713 -5.56,0Z" style="fill:#d79e6a;fill-rule:nonzero;"/><path d="M119.035,287.337c-1.38,-2.955 -5.586,-0.989 -5,3.125c0.469,3.216 2.708,4.102 4.909,4.128c3.568,0.052 3.594,-7.096 0.091,-7.253Z" style="fill:#d79e6a;fill-rule:nonzero;"/><path d="M141.665,308.809c0.13,-1.979 -0.716,-4.05 -2.656,-4.011l-2.812,1.224c-0.912,1.276 -0.977,2.93 -0.443,4.453l1.276,2.019c2.174,2.877 5.377,-0.56 4.635,-3.685Z" style="fill:#d79e6a;fill-rule:nonzero;"/><path d="M148.475,312.793l0,2.956c0,4.674 5.599,4.674 5.599,0l0,-2.956c0,-4.674 -5.599,-4.674 -5.599,0Z" style="fill:#d79e6a;fill-rule:nonzero;"/><path d="M166.014,304.408c-1.354,2.122 -1.914,4.179 -1.927,6.953c-0.039,4.713 5.547,4.713 5.573,0l0.299,-1.81c2.292,-3.555 -1.614,-8.737 -3.945,-5.143Z" style="fill:#d79e6a;fill-rule:nonzero;"/><path d="M179.373,324.824l-0.195,0.039l-1.979,-1.093l-1.393,0c-3.62,0 -3.62,7.278 0,7.278l0.534,0c2.304,1.485 4.818,1.237 6.992,-1.055c2.826,-2.955 -1.172,-8.085 -3.959,-5.169Z" style="fill:#d79e6a;fill-rule:nonzero;"/><path d="M191.952,309.902l0,7.318c0,4.675 5.599,4.675 5.599,0l0,-7.318c0,-4.7 -5.599,-4.7 -5.599,0Z" style="fill:#d79e6a;fill-rule:nonzero;"/><path d="M211.431,341.257l-0.534,-0.743c-0.182,-4.661 -5.755,-4.674 -5.586,0c0.195,4.896 2.422,7.8 6.12,8.047c3.607,0.222 3.58,-7.096 0,-7.304Z" style="fill:#d79e6a;fill-rule:nonzero;"/><path d="M224.816,338.34c-3.593,0 -3.593,7.292 0,7.292c3.581,0 3.581,-7.292 0,-7.292Z" style="fill:#d79e6a;fill-rule:nonzero;"/><path d="M244.595,326.048c-1.771,0.482 -2.526,3.529 -3.229,5.352l-0.078,0.403l-0.078,0.326l-0.131,1.081c0,1.653 0.768,3.242 2.253,3.541l0.377,0.117l0.118,0l1.914,-1.093l0.117,-0.144l0.312,-0.546l0.131,-0.313l1.276,-2.031l0.56,-3.164c0.013,-2.513 -1.81,-3.985 -3.542,-3.529Z" style="fill:#d79e6a;fill-rule:nonzero;"/><path d="M263.84,339.785l-0.56,-0.716c-0.17,-4.675 -5.768,-4.701 -5.586,0c0.169,4.883 2.422,7.786 6.146,8.034c3.606,0.221 3.581,-7.083 0,-7.318Z" style="fill:#d79e6a;fill-rule:nonzero;"/><path d="M279.191,346.712c-0.664,-0.859 -1.38,-1.588 -1.523,-2.786c-0.56,-4.623 -5.938,-2.643 -5.365,1.94c0.274,2.474 1.667,4.297 2.917,6.003c2.552,3.333 6.497,-1.81 3.971,-5.157Z" style="fill:#d79e6a;fill-rule:nonzero;"/><path d="M303.957,350.019l-4.44,0c-3.62,0 -3.62,7.305 0,7.305l4.44,0c3.594,0 3.594,-7.305 0,-7.305Z" style="fill:#d79e6a;fill-rule:nonzero;"/><path d="M324.022,339.785c-1.562,-0.091 -2.89,-1.237 -4.466,-1.445c-3.568,-0.456 -3.542,6.836 0,7.292l1.315,0.729l3.151,0.742c3.568,0.234 3.568,-7.044 0,-7.318Z" style="fill:#d79e6a;fill-rule:nonzero;"/><path d="M348.28,351.074c-0.756,-1.015 -1.367,-1.784 -1.406,-3.242c-0.183,-4.674 -5.769,-4.714 -5.573,0c0.13,3.477 1.184,5.95 3.033,8.398c2.54,3.334 6.459,-1.783 3.946,-5.156Z" style="fill:#d79e6a;fill-rule:nonzero;"/><path d="M364.152,352.91c-1.797,0 -3.607,0.039 -5.286,-0.95c-3.268,-1.901 -6.094,4.401 -2.826,6.302c2.669,1.549 5.222,1.966 8.112,1.966c3.594,0 3.594,-7.279 0,-7.318Z" style="fill:#d79e6a;fill-rule:nonzero;"/><path d="M406.223,345.241c-0.847,-1.328 -1.316,-3.008 -2.201,-4.375c-2.344,-3.581 -6.263,1.602 -3.972,5.156c0.899,1.315 1.368,3.008 2.266,4.375c2.318,3.594 6.237,-1.601 3.907,-5.156Z" style="fill:#d79e6a;fill-rule:nonzero;"/><path d="M423.384,362.025c-0.846,-2.37 -1.354,-4.909 -2.227,-7.292c-1.536,-4.232 -6.315,-0.547 -4.791,3.685c0.833,2.383 1.354,4.922 2.226,7.292c1.524,4.258 6.328,0.559 4.792,-3.685Z" style="fill:#d79e6a;fill-rule:nonzero;"/><path d="M434.165,359.238c-2.161,1.563 -1.744,6.862 1.328,6.823c2.487,-0.052 3.854,-1.836 3.894,-5.104c0.026,-4.036 -4.011,-4.583 -5.222,-1.719Z" style="fill:#d79e6a;fill-rule:nonzero;"/><path d="M467.538,336.478l-0.3,-0.313c-0.039,-4.713 -5.612,-4.713 -5.547,0c0,2.357 0.651,3.841 1.901,5.482c2.552,3.333 6.498,-1.797 3.946,-5.169Z" style="fill:#d79e6a;fill-rule:nonzero;"/><path d="M478.957,348.561l-1.107,0c-3.606,0 -3.606,7.279 0,7.279l1.107,0c3.581,0 3.581,-7.279 0,-7.279Z" style="fill:#d79e6a;fill-rule:nonzero;"/><path d="M493.436,344.173l-2.227,0c-3.606,0 -3.606,7.305 0,7.305l2.227,0c3.581,0 3.581,-7.305 0,-7.305Z" style="fill:#d79e6a;fill-rule:nonzero;"/><path d="M517.954,322.298c-2.2,0.039 -4.479,0.925 -4.922,4.141c-0.585,4.101 3.62,6.068 5.013,3.138c3.477,-0.183 3.477,-7.331 -0.091,-7.279Z" style="fill:#d79e6a;fill-rule:nonzero;"/><path d="M531.079,346.712c-1.263,-1.81 -2.109,-4.036 -3.372,-5.846c-2.409,-3.49 -6.341,1.68 -3.906,5.156c1.237,1.81 2.057,4.037 3.32,5.847c2.435,3.489 6.341,-1.693 3.958,-5.157Z" style="fill:#d79e6a;fill-rule:nonzero;"/><path d="M534.673,360.228c-3.581,0 -3.581,7.292 0,7.292c3.594,0 3.594,-7.292 0,-7.292Z" style="fill:#d79e6a;fill-rule:nonzero;"/><path d="M566.119,342.324c-1.928,2.565 -3.907,5.091 -6.55,6.367c-3.36,1.589 -1.927,8.646 1.497,7.019c3.594,-1.719 6.328,-4.727 8.998,-8.23c2.526,-3.307 -1.407,-8.489 -3.945,-5.156Z" style="fill:#d79e6a;fill-rule:nonzero;"/><path d="M588.371,316.947c-1.211,-2.865 -5.235,-2.305 -5.221,1.705c0.039,3.282 1.38,5.078 3.893,5.118c3.073,0.026 3.49,-5.274 1.328,-6.823Z" style="fill:#d79e6a;fill-rule:nonzero;"/><path d="M598.762,328.887c-0.222,-4.714 -5.769,-4.714 -5.56,0c0.091,2.513 1.002,4.791 1.081,7.278c0.195,4.675 5.794,4.701 5.572,0c-0.078,-2.552 -1.015,-4.817 -1.093,-7.278Z" style="fill:#d79e6a;fill-rule:nonzero;"/><path d="M604.308,344.342l0.027,-0.898c0,-4.713 -5.573,-4.713 -5.573,0c0.013,4.557 1.21,7.786 5,8.034c3.411,0.234 3.515,-6.198 0.546,-7.136Z" style="fill:#d79e6a;fill-rule:nonzero;"/><path d="M622.954,335.046l-2.213,2.89c-2.565,3.347 1.419,8.503 3.932,5.169l2.227,-2.903c2.552,-3.346 -1.368,-8.49 -3.946,-5.156Z" style="fill:#d79e6a;fill-rule:nonzero;"/><path d="M649.087,318.053c-1.172,-0.234 -2.161,-1.224 -3.346,-1.445c-1.511,-0.286 -2.982,0.443 -3.412,2.526c-0.377,1.745 0.43,4.193 1.953,4.505c1.172,0.222 2.123,1.211 3.308,1.446c1.523,0.273 3.021,-0.469 3.45,-2.526c0.339,-1.745 -0.429,-4.193 -1.953,-4.506Z" style="fill:#d79e6a;fill-rule:nonzero;"/><path d="M662.564,333.587l-1.407,-3.268c-0.325,-4.609 -5.924,-4.674 -5.546,0c0.208,3.216 1.393,6.029 3.047,8.412c2.408,3.502 6.314,-1.68 3.906,-5.144Z" style="fill:#d79e6a;fill-rule:nonzero;"/><path d="M674.23,326.27l-1.341,0.416c-3.619,0.039 -3.619,7.318 0,7.279c2.11,-0.026 3.659,-0.729 5.313,-2.526c2.734,-3.034 -1.224,-8.151 -3.972,-5.169Z" style="fill:#d79e6a;fill-rule:nonzero;"/><path d="M712.733,292.741c-1.289,-1.628 -2.422,-2.5 -4.206,-2.539c-3.594,-0.039 -3.594,7.239 0,7.305l0.248,0.39c2.565,3.333 6.497,-1.849 3.958,-5.156Z" style="fill:#d79e6a;fill-rule:nonzero;"/><path d="M714.1,313.887c-2.474,-1.446 -5.377,2.942 -3.086,5.898c2.071,2.643 4.102,2.643 6.172,0c2.318,-2.956 -0.599,-7.344 -3.086,-5.898Z" style="fill:#d79e6a;fill-rule:nonzero;"/><path d="M729.426,303.835l-3.06,0.963c-3.594,0.013 -3.594,7.305 0,7.305c2.135,-0.026 3.945,-0.781 5.859,-1.979c3.268,-2.005 0.404,-8.282 -2.799,-6.289Z" style="fill:#d79e6a;fill-rule:nonzero;"/><path d="M755.35,287.285c-1.575,-0.104 -2.903,-1.224 -4.466,-1.432c-3.581,-0.495 -3.568,6.823 0,7.279l1.302,0.716l3.164,0.742c3.581,0.247 3.568,-7.031 0,-7.305Z" style="fill:#d79e6a;fill-rule:nonzero;"/><path d="M769.829,288.77l-2.5,-3.308c-2.461,-3.463 -6.341,1.719 -3.919,5.144c1.966,2.773 3.333,5.065 6.419,5.442c3.594,0.417 3.542,-6.875 0,-7.278Z" style="fill:#d79e6a;fill-rule:nonzero;"/><path d="M788.774,275.631l-3.333,0c-3.606,0 -3.606,7.292 0,7.292l3.333,0c3.594,0 3.594,-7.292 0,-7.292Z" style="fill:#d79e6a;fill-rule:nonzero;"/><path d="M734.452,294.421c0.091,-2.526 0.599,-5.078 0.664,-7.592c0.182,-4.518 -5.638,-2.903 -5.821,1.589c-0.104,2.513 -0.598,5.052 -0.69,7.591c-0.195,4.518 5.677,2.891 5.847,-1.588Z" style="fill:#d79e6a;fill-rule:nonzero;"/><path d="M745.48,295.879c-2.617,0.651 -4.245,5.69 -1.367,6.823c2.344,0.911 4.258,-0.235 5.547,-3.242c1.523,-3.724 -1.992,-5.769 -4.18,-3.581Z" style="fill:#d79e6a;fill-rule:nonzero;"/><path d="M784.96,287.428l-0.157,-0.416c1.758,-4.375 -3.424,-6.498 -5.13,-2.097c-0.924,2.201 -0.846,3.789 -0.326,5.821c1.094,4.036 6.694,0.768 5.613,-3.308Z" style="fill:#d79e6a;fill-rule:nonzero;"/><path d="M790.975,302.91l-1.028,-0.417c-3.347,-1.367 -6.094,5.378 -2.774,6.745l1.016,0.417c3.359,1.367 6.106,-5.404 2.786,-6.745Z" style="fill:#d79e6a;fill-rule:nonzero;"/><path d="M806.027,304.342l-2.07,-0.859c-3.32,-1.354 -6.094,5.404 -2.747,6.758l2.057,0.833c3.346,1.367 6.081,-5.403 2.76,-6.732Z" style="fill:#d79e6a;fill-rule:nonzero;"/><path d="M837.017,293.314c-2.044,-0.794 -4.505,-0.847 -6.133,1.979c-2.083,3.581 1.055,6.992 3.451,4.792c3.294,1.159 5.976,-5.469 2.682,-6.771Z" style="fill:#d79e6a;fill-rule:nonzero;"/></g></g><defs><radialGradient id="_Radial2" cx="0" cy="0" r="1" gradientUnits="userSpaceOnUse" gradientTransform="matrix(876.891,0,0,1147.41,465.796,-679.732)"><stop offset="0" style="stop-color:#893040;stop-opacity:1"/><stop offset="0.9" style="stop-color:#893040;stop-opacity:1"/><stop offset="1" style="stop-color:#6b312b;stop-opacity:1"/></radialGradient></defs></svg>