<?xml version="1.0" encoding="UTF-8" standalone="no"?><!DOCTYPE svg PUBLIC "-//W3C//DTD SVG 1.1//EN" "http://www.w3.org/Graphics/SVG/1.1/DTD/svg11.dtd"><svg width="100%" height="100%" viewBox="0 0 898 398" version="1.1" xmlns="http://www.w3.org/2000/svg" xmlns:xlink="http://www.w3.org/1999/xlink" xml:space="preserve" xmlns:serif="http://www.serif.com/" style="fill-rule:evenodd;clip-rule:evenodd;stroke-linejoin:round;stroke-miterlimit:2;"><g><path d="M869.466,206.447c-22.252,-3.75 -41.002,-0.208 -59.101,13.62c-16.25,12.422 -28.959,27.37 -25.378,48.828c4.714,28.216 48.568,7.773 61.589,11.953c22.786,7.005 44.505,-6.341 50.052,-26.549c5.195,-18.842 -6.224,-44.349 -27.162,-47.852Zm-275.234,131.393c0.495,-0.286 37.696,-15.416 62.253,-34.375c64.297,-49.648 75.924,22.005 55.338,30.104c-68.932,27.136 -129.596,102.006 -165.533,40.664c-16.342,-27.89 -1.485,-80.533 12.226,-105.924c15.351,-28.425 37.07,-56.445 55.951,-85.443c-51.836,-15.442 -94.936,64.518 -170.86,130.586c-192.291,167.37 -326.237,63.555 -144.271,-116.146c24.87,-24.557 51.589,-48.138 73.516,-74.765c-56.784,31.588 -110.703,74.817 -165.664,103.281c-45.221,23.398 -128.581,72.5 -180.573,40.104c-51.562,-32.122 -20.208,-83.021 26.328,-125.794c37.904,-34.87 36.328,-98.711 104.688,-93.828c14.948,1.067 33.619,26.979 24.518,41.901c-24.883,40.963 -78.151,82.656 -102.044,113.554c45.546,-13.723 147.304,-72.747 197.005,-107.695c42.265,-29.752 73.698,-71.64 118.151,-87.083c49.336,-17.136 109.101,-3.711 98.177,51.25c-24.232,121.706 -154.388,174.258 -204.076,276.588c83.178,-9.739 153.633,-101.797 208.711,-156.054c174.688,-172.175 255.169,-97.409 243.451,-43.672c-13.854,63.633 -134.258,192.331 -147.292,202.747Z" style="fill:#b01311;fill-rule:nonzero;"/><path d="M871.055,237.827c1.875,-6.81 0.313,-15.534 -3.958,-22.239c-2.344,-3.672 -6.459,-8.256 -12.813,-9.323c-3.06,-0.508 -5.82,-0.586 -8.659,-0.782c-12.473,1.368 -23.984,5.964 -35.26,14.584c-12.448,9.518 -22.747,20.547 -25.312,34.817c0.507,1.875 1.901,3.204 8.958,3.204c5.456,0 11.836,-1.016 18.008,-2.006c6.041,-0.95 11.744,-1.862 16.783,-1.862c3.334,0 6.185,0.404 8.581,1.159c2.813,0.886 5.677,1.315 8.49,1.315c11.771,0 22.122,-7.76 25.182,-18.867Z" style="fill:#d91900;fill-rule:nonzero;"/><path d="M568.464,371.72c16.484,0 39.14,-14.218 63.151,-29.283c19.792,-12.422 40.287,-25.287 61.797,-33.633c1.302,-1.328 2.956,-8.308 0.065,-15.183c-1.589,-3.776 -3.776,-5.599 -5.976,-6.536c-8.542,1.94 -18.816,6.966 -31.016,16.38c-24.557,18.959 -61.758,34.089 -62.253,34.375c1.602,-1.263 4.831,-4.362 9.258,-8.841c-6.354,3.034 -12.201,5.664 -16.862,7.656c13.633,-7.148 -35.208,4.063 14.896,-51.341c39.492,-43.62 105.052,-123.711 114.271,-166.015c2.33,-10.756 -0.456,-22.396 -7.487,-31.133c-5.456,-6.771 -15.782,-14.636 -34.167,-16.055c-40.56,2.956 -99.18,30.859 -176.068,106.654c-54.205,53.385 -123.32,143.242 -204.804,155.351c-50.261,17.422 -51.42,-20.286 67.031,-134.661c48.476,-46.771 94.245,-90.977 107.344,-156.797c2.395,-11.992 0.716,-21.576 -4.961,-28.49c-6.654,-8.112 -19.375,-12.877 -35.065,-13.802c-10.742,0.768 -21.784,2.943 -32.357,6.615c-44.453,15.443 -75.886,57.331 -118.151,87.083c-129.727,91.224 -193.399,109.688 -222.839,113.373c-25.56,3.19 -17.474,-5.808 42.774,-69.519c21.224,-22.448 46.875,-46.302 60.976,-69.492c0.886,-1.471 0.716,-5.247 -1.797,-10.091c-3.802,-7.37 -9.791,-11.549 -12.252,-11.953c-54.597,4.193 -55.86,61.393 -91.029,93.75c-26.745,24.583 -48.372,51.836 -52.226,76.68c1.744,9.505 8.072,17.76 19.765,25.039c9.466,5.885 20.599,8.763 34.076,8.763l0.013,0c61.054,-0.026 169.505,-69.076 219.948,-102.735c88.424,-59.062 195.859,-114.479 93.242,-19.609c-20.912,24.271 -45.404,46.276 -68.425,69.036c-56.823,56.12 -82.838,104.831 -85.885,140.196c0.469,4.31 1.419,8.19 2.825,11.601c7.722,18.815 27.956,22.774 43.568,22.774l0.013,0c43.75,-0.013 102.852,-29.636 162.175,-81.263c23.75,-20.677 44.674,-43.217 63.125,-63.099c39.661,-42.748 196.536,-156.12 128.489,-44.805l0.821,0.156c-18.881,28.998 -40.6,57.018 -55.951,85.443c-8.893,16.445 -18.099,44.297 -19.154,69.479c0.951,6.445 2.501,12.344 5.157,16.836c8.867,15.156 17.447,17.096 23.945,17.096Z" style="fill:#d91900;fill-rule:nonzero;"/><path d="M125.378,79.142c-6.94,8.112 -15.677,12.019 -19.518,8.737c-3.841,-3.294 -1.341,-12.539 5.612,-20.638c6.94,-8.112 15.69,-12.018 19.531,-8.737c3.841,3.295 1.315,12.539 -5.625,20.638Z" style="fill:#fff;fill-rule:nonzero;"/><path d="M392.93,46.108c-9.726,6.237 -19.974,7.539 -22.943,2.956c-2.929,-4.609 2.54,-13.398 12.279,-19.622c9.7,-6.237 19.961,-7.539 22.917,-2.956c2.955,4.622 -2.539,13.398 -12.253,19.622Z" style="fill:#fff;fill-rule:nonzero;"/><path d="M655.69,103.049c-10.911,3.789 -21.184,2.669 -22.994,-2.474c-1.797,-5.17 5.586,-12.435 16.51,-16.224c10.872,-3.789 21.172,-2.683 22.969,2.474c1.797,5.169 -5.586,12.447 -16.485,16.224Z" style="fill:#fff;fill-rule:nonzero;"/><path d="M839.61,234.676c-10.912,3.789 -21.185,2.682 -22.995,-2.474c-1.797,-5.156 5.586,-12.435 16.51,-16.224c10.873,-3.789 21.172,-2.669 22.969,2.474c1.797,5.182 -5.586,12.448 -16.484,16.224Z" style="fill:#fff;fill-rule:nonzero;"/><path d="M683.23,311.968c-7.826,2.721 -15.183,1.914 -16.485,-1.784c-1.276,-3.698 4.011,-8.906 11.823,-11.628c7.813,-2.708 15.182,-1.914 16.484,1.771c1.289,3.724 -4.01,8.932 -11.822,11.641Z" style="fill:#fff;fill-rule:nonzero;"/><path d="M577.396,281.629c-4.141,5.508 -9.609,8.373 -12.239,6.42c-2.591,-1.954 -1.354,-8.021 2.786,-13.542c4.154,-5.495 9.622,-8.373 12.227,-6.406c2.617,1.966 1.367,8.02 -2.774,13.528Z" style="fill:#fff;fill-rule:nonzero;"/><path d="M562.852,316.278c-2.057,5.403 -6.888,8.58 -10.768,7.109c-3.855,-1.471 -5.339,-7.096 -3.256,-12.513c2.097,-5.391 6.902,-8.568 10.782,-7.083c3.893,1.484 5.325,7.07 3.242,12.487Z" style="fill:#fff;fill-rule:nonzero;"/><path d="M251.094,288.569c-4.141,5.508 -9.609,8.386 -12.227,6.42c-2.591,-1.954 -1.367,-8.021 2.787,-13.542c4.141,-5.495 9.609,-8.359 12.214,-6.406c2.617,1.966 1.38,8.021 -2.774,13.528Z" style="fill:#fff;fill-rule:nonzero;"/><path d="M236.55,323.218c-2.057,5.403 -6.875,8.581 -10.768,7.109c-3.855,-1.471 -5.326,-7.096 -3.256,-12.513c2.097,-5.39 6.901,-8.568 10.782,-7.083c3.893,1.497 5.325,7.07 3.242,12.487Z" style="fill:#fff;fill-rule:nonzero;"/><path d="M39.206,177.111c-4.141,5.495 -9.609,8.372 -12.239,6.419c-2.592,-1.966 -1.355,-8.021 2.786,-13.541c4.154,-5.495 9.622,-8.373 12.227,-6.407c2.617,1.967 1.367,8.021 -2.774,13.529Z" style="fill:#fff;fill-rule:nonzero;"/><path d="M24.662,211.759c-2.071,5.404 -6.888,8.581 -10.768,7.11c-3.855,-1.485 -5.339,-7.097 -3.256,-12.513c2.097,-5.391 6.902,-8.581 10.782,-7.084c3.893,1.485 5.325,7.071 3.242,12.487Z" style="fill:#fff;fill-rule:nonzero;"/></g></svg>